  0
SECTION
  2
HEADER
  9
$ACADVER
  1
AC1015
  9
$ACADMAINTVER
 70
     6
  9
$DWGCODEPAGE
  3
ANSI_1252
  9
$INSBASE
 10
0.0
 20
0.0
 30
0.0
  9
$EXTMIN
 10
-6.266406064
 20
-6.2667258842
 30
0.0
  9
$EXTMAX
 10
6.2664066628
 20
6.2647133808
 30
0.0
  9
$LIMMIN
 10
0.0
 20
0.0
  9
$LIMMAX
 10
12.0
 20
9.0
  9
$ORTHOMODE
 70
     0
  9
$REGENMODE
 70
     1
  9
$FILLMODE
 70
     1
  9
$QTEXTMODE
 70
     0
  9
$MIRRTEXT
 70
     1
  9
$LTSCALE
 40
1.0
  9
$ATTMODE
 70
     1
  9
$TEXTSIZE
 40
0.125
  9
$TRACEWID
 40
0.05
  9
$TEXTSTYLE
  7
Standard
  9
$CLAYER
  8
0
  9
$CELTYPE
  6
ByLayer
  9
$CECOLOR
 62
   256
  9
$CELTSCALE
 40
1.0
  9
$DISPSILH
 70
     0
  9
$DIMSCALE
 40
1.0
  9
$DIMASZ
 40
0.13
  9
$DIMEXO
 40
0.0
  9
$DIMDLI
 40
0.38
  9
$DIMRND
 40
0.0
  9
$DIMDLE
 40
0.0
  9
$DIMEXE
 40
0.125
  9
$DIMTP
 40
0.0
  9
$DIMTM
 40
0.0
  9
$DIMTXT
 40
0.125
  9
$DIMCEN
 40
0.09
  9
$DIMTSZ
 40
0.0
  9
$DIMTOL
 70
     0
  9
$DIMLIM
 70
     0
  9
$DIMTIH
 70
     1
  9
$DIMTOH
 70
     1
  9
$DIMSE1
 70
     0
  9
$DIMSE2
 70
     0
  9
$DIMTAD
 70
     0
  9
$DIMZIN
 70
     1
  9
$DIMBLK
  1

  9
$DIMASO
 70
     1
  9
$DIMSHO
 70
     1
  9
$DIMPOST
  1

  9
$DIMAPOST
  1

  9
$DIMALT
 70
     0
  9
$DIMALTD
 70
     2
  9
$DIMALTF
 40
25.4
  9
$DIMLFAC
 40
1.0
  9
$DIMTOFL
 70
     0
  9
$DIMTVP
 40
0.0
  9
$DIMTIX
 70
     0
  9
$DIMSOXD
 70
     0
  9
$DIMSAH
 70
     0
  9
$DIMBLK1
  1

  9
$DIMBLK2
  1

  9
$DIMSTYLE
  2
Standard
  9
$DIMCLRD
 70
     0
  9
$DIMCLRE
 70
     0
  9
$DIMCLRT
 70
     0
  9
$DIMTFAC
 40
1.0
  9
$DIMGAP
 40
0.06
  9
$DIMJUST
 70
     0
  9
$DIMSD1
 70
     0
  9
$DIMSD2
 70
     0
  9
$DIMTOLJ
 70
     1
  9
$DIMTZIN
 70
     1
  9
$DIMALTZ
 70
     0
  9
$DIMALTTZ
 70
     0
  9
$DIMUPT
 70
     0
  9
$DIMDEC
 70
     2
  9
$DIMTDEC
 70
     2
  9
$DIMALTU
 70
     2
  9
$DIMALTTD
 70
     2
  9
$DIMTXSTY
  7
Standard
  9
$DIMAUNIT
 70
     0
  9
$DIMADEC
 70
     2
  9
$DIMALTRND
 40
0.0
  9
$DIMAZIN
 70
     0
  9
$DIMDSEP
 70
    46
  9
$DIMATFIT
 70
     3
  9
$DIMFRAC
 70
     0
  9
$DIMLDRBLK
  1

  9
$DIMLUNIT
 70
     2
  9
$DIMLWD
 70
    -2
  9
$DIMLWE
 70
    -2
  9
$DIMTMOVE
 70
     0
  9
$LUNITS
 70
     2
  9
$LUPREC
 70
     2
  9
$SKETCHINC
 40
0.1
  9
$FILLETRAD
 40
0.0
  9
$AUNITS
 70
     0
  9
$AUPREC
 70
     2
  9
$MENU
  1
.
  9
$ELEVATION
 40
0.0
  9
$PELEVATION
 40
0.0
  9
$THICKNESS
 40
0.0
  9
$LIMCHECK
 70
     0
  9
$CHAMFERA
 40
0.0
  9
$CHAMFERB
 40
0.0
  9
$CHAMFERC
 40
0.0
  9
$CHAMFERD
 40
0.0
  9
$SKPOLY
 70
     0
  9
$TDCREATE
 40
2460080.834693796
  9
$TDUCREATE
 40
2460081.043027129
  9
$TDUPDATE
 40
2460080.83472618
  9
$TDUUPDATE
 40
2460081.043059514
  9
$TDINDWG
 40
0.0000000116
  9
$TDUSRTIMER
 40
0.0000000116
  9
$USRTIMER
 70
     1
  9
$ANGBASE
 50
0.0
  9
$ANGDIR
 70
     0
  9
$PDMODE
 70
     0
  9
$PDSIZE
 40
-1.0
  9
$PLINEWID
 40
0.0
  9
$SPLFRAME
 70
     0
  9
$SPLINETYPE
 70
     6
  9
$SPLINESEGS
 70
     8
  9
$HANDSEED
  5
6F1
  9
$SURFTAB1
 70
     6
  9
$SURFTAB2
 70
     6
  9
$SURFTYPE
 70
     6
  9
$SURFU
 70
     6
  9
$SURFV
 70
     6
  9
$UCSBASE
  2

  9
$UCSNAME
  2

  9
$UCSORG
 10
0.0
 20
0.0
 30
0.0
  9
$UCSXDIR
 10
1.0
 20
0.0
 30
0.0
  9
$UCSYDIR
 10
0.0
 20
1.0
 30
0.0
  9
$UCSORTHOREF
  2

  9
$UCSORTHOVIEW
 70
     0
  9
$UCSORGTOP
 10
0.0
 20
0.0
 30
0.0
  9
$UCSORGBOTTOM
 10
0.0
 20
0.0
 30
0.0
  9
$UCSORGLEFT
 10
0.0
 20
0.0
 30
0.0
  9
$UCSORGRIGHT
 10
0.0
 20
0.0
 30
0.0
  9
$UCSORGFRONT
 10
0.0
 20
0.0
 30
0.0
  9
$UCSORGBACK
 10
0.0
 20
0.0
 30
0.0
  9
$PUCSBASE
  2

  9
$PUCSNAME
  2

  9
$PUCSORG
 10
0.0
 20
0.0
 30
0.0
  9
$PUCSXDIR
 10
1.0
 20
0.0
 30
0.0
  9
$PUCSYDIR
 10
0.0
 20
1.0
 30
0.0
  9
$PUCSORTHOREF
  2

  9
$PUCSORTHOVIEW
 70
     0
  9
$PUCSORGTOP
 10
0.0
 20
0.0
 30
0.0
  9
$PUCSORGBOTTOM
 10
0.0
 20
0.0
 30
0.0
  9
$PUCSORGLEFT
 10
0.0
 20
0.0
 30
0.0
  9
$PUCSORGRIGHT
 10
0.0
 20
0.0
 30
0.0
  9
$PUCSORGFRONT
 10
0.0
 20
0.0
 30
0.0
  9
$PUCSORGBACK
 10
0.0
 20
0.0
 30
0.0
  9
$USERI1
 70
     0
  9
$USERI2
 70
     0
  9
$USERI3
 70
     0
  9
$USERI4
 70
     0
  9
$USERI5
 70
     0
  9
$USERR1
 40
0.0
  9
$USERR2
 40
0.0
  9
$USERR3
 40
0.0
  9
$USERR4
 40
0.0
  9
$USERR5
 40
0.0
  9
$WORLDVIEW
 70
     1
  9
$SHADEDGE
 70
     3
  9
$SHADEDIF
 70
    70
  9
$TILEMODE
 70
     1
  9
$MAXACTVP
 70
    64
  9
$PINSBASE
 10
0.0
 20
0.0
 30
0.0
  9
$PLIMCHECK
 70
     0
  9
$PEXTMIN
 10
1.0000000000E+20
 20
1.0000000000E+20
 30
1.0000000000E+20
  9
$PEXTMAX
 10
-1.0000000000E+20
 20
-1.0000000000E+20
 30
-1.0000000000E+20
  9
$PLIMMIN
 10
0.0
 20
0.0
  9
$PLIMMAX
 10
12.0
 20
9.0
  9
$UNITMODE
 70
     0
  9
$VISRETAIN
 70
     1
  9
$PLINEGEN
 70
     0
  9
$PSLTSCALE
 70
     1
  9
$TREEDEPTH
 70
  3020
  9
$CMLSTYLE
  2
Standard
  9
$CMLJUST
 70
     0
  9
$CMLSCALE
 40
1.0
  9
$PROXYGRAPHICS
 70
     1
  9
$MEASUREMENT
 70
     0
  9
$CELWEIGHT
370
    -1
  9
$ENDCAPS
280
     0
  9
$JOINSTYLE
280
     0
  9
$LWDISPLAY
290
     1
  9
$INSUNITS
 70
     1
  9
$HYPERLINKBASE
  1

  9
$STYLESHEET
  1

  9
$XEDIT
290
     1
  9
$CEPSNTYPE
380
     0
  9
$PSTYLEMODE
290
     1
  9
$FINGERPRINTGUID
  2
{e6a4d03e-817f-4a1e-b6f2-b25a08b67b76}
  9
$VERSIONGUID
  2
{FAEB1C32-E019-11D5-929B-00C0DF256EC4}
  9
$EXTNAMES
290
     1
  9
$PSVPSCALE
 40
0.0
  9
$OLESTARTUP
290
     0
  0
ENDSEC
  0
SECTION
  2
CLASSES
  0
CLASS
  1
ACDBDICTIONARYWDFLT
  2
AcDbDictionaryWithDefault
  3
ObjectDBX Classes
 90
        0
280
     0
281
     0
  0
CLASS
  1
VISUALSTYLE
  2
AcDbVisualStyle
  3
ObjectDBX Classes
 90
     4095
280
     0
281
     0
  0
CLASS
  1
MATERIAL
  2
AcDbMaterial
  3
ObjectDBX Classes
 90
     1153
280
     0
281
     0
  0
CLASS
  1
SCALE
  2
AcDbScale
  3
ObjectDBX Classes
 90
     1153
280
     0
281
     0
  0
CLASS
  1
TABLESTYLE
  2
AcDbTableStyle
  3
ObjectDBX Classes
 90
     4095
280
     0
281
     0
  0
CLASS
  1
MLEADERSTYLE
  2
AcDbMLeaderStyle
  3
ACDB_MLEADERSTYLE_CLASS
 90
     4095
280
     0
281
     0
  0
CLASS
  1
SUN
  2
AcDbSun
  3
SCENEOE
 90
     1153
280
     0
281
     0
  0
CLASS
  1
ACDBPLACEHOLDER
  2
AcDbPlaceHolder
  3
ObjectDBX Classes
 90
        0
280
     0
281
     0
  0
CLASS
  1
LAYOUT
  2
AcDbLayout
  3
ObjectDBX Classes
 90
        0
280
     0
281
     0
  0
ENDSEC
  0
SECTION
  2
TABLES
  0
TABLE
  2
VPORT
  5
8
330
0
100
AcDbSymbolTable
 70
     1
  0
VPORT
  5
29
330
8
100
AcDbSymbolTableRecord
100
AcDbViewportTableRecord
  2
*Active
 70
     0
 10
0.0
 20
0.0
 11
1.0
 21
1.0
 12
0.0000002994
 22
-0.0010062517
 13
0.0
 23
0.0
 14
0.5
 24
0.5
 15
0.5
 25
0.5
 16
0.0
 26
0.0
 36
1.0
 17
0.0
 27
0.0
 37
0.0
 40
12.7820680503
 41
1.0001096013
 42
50.0
 43
0.0
 44
0.0
 50
0.0
 51
0.0
 71
     0
 72
   100
 73
     1
 74
     3
 75
     0
 76
     0
 77
     0
 78
     0
281
     0
 65
     1
110
0.0
120
0.0
130
0.0
111
1.0
121
0.0
131
0.0
112
0.0
122
1.0
132
0.0
 79
     0
146
0.0
  0
ENDTAB
  0
TABLE
  2
LTYPE
  5
5
330
0
100
AcDbSymbolTable
 70
     6
  0
LTYPE
  5
14
330
5
100
AcDbSymbolTableRecord
100
AcDbLinetypeTableRecord
  2
ByBlock
 70
     0
  3

 72
    65
 73
     0
 40
0.0
  0
LTYPE
  5
15
330
5
100
AcDbSymbolTableRecord
100
AcDbLinetypeTableRecord
  2
ByLayer
 70
     0
  3

 72
    65
 73
     0
 40
0.0
  0
LTYPE
  5
16
330
5
100
AcDbSymbolTableRecord
100
AcDbLinetypeTableRecord
  2
Continuous
 70
     0
  3
Solid line
 72
    65
 73
     0
 40
0.0
  0
LTYPE
  5
5E
330
5
100
AcDbSymbolTableRecord
100
AcDbLinetypeTableRecord
  2
HIDDEN
 70
     0
  3
Hidden __ __ __ __ __ __ __ __ __ __ __ __ __ __
 72
    65
 73
     2
 40
0.075
 49
0.05
 74
     0
 49
-0.025
 74
     0
  0
LTYPE
  5
5F
330
5
100
AcDbSymbolTableRecord
100
AcDbLinetypeTableRecord
  2
PHANTOM
 70
     0
  3
Phantom ______  __  __  ______  __  __  ______
 72
    65
 73
     6
 40
0.5
 49
0.25
 74
     0
 49
-0.05
 74
     0
 49
0.05
 74
     0
 49
-0.05
 74
     0
 49
0.05
 74
     0
 49
-0.05
 74
     0
  0
LTYPE
  5
60
330
5
100
AcDbSymbolTableRecord
100
AcDbLinetypeTableRecord
  2
CENTER
 70
     0
  3
Center ____ _ ____ _ ____ _ ____ _ ____ _ ____
 72
    65
 73
     4
 40
0.4
 49
0.25
 74
     0
 49
-0.05
 74
     0
 49
0.05
 74
     0
 49
-0.05
 74
     0
  0
LTYPE
  5
61
330
5
100
AcDbSymbolTableRecord
100
AcDbLinetypeTableRecord
  2
CENTERX2
 70
     0
  3
Center (2x) ________  __  ________  __  _____
 72
    65
 73
     4
 40
0.8
 49
0.5
 74
     0
 49
-0.1
 74
     0
 49
0.1
 74
     0
 49
-0.1
 74
     0
  0
LTYPE
  5
62
330
5
100
AcDbSymbolTableRecord
100
AcDbLinetypeTableRecord
  2
DOT2
 70
     0
  3
Dot (.5x) ........................................
 72
    65
 73
     2
 40
0.025
 49
0.0
 74
     0
 49
-0.025
 74
     0
  0
ENDTAB
  0
TABLE
  2
LAYER
  5
2
330
0
100
AcDbSymbolTable
 70
     1
  0
LAYER
  5
10
330
2
100
AcDbSymbolTableRecord
100
AcDbLayerTableRecord
  2
0
 70
     0
 62
     7
  6
Continuous
370
    -3
390
F
  0
ENDTAB
  0
TABLE
  2
STYLE
  5
3
330
0
100
AcDbSymbolTable
 70
     2
  0
STYLE
  5
11
330
3
100
AcDbSymbolTableRecord
100
AcDbTextStyleTableRecord
  2
Standard
 70
     0
 40
0.0
 41
1.0
 50
0.0
 71
     0
 42
0.125
  3
txt
  4

  0
STYLE
  5
6ED
330
3
100
AcDbSymbolTableRecord
100
AcDbTextStyleTableRecord
  2
SLDTEXTSTYLE0
 70
     0
 40
0.0
 41
0.7
 50
0.0
 71
     0
 42
0.125
  3
TXT
  4

  0
ENDTAB
  0
TABLE
  2
VIEW
  5
6
330
0
100
AcDbSymbolTable
 70
     0
  0
ENDTAB
  0
TABLE
  2
UCS
  5
7
330
0
100
AcDbSymbolTable
 70
     0
  0
ENDTAB
  0
TABLE
  2
APPID
  5
9
330
0
100
AcDbSymbolTable
 70
     1
  0
APPID
  5
12
330
9
100
AcDbSymbolTableRecord
100
AcDbRegAppTableRecord
  2
ACAD
 70
     0
  0
ENDTAB
  0
TABLE
  2
DIMSTYLE
  5
A
330
0
100
AcDbSymbolTable
 70
     1
100
AcDbDimStyleTable
  0
DIMSTYLE
105
27
330
A
100
AcDbSymbolTableRecord
100
AcDbDimStyleTableRecord
  2
Standard
 70
     0
178
     0
340
11
  0
ENDTAB
  0
TABLE
  2
BLOCK_RECORD
  5
1
330
0
100
AcDbSymbolTable
 70
     1
  0
BLOCK_RECORD
  5
1F
330
1
100
AcDbSymbolTableRecord
100
AcDbBlockTableRecord
  2
*Model_Space
340
22
  0
BLOCK_RECORD
  5
1B
330
1
100
AcDbSymbolTableRecord
100
AcDbBlockTableRecord
  2
*Paper_Space
340
1E
  0
BLOCK_RECORD
  5
23
330
1
100
AcDbSymbolTableRecord
100
AcDbBlockTableRecord
  2
*Paper_Space0
340
26
  0
ENDTAB
  0
ENDSEC
  0
SECTION
  2
BLOCKS
  0
BLOCK
  5
20
330
1F
100
AcDbEntity
  8
0
100
AcDbBlockBegin
  2
*Model_Space
 70
     0
 10
0.0
 20
0.0
 30
0.0
  3
*Model_Space
  1

  0
ENDBLK
  5
21
330
1F
100
AcDbEntity
  8
0
100
AcDbBlockEnd
  0
BLOCK
  5
1C
330
1B
100
AcDbEntity
 67
     1
  8
0
100
AcDbBlockBegin
  2
*Paper_Space
 70
     0
 10
0.0
 20
0.0
 30
0.0
  3
*Paper_Space
  1

  0
ENDBLK
  5
1D
330
1B
100
AcDbEntity
 67
     1
  8
0
100
AcDbBlockEnd
  0
BLOCK
  5
24
330
23
100
AcDbEntity
  8
0
100
AcDbBlockBegin
  2
*Paper_Space0
 70
     0
 10
0.0
 20
0.0
 30
0.0
  3
*Paper_Space0
  1

  0
ENDBLK
  5
25
330
23
100
AcDbEntity
  8
0
100
AcDbBlockEnd
  0
ENDSEC
  0
SECTION
  2
ENTITIES
  0
CIRCLE
  5
63
330
1F
100
AcDbEntity
  8
0
  6
Continuous
 62
     7
370
    25
100
AcDbCircle
 10
0.0
 20
0.0
 30
0.0
 40
5.91885967692446
  0
CIRCLE
  5
64
330
1F
100
AcDbEntity
  8
0
  6
Continuous
 62
     7
370
    25
100
AcDbCircle
 10
-3.75
 20
-2.7
 30
0.0
 40
0.103499999999999
  0
CIRCLE
  5
65
330
1F
100
AcDbEntity
  8
0
  6
Continuous
 62
     7
370
    25
100
AcDbCircle
 10
3.75
 20
-2.7
 30
0.0
 40
0.1034999999999999
  0
CIRCLE
  5
66
330
1F
100
AcDbEntity
  8
0
  6
Continuous
 62
     7
370
    25
100
AcDbCircle
 10
0.0
 20
0.0
 30
0.0
 40
3.999999999999999
  0
CIRCLE
  5
67
330
1F
100
AcDbEntity
  8
0
  6
Continuous
 62
     7
370
    25
100
AcDbCircle
 10
5.0
 20
-0.5
 30
0.0
 40
0.1034999999999995
  0
CIRCLE
  5
68
330
1F
100
AcDbEntity
  8
0
  6
Continuous
 62
     7
370
    25
100
AcDbCircle
 10
5.0
 20
0.5
 30
0.0
 40
0.103499999999999
  0
CIRCLE
  5
69
330
1F
100
AcDbEntity
  8
0
  6
Continuous
 62
     7
370
    25
100
AcDbCircle
 10
-5.0
 20
0.5
 30
0.0
 40
0.1034999999999996
  0
CIRCLE
  5
6A
330
1F
100
AcDbEntity
  8
0
  6
Continuous
 62
     7
370
    25
100
AcDbCircle
 10
-5.0
 20
-0.5
 30
0.0
 40
0.1035000000000014
  0
CIRCLE
  5
6B
330
1F
100
AcDbEntity
  8
0
  6
Continuous
 62
     7
370
    25
100
AcDbCircle
 10
3.5355339059
 20
-3.5355339059
 30
0.0
 40
0.1285000000000007
  0
CIRCLE
  5
6C
330
1F
100
AcDbEntity
  8
0
  6
Continuous
 62
     7
370
    25
100
AcDbCircle
 10
-3.5355339059
 20
-3.5355339059
 30
0.0
 40
0.1284999999999998
  0
CIRCLE
  5
6D
330
1F
100
AcDbEntity
  8
0
  6
Continuous
 62
     7
370
    25
100
AcDbCircle
 10
-3.5355339059
 20
3.5355339059
 30
0.0
 40
0.1285000000000012
  0
CIRCLE
  5
6E
330
1F
100
AcDbEntity
  8
0
  6
Continuous
 62
     7
370
    25
100
AcDbCircle
 10
3.5355339059
 20
3.5355339059
 30
0.0
 40
0.1284999999999963
  0
CIRCLE
  5
6F
330
1F
100
AcDbEntity
  8
0
  6
Continuous
 62
     7
370
    25
100
AcDbCircle
 10
2.375
 20
3.875
 30
0.0
 40
0.1035000000000004
  0
CIRCLE
  5
70
330
1F
100
AcDbEntity
  8
0
  6
Continuous
 62
     7
370
    25
100
AcDbCircle
 10
2.375
 20
4.875
 30
0.0
 40
0.1034999999999995
  0
CIRCLE
  5
71
330
1F
100
AcDbEntity
  8
0
  6
Continuous
 62
     7
370
    25
100
AcDbCircle
 10
1.125
 20
4.875
 30
0.0
 40
0.1035000000000004
  0
CIRCLE
  5
72
330
1F
100
AcDbEntity
  8
0
  6
Continuous
 62
     7
370
    25
100
AcDbCircle
 10
-1.125
 20
4.875
 30
0.0
 40
0.1034999999999995
  0
CIRCLE
  5
73
330
1F
100
AcDbEntity
  8
0
  6
Continuous
 62
     7
370
    25
100
AcDbCircle
 10
-2.375
 20
4.875
 30
0.0
 40
0.1034999999999977
  0
CIRCLE
  5
74
330
1F
100
AcDbEntity
  8
0
  6
Continuous
 62
     7
370
    25
100
AcDbCircle
 10
-2.375
 20
3.875
 30
0.0
 40
0.1034999999999995
  0
CIRCLE
  5
75
330
1F
100
AcDbEntity
  8
0
  6
Continuous
 62
     7
370
    25
100
AcDbCircle
 10
0.5
 20
-5.1875
 30
0.0
 40
0.1034999999999995
  0
CIRCLE
  5
76
330
1F
100
AcDbEntity
  8
0
  6
Continuous
 62
     7
370
    25
100
AcDbCircle
 10
-1.75
 20
-5.1875
 30
0.0
 40
0.1035000000000004
  0
CIRCLE
  5
77
330
1F
100
AcDbEntity
  8
0
  6
Continuous
 62
     7
370
    25
100
AcDbCircle
 10
-0.5
 20
-5.1875
 30
0.0
 40
0.1034999999999995
  0
CIRCLE
  5
78
330
1F
100
AcDbEntity
  8
0
  6
Continuous
 62
     7
370
    25
100
AcDbCircle
 10
-1.75
 20
-4.1875
 30
0.0
 40
0.1034999999999995
  0
CIRCLE
  5
79
330
1F
100
AcDbEntity
  8
0
  6
Continuous
 62
     7
370
    25
100
AcDbCircle
 10
1.75
 20
-5.1875
 30
0.0
 40
0.1035000000000013
  0
CIRCLE
  5
7A
330
1F
100
AcDbEntity
  8
0
  6
Continuous
 62
     7
370
    25
100
AcDbCircle
 10
1.75
 20
-4.1875
 30
0.0
 40
0.1034999999999995
  0
CIRCLE
  5
7B
330
1F
100
AcDbEntity
  8
0
  6
Continuous
 62
     7
370
    25
100
AcDbCircle
 10
0.5
 20
-4.1875
 30
0.0
 40
0.1034999999999995
  0
CIRCLE
  5
7C
330
1F
100
AcDbEntity
  8
0
  6
Continuous
 62
     7
370
    25
100
AcDbCircle
 10
-0.5
 20
-4.1875
 30
0.0
 40
0.1034999999999995
  0
LINE
  5
3B5
330
1F
100
AcDbEntity
  8
0
  6
Continuous
 62
     7
370
    25
100
AcDbLine
 10
-5.1490680835
 20
-3.3979709196
 30
0.0
 11
-5.1624512485
 21
-3.4111030708
 31
0.0
  0
LINE
  5
3B6
330
1F
100
AcDbEntity
  8
0
  6
Continuous
 62
     7
370
    25
100
AcDbLine
 10
-5.2923917454
 20
-3.2057942333
 30
0.0
 11
-5.2747952318
 21
-3.1993192654
 31
0.0
  0
LINE
  5
3B7
330
1F
100
AcDbEntity
  8
0
  6
Continuous
 62
     7
370
    25
100
AcDbLine
 10
-5.3466444539
 20
-3.0777429364
 30
0.0
 11
-5.3608033139
 21
-3.0900347705
 31
0.0
  0
LINE
  5
3B8
330
1F
100
AcDbEntity
  8
0
  6
Continuous
 62
     7
370
    25
100
AcDbLine
 10
-5.4779856748
 20
-2.8771861253
 30
0.0
 11
-5.4600271515
 21
-2.8717959544
 31
0.0
  0
LINE
  5
3B9
330
1F
100
AcDbEntity
  8
0
  6
Continuous
 62
     7
370
    25
100
AcDbLine
 10
-5.5243309558
 20
-2.7460655474
 30
0.0
 11
-5.5392128388
 21
-2.7574713379
 31
0.0
  0
LINE
  5
3BA
330
1F
100
AcDbEntity
  8
0
  6
Continuous
 62
     7
370
    25
100
AcDbLine
 10
-5.6432011377
 20
-2.5378746959
 30
0.0
 11
-5.6249474117
 21
-2.5335893738
 31
0.0
  0
LINE
  5
3BB
330
1F
100
AcDbEntity
  8
0
  6
Continuous
 62
     7
370
    25
100
AcDbLine
 10
-5.6814665836
 20
-2.4041726141
 30
0.0
 11
-5.6970161282
 21
-2.4146499308
 31
0.0
  0
LINE
  5
3BC
330
1F
100
AcDbEntity
  8
0
  6
Continuous
 62
     7
370
    25
100
AcDbLine
 10
-5.7874235218
 20
-2.1891222059
 30
0.0
 11
-5.768942498
 21
-2.1859576744
 31
0.0
  0
LINE
  5
3BD
330
1F
100
AcDbEntity
  8
0
  6
Continuous
 62
     7
370
    25
100
AcDbLine
 10
-5.8174667826
 20
-2.0533360008
 30
0.0
 11
-5.8336261434
 21
-2.0628458673
 31
0.0
  0
LINE
  5
3BE
330
1F
100
AcDbEntity
  8
0
  6
Continuous
 62
     7
370
    25
100
AcDbLine
 10
-5.9101163102
 20
-1.8322260376
 30
0.0
 11
-5.8914767393
 21
-1.8301940688
 31
0.0
  0
LINE
  5
3BF
330
1F
100
AcDbEntity
  8
0
  6
Continuous
 62
     7
370
    25
100
AcDbLine
 10
-5.9318256231
 20
-1.6948608428
 30
0.0
 11
-5.9485346861
 21
-1.7033678818
 31
0.0
  0
LINE
  5
3C0
330
1F
100
AcDbEntity
  8
0
  6
Continuous
 62
     7
370
    25
100
AcDbLine
 10
-6.0108230778
 20
-1.4685138681
 30
0.0
 11
-5.9920943002
 21
-1.4676220211
 31
0.0
  0
LINE
  5
3C1
330
1F
100
AcDbEntity
  8
0
  6
Continuous
 62
     7
370
    25
100
AcDbLine
 10
-6.0241176827
 20
-1.330080691
 30
0.0
 11
-6.0413142892
 21
-1.3375532558
 31
0.0
  0
LINE
  5
3C2
330
1F
100
AcDbEntity
  8
0
  6
Continuous
 62
     7
370
    25
100
AcDbLine
 10
-6.0891691887
 20
-1.0993387305
 30
0.0
 11
-6.0704208767
 21
-1.0995903231
 31
0.0
  0
LINE
  5
3C3
330
1F
100
AcDbEntity
  8
0
  6
Continuous
 62
     7
370
    25
100
AcDbLine
 10
-6.0939996288
 20
-0.9603525518
 30
0.0
 11
-6.1116198063
 21
-0.9667628439
 31
0.0
  0
LINE
  5
3C4
330
1F
100
AcDbEntity
  8
0
  6
Continuous
 62
     7
370
    25
100
AcDbLine
 10
-6.1448631903
 20
-0.7260739806
 30
0.0
 11
-6.1261650889
 21
-0.7274680768
 31
0.0
  0
LINE
  5
3C5
330
1F
100
AcDbEntity
  8
0
  6
Continuous
 62
     7
370
    25
100
AcDbLine
 10
-6.141211496
 20
-0.587051838
 30
0.0
 11
-6.1591896963
 21
-0.5923760107
 31
0.0
  0
LINE
  5
3C6
330
1F
100
AcDbEntity
  8
0
  6
Continuous
 62
     7
370
    25
100
AcDbLine
 10
-6.1776978972
 20
-0.3501081879
 30
0.0
 11
-6.1591195646
 21
-0.3526396015
 31
0.0
  0
LINE
  5
3C7
330
1F
100
AcDbEntity
  8
0
  6
Continuous
 62
     7
370
    25
100
AcDbLine
 10
-6.1655776531
 20
-0.2115672528
 30
0.0
 11
-6.1838469961
 21
-0.2157854998
 31
0.0
  0
LINE
  5
3C8
330
1F
100
AcDbEntity
  8
0
  6
Continuous
 62
     7
370
    25
100
AcDbLine
 10
-6.1875511623
 20
0.0271600304
 30
0.0
 11
-6.1691617109
 21
0.0235007162
 31
0.0
  0
LINE
  5
3C9
330
1F
100
AcDbEntity
  8
0
  6
Continuous
 62
     7
370
    25
100
AcDbLine
 10
-6.1670074564
 20
0.1647043765
 30
0.0
 11
-6.1854999789
 21
0.1616077473
 31
0.0
  0
LINE
  5
3CA
330
1F
100
AcDbEntity
  8
0
  6
Continuous
 62
     7
370
    25
100
AcDbLine
 10
-6.1743863305
 20
0.4043272115
 30
0.0
 11
-6.1562541705
 21
0.3995536098
 31
0.0
  0
LINE
  5
3CB
330
1F
100
AcDbEntity
  8
0
  6
Continuous
 62
     7
370
    25
100
AcDbLine
 10
-6.1454955869
 20
0.5403632947
 30
0.0
 11
-6.1641424955
 21
0.5383998029
 31
0.0
  0
LINE
  5
3CC
330
1F
100
AcDbEntity
  8
0
  6
Continuous
 62
     7
370
    25
100
AcDbLine
 10
-6.1382523761
 20
0.7799902688
 30
0.0
 11
-6.1204449603
 21
0.7741201377
 31
0.0
  0
LINE
  5
3CD
330
1F
100
AcDbEntity
  8
0
  6
Continuous
 62
     7
370
    25
100
AcDbLine
 10
-6.1011220702
 20
0.914012026
 30
0.0
 11
-6.1198539972
 21
0.9131889759
 31
0.0
  0
LINE
  5
3CE
330
1F
100
AcDbEntity
  8
0
  6
Continuous
 62
     7
370
    25
100
AcDbLine
 10
-6.0792837198
 20
1.1527517111
 30
0.0
 11
-6.0618672928
 21
1.1458068878
 31
0.0
  0
LINE
  5
3CF
330
1F
100
AcDbEntity
  8
0
  6
Continuous
 62
     7
370
    25
100
AcDbLine
 10
-6.0340519787
 20
1.2842605725
 30
0.0
 11
-6.0527992401
 21
1.284581026
 31
0.0
  0
LINE
  5
3D0
330
1F
100
AcDbEntity
  8
0
  6
Continuous
 62
     7
370
    25
100
AcDbLine
 10
-5.9976997286
 20
1.5212248413
 30
0.0
 11
-5.9807390808
 21
1.513231161
 31
0.0
  0
LINE
  5
3D1
330
1F
100
AcDbEntity
  8
0
  6
Continuous
 62
     7
370
    25
100
AcDbLine
 10
-5.9445348174
 20
1.6497315852
 30
0.0
 11
-5.9632276722
 21
1.6511943503
 31
0.0
  0
LINE
  5
3D2
330
1F
100
AcDbEntity
  8
0
  6
Continuous
 62
     7
370
    25
100
AcDbLine
 10
-5.8938039006
 20
1.8840389152
 30
0.0
 11
-5.8773621266
 21
1.875026115
 31
0.0
  0
LINE
  5
3D3
330
1F
100
AcDbEntity
  8
0
  6
Continuous
 62
     7
370
    25
100
AcDbLine
 10
-5.8329035963
 20
2.0090654882
 30
0.0
 11
-5.8514725057
 21
2.0116651231
 31
0.0
  0
LINE
  5
3D4
330
1F
100
AcDbEntity
  8
0
  6
Continuous
 62
     7
370
    25
100
AcDbLine
 10
-5.7679827349
 20
2.2398442406
 30
0.0
 11
-5.7521209993
 21
2.2298458486
 31
0.0
  0
LINE
  5
3D5
330
1F
100
AcDbEntity
  8
0
  6
Continuous
 62
     7
370
    25
100
AcDbLine
 10
-5.6995735906
 20
2.3609255356
 30
0.0
 11
-5.7179494772
 21
2.3646523696
 31
0.0
  0
LINE
  5
3D6
330
1F
100
AcDbEntity
  8
0
  6
Continuous
 62
     7
370
    25
100
AcDbLine
 10
-5.6207042947
 20
2.5873171983
 30
0.0
 11
-5.6054816041
 21
2.5763704092
 31
0.0
  0
LINE
  5
3D7
330
1F
100
AcDbEntity
  8
0
  6
Continuous
 62
     7
370
    25
100
AcDbLine
 10
-5.5450407968
 20
2.7040027849
 30
0.0
 11
-5.5631553011
 21
2.7088429539
 31
0.0
  0
LINE
  5
3D8
330
1F
100
AcDbEntity
  8
0
  6
Continuous
 62
     7
370
    25
100
AcDbLine
 10
-5.4525164652
 20
2.9251651661
 30
0.0
 11
-5.4379894491
 21
2.9133107027
 31
0.0
  0
LINE
  5
3D9
330
1F
100
AcDbEntity
  8
0
  6
Continuous
 62
     7
370
    25
100
AcDbLine
 10
-5.3698800871
 20
3.0370209662
 30
0.0
 11
-5.3876658218
 21
3.0429564645
 31
0.0
  0
LINE
  5
3DA
330
1F
100
AcDbEntity
  8
0
  6
Continuous
 62
     7
370
    25
100
AcDbLine
 10
-5.2640449164
 20
3.2521313273
 30
0.0
 11
-5.2502676162
 21
3.239413289
 31
0.0
  0
LINE
  5
3DB
330
1F
100
AcDbEntity
  8
0
  6
Continuous
 62
     7
370
    25
100
AcDbLine
 10
-5.1747430707
 20
3.3587412301
 30
0.0
 11
-5.1921338719
 21
3.3657499772
 31
0.0
  0
LINE
  5
3DC
330
1F
100
AcDbEntity
  8
0
  6
Continuous
 62
     7
370
    25
100
AcDbLine
 10
-5.0559907748
 20
3.5669993465
 30
0.0
 11
-5.043014443
 21
3.5534650452
 31
0.0
  0
LINE
  5
3DD
330
1F
100
AcDbEntity
  8
0
  6
Continuous
 62
     7
370
    25
100
AcDbLine
 10
-4.9603556703
 20
3.667966756
 30
0.0
 11
-4.9772868429
 21
3.676022679
 31
0.0
  0
LINE
  5
3DE
330
1F
100
AcDbEntity
  8
0
  6
Continuous
 62
     7
370
    25
100
AcDbLine
 10
-4.8291280154
 20
3.8685978937
 30
0.0
 11
-4.8170009248
 21
3.8542976779
 31
0.0
  0
LINE
  5
3DF
330
1F
100
AcDbEntity
  8
0
  6
Continuous
 62
     7
370
    25
100
AcDbLine
 10
-4.7275154209
 20
3.9635472047
 30
0.0
 11
-4.74392398
 21
3.9726203349
 31
0.0
  0
LINE
  5
3E0
330
1F
100
AcDbEntity
  8
0
  6
Continuous
 62
     7
370
    25
100
AcDbLine
 10
-4.5843005827
 20
4.1558050027
 30
0.0
 11
-4.5730678467
 21
4.1407920702
 31
0.0
  0
LINE
  5
3E1
330
1F
100
AcDbEntity
  8
0
  6
Continuous
 62
     7
370
    25
100
AcDbLine
 10
-4.4770885037
 20
4.2443829974
 30
0.0
 11
-4.4929134082
 21
4.2544395822
 31
0.0
  0
LINE
  5
3E2
330
1F
100
AcDbEntity
  8
0
  6
Continuous
 62
     7
370
    25
100
AcDbLine
 10
-4.3224192506
 20
4.4275522441
 30
0.0
 11
-4.312122656
 21
4.4118824439
 31
0.0
  0
LINE
  5
3E3
330
1F
100
AcDbEntity
  8
0
  6
Continuous
 62
     7
370
    25
100
AcDbLine
 10
-4.2100065232
 20
4.5094294066
 30
0.0
 11
-4.2251889035
 21
4.5204320349
 31
0.0
  0
LINE
  5
3E4
330
1F
100
AcDbEntity
  8
0
  6
Continuous
 62
     7
370
    25
100
AcDbLine
 10
-4.0444582351
 20
4.6828287004
 30
0.0
 11
-4.0351360857
 21
4.6665603253
 31
0.0
  0
LINE
  5
3E5
330
1F
100
AcDbEntity
  8
0
  6
Continuous
 62
     7
370
    25
100
AcDbLine
 10
-3.9272630419
 20
4.7577004423
 30
0.0
 11
-3.9417464186
 21
4.7696081835
 31
0.0
  0
LINE
  5
3E6
330
1F
100
AcDbEntity
  8
0
  6
Continuous
 62
     7
370
    25
100
AcDbLine
 10
-3.7514515692
 20
4.9206847264
 30
0.0
 11
-3.7431385441
 21
4.9038782957
 31
0.0
  0
LINE
  5
3E7
330
1F
100
AcDbEntity
  8
0
  6
Continuous
 62
     7
370
    25
100
AcDbLine
 10
-3.6299098842
 20
4.9882725198
 30
0.0
 11
-3.6436403781
 21
5.0010410764
 31
0.0
  0
LINE
  5
3E8
330
1F
100
AcDbEntity
  8
0
  6
Continuous
 62
     7
370
    25
100
AcDbLine
 10
-3.4444892572
 20
5.140235482
 30
0.0
 11
-3.4372162813
 21
5.1229535167
 31
0.0
  0
LINE
  5
3E9
330
1F
100
AcDbEntity
  8
0
  6
Continuous
 62
     7
370
    25
100
AcDbLine
 10
-3.3190532233
 20
5.2002878959
 30
0.0
 11
-3.331979756
 21
5.213869768
 31
0.0
  0
LINE
  5
3EA
330
1F
100
AcDbEntity
  8
0
  6
Continuous
 62
     7
370
    25
100
AcDbLine
 10
-3.1247132188
 20
5.3406642239
 30
0.0
 11
-3.1185073482
 21
5.3229710142
 31
0.0
  0
LINE
  5
3EB
330
1F
100
AcDbEntity
  8
0
  6
Continuous
 62
     7
370
    25
100
AcDbLine
 10
-2.9958494664
 20
5.3929578595
 30
0.0
 11
-3.0079239505
 21
5.4073025217
 31
0.0
  0
LINE
  5
3EC
330
1F
100
AcDbEntity
  8
0
  6
Continuous
 62
     7
370
    25
100
AcDbLine
 10
-2.7933130421
 20
5.5212253442
 30
0.0
 11
-2.788197363
 21
5.5031867099
 31
0.0
  0
LINE
  5
3ED
330
1F
100
AcDbEntity
  8
0
  6
Continuous
 62
     7
370
    25
100
AcDbLine
 10
-2.6615009527
 20
5.5655656656
 30
0.0
 11
-2.6726784702
 21
5.5806197548
 31
0.0
  0
LINE
  5
3EE
330
1F
100
AcDbEntity
  8
0
  6
Continuous
 62
     7
370
    25
100
AcDbLine
 10
-2.4515215574
 20
5.6812471436
 30
0.0
 11
-2.4475151004
 21
5.6629301896
 31
0.0
  0
LINE
  5
3EF
330
1F
100
AcDbEntity
  8
0
  6
Continuous
 62
     7
370
    25
100
AcDbLine
 10
-2.3172514806
 20
5.7174692019
 30
0.0
 11
-2.3274904505
 21
5.7331767159
 31
0.0
  0
LINE
  5
3F0
330
1F
100
AcDbEntity
  8
0
  6
Continuous
 62
     7
370
    25
100
AcDbLine
 10
-2.1006102514
 20
5.8201343304
 30
0.0
 11
-2.0977279209
 21
5.8016071971
 31
0.0
  0
LINE
  5
3F1
330
1F
100
AcDbEntity
  8
0
  6
Continuous
 62
     7
370
    25
100
AcDbLine
 10
-1.9643816809
 20
5.8481033773
 30
0.0
 11
-1.9736440135
 21
5.864405883
 31
0.0
  0
LINE
  5
3F2
330
1F
100
AcDbEntity
  8
0
  6
Continuous
 62
     7
370
    25
100
AcDbLine
 10
-1.7418845374
 20
5.9373702353
 30
0.0
 11
-1.7401370557
 21
5.9187018447
 31
0.0
  0
LINE
  5
3F3
330
1F
100
AcDbEntity
  8
0
  6
Continuous
 62
     7
370
    25
100
AcDbLine
 10
-1.6042042522
 20
5.9569822239
 30
0.0
 11
-1.6124554911
 21
5.9738190751
 31
0.0
  0
LINE
  5
3F4
330
1F
100
AcDbEntity
  8
0
  6
Continuous
 62
     7
370
    25
100
AcDbLine
 10
-1.3766788985
 20
6.0325187329
 30
0.0
 11
-1.3760727664
 21
6.0137785327
 31
0.0
  0
LINE
  5
3F5
330
1F
100
AcDbEntity
  8
0
  6
Continuous
 62
     7
370
    25
100
AcDbLine
 10
-1.2380590784
 20
6.0437007055
 30
0.0
 11
-1.2452685284
 21
6.0610092678
 31
0.0
  0
LINE
  5
3F6
330
1F
100
AcDbEntity
  8
0
  6
Continuous
 62
     7
370
    25
100
AcDbLine
 10
-1.0063519236
 20
6.1052258647
 30
0.0
 11
-1.006889396
 21
6.0864835696
 31
0.0
  0
LINE
  5
3F7
330
1F
100
AcDbEntity
  8
0
  6
Continuous
 62
     7
370
    25
100
AcDbLine
 10
-0.8673082435
 20
6.1079362235
 30
0.0
 11
-0.873449085
 21
6.125652108
 31
0.0
  0
LINE
  5
3F8
330
1F
100
AcDbEntity
  8
0
  6
Continuous
 62
     7
370
    25
100
AcDbLine
 10
-0.6322812535
 20
6.1552211552
 30
0.0
 11
-0.633960331
 21
6.1365464879
 31
0.0
  0
LINE
  5
3F9
330
1F
100
AcDbEntity
  8
0
  6
Continuous
 62
     7
370
    25
100
AcDbLine
 10
-0.493330965
 20
6.1494498175
 30
0.0
 11
-0.4983803536
 21
6.1675071201
 31
0.0
  0
LINE
  5
3FA
330
1F
100
AcDbEntity
  8
0
  6
Continuous
 62
     7
370
    25
100
AcDbLine
 10
-0.2558584556
 20
6.1823186187
 30
0.0
 11
-0.2586728919
 21
6.1637810501
 31
0.0
  0
LINE
  5
3FB
330
1F
100
AcDbEntity
  8
0
  6
Continuous
 62
     7
370
    25
100
AcDbLine
 10
-0.1175184629
 20
6.1680870544
 30
0.0
 11
-0.1214576145
 21
6.1864186005
 31
0.0
  0
LINE
  5
3FC
330
1F
100
AcDbEntity
  8
0
  6
Continuous
 62
     7
370
    25
100
AcDbLine
 10
0.1215161525
 20
6.1864174509
 30
0.0
 11
0.1175768274
 21
6.1680859421
 31
0.0
  0
LINE
  5
3FD
330
1F
100
AcDbEntity
  8
0
  6
Continuous
 62
     7
370
    25
100
AcDbLine
 10
0.2587312156
 20
6.1637786022
 30
0.0
 11
0.2559169548
 21
6.1823161974
 31
0.0
  0
LINE
  5
3FE
330
1F
100
AcDbEntity
  8
0
  6
Continuous
 62
     7
370
    25
100
AcDbLine
 10
0.4984387126
 20
6.1675024039
 30
0.0
 11
0.4933891532
 21
6.1494451492
 31
0.0
  0
LINE
  5
3FF
330
1F
100
AcDbEntity
  8
0
  6
Continuous
 62
     7
370
    25
100
AcDbLine
 10
0.6340183971
 20
6.1365404889
 30
0.0
 11
0.6323394963
 21
6.155215172
 31
0.0
  0
LINE
  5
400
330
1F
100
AcDbEntity
  8
0
  6
Continuous
 62
     7
370
    25
100
AcDbLine
 10
0.873507048
 20
6.1256438429
 30
0.0
 11
0.8673660389
 21
6.1079280164
 31
0.0
  0
LINE
  5
401
330
1F
100
AcDbEntity
  8
0
  6
Continuous
 62
     7
370
    25
100
AcDbLine
 10
1.0069469884
 20
6.0864740418
 30
0.0
 11
1.0064096933
 21
6.1052163419
 31
0.0
  0
LINE
  5
402
330
1F
100
AcDbEntity
  8
0
  6
Continuous
 62
     7
370
    25
100
AcDbLine
 10
1.2453258797
 20
6.0609974844
 30
0.0
 11
1.2381162659
 21
6.0436889903
 31
0.0
  0
LINE
  5
403
330
1F
100
AcDbEntity
  8
0
  6
Continuous
 62
     7
370
    25
100
AcDbLine
 10
1.3761296708
 20
6.0137655116
 30
0.0
 11
1.3767359801
 21
6.0325057061
 31
0.0
  0
LINE
  5
404
330
1F
100
AcDbEntity
  8
0
  6
Continuous
 62
     7
370
    25
100
AcDbLine
 10
1.6125120174
 20
5.9738038172
 30
0.0
 11
1.6042606192
 21
5.9569670441
 31
0.0
  0
LINE
  5
405
330
1F
100
AcDbEntity
  8
0
  6
Continuous
 62
     7
370
    25
100
AcDbLine
 10
1.7401930604
 20
5.9186853787
 30
0.0
 11
1.7419407187
 21
5.9373537527
 31
0.0
  0
LINE
  5
406
330
1F
100
AcDbEntity
  8
0
  6
Continuous
 62
     7
370
    25
100
AcDbLine
 10
1.9736995044
 20
5.8643872074
 30
0.0
 11
1.9644370175
 21
5.8480847893
 31
0.0
  0
LINE
  5
407
330
1F
100
AcDbEntity
  8
0
  6
Continuous
 62
     7
370
    25
100
AcDbLine
 10
2.0977828176
 20
5.8015873474
 30
0.0
 11
2.1006653234
 21
5.8201144535
 31
0.0
  0
LINE
  5
408
330
1F
100
AcDbEntity
  8
0
  6
Continuous
 62
     7
370
    25
100
AcDbLine
 10
2.3275446997
 20
5.7331546921
 30
0.0
 11
2.3173055812
 21
5.717447275
 31
0.0
  0
LINE
  5
409
330
1F
100
AcDbEntity
  8
0
  6
Continuous
 62
     7
370
    25
100
AcDbLine
 10
2.4475686848
 20
5.6629070302
 30
0.0
 11
2.4515753151
 21
5.6812239462
 31
0.0
  0
LINE
  5
40A
330
1F
100
AcDbEntity
  8
0
  6
Continuous
 62
     7
370
    25
100
AcDbLine
 10
2.6727312758
 20
5.5805944647
 30
0.0
 11
2.6615536158
 21
5.5655404813
 31
0.0
  0
LINE
  5
40B
330
1F
100
AcDbEntity
  8
0
  6
Continuous
 62
     7
370
    25
100
AcDbLine
 10
2.7882494359
 20
5.5031603268
 30
0.0
 11
2.7933652857
 21
5.5211989127
 31
0.0
  0
LINE
  5
40C
330
1F
100
AcDbEntity
  8
0
  6
Continuous
 62
     7
370
    25
100
AcDbLine
 10
3.0079751161
 20
5.4072740594
 30
0.0
 11
2.9959004962
 21
5.3929295115
 31
0.0
  0
LINE
  5
40D
330
1F
100
AcDbEntity
  8
0
  6
Continuous
 62
     7
370
    25
100
AcDbLine
 10
3.1185577159
 20
5.3229415056
 30
0.0
 11
3.1247637539
 21
5.3406346566
 31
0.0
  0
LINE
  5
40E
330
1F
100
AcDbEntity
  8
0
  6
Continuous
 62
     7
370
    25
100
AcDbLine
 10
3.3320290913
 20
5.2138382395
 30
0.0
 11
3.31910243
 21
5.2002564897
 31
0.0
  0
LINE
  5
40F
330
1F
100
AcDbEntity
  8
0
  6
Continuous
 62
     7
370
    25
100
AcDbLine
 10
3.4372647563
 20
5.1229209924
 30
0.0
 11
3.4445378957
 21
5.1402028888
 31
0.0
  0
LINE
  5
410
330
1F
100
AcDbEntity
  8
0
  6
Continuous
 62
     7
370
    25
100
AcDbLine
 10
3.6436876994
 20
5.0010065988
 30
0.0
 11
3.6299570848
 21
4.9882381721
 31
0.0
  0
LINE
  5
411
330
1F
100
AcDbEntity
  8
0
  6
Continuous
 62
     7
370
    25
100
AcDbLine
 10
3.7431849461
 20
4.9038428766
 30
0.0
 11
3.7514981302
 21
4.9206492287
 31
0.0
  0
LINE
  5
412
330
1F
100
AcDbEntity
  8
0
  6
Continuous
 62
     7
370
    25
100
AcDbLine
 10
3.9417915501
 20
4.7695708852
 30
0.0
 11
3.9273080607
 21
4.757663281
 31
0.0
  0
LINE
  5
413
330
1F
100
AcDbEntity
  8
0
  6
Continuous
 62
     7
370
    25
100
AcDbLine
 10
4.0351802421
 20
4.6665221432
 30
0.0
 11
4.0445025454
 21
4.6827904302
 31
0.0
  0
LINE
  5
414
330
1F
100
AcDbEntity
  8
0
  6
Continuous
 62
     7
370
    25
100
AcDbLine
 10
4.2252316772
 20
4.5203920545
 30
0.0
 11
4.2100491928
 21
4.5093895699
 31
0.0
  0
LINE
  5
415
330
1F
100
AcDbEntity
  8
0
  6
Continuous
 62
     7
370
    25
100
AcDbLine
 10
4.3121644025
 20
4.411841641
 30
0.0
 11
4.3224611454
 21
4.4275113437
 31
0.0
  0
LINE
  5
416
330
1F
100
AcDbEntity
  8
0
  6
Continuous
 62
     7
370
    25
100
AcDbLine
 10
4.492953665
 20
4.2543970686
 30
0.0
 11
4.4771286653
 21
4.2443406335
 31
0.0
  0
LINE
  5
417
330
1F
100
AcDbEntity
  8
0
  6
Continuous
 62
     7
370
    25
100
AcDbLine
 10
4.5731070281
 20
4.1407487981
 30
0.0
 11
4.5843399061
 21
4.1557616243
 31
0.0
  0
LINE
  5
418
330
1F
100
AcDbEntity
  8
0
  6
Continuous
 62
     7
370
    25
100
AcDbLine
 10
4.74396157
 20
3.9725754461
 30
0.0
 11
4.7275529252
 21
3.9635024712
 31
0.0
  0
LINE
  5
419
330
1F
100
AcDbEntity
  8
0
  6
Continuous
 62
     7
370
    25
100
AcDbLine
 10
4.8170373952
 20
3.8542520976
 30
0.0
 11
4.8291646212
 21
3.8685521987
 31
0.0
  0
LINE
  5
41A
330
1F
100
AcDbEntity
  8
0
  6
Continuous
 62
     7
370
    25
100
AcDbLine
 10
4.9773216265
 20
3.675975582
 30
0.0
 11
4.9603903776
 21
3.6679198193
 31
0.0
  0
LINE
  5
41B
330
1F
100
AcDbEntity
  8
0
  6
Continuous
 62
     7
370
    25
100
AcDbLine
 10
5.0430480668
 20
3.5534173263
 30
0.0
 11
5.0560245268
 21
3.5669515048
 31
0.0
  0
LINE
  5
41C
330
1F
100
AcDbEntity
  8
0
  6
Continuous
 62
     7
370
    25
100
AcDbLine
 10
5.1921657195
 20
3.3657008473
 30
0.0
 11
5.1747748521
 21
3.3586922648
 31
0.0
  0
LINE
  5
41D
330
1F
100
AcDbEntity
  8
0
  6
Continuous
 62
     7
370
    25
100
AcDbLine
 10
5.2502982684
 20
3.2393636091
 30
0.0
 11
5.264075689
 21
3.252081517
 31
0.0
  0
LINE
  5
41E
330
1F
100
AcDbEntity
  8
0
  6
Continuous
 62
     7
370
    25
100
AcDbLine
 10
5.3876946151
 20
3.0429054844
 30
0.0
 11
5.3699088242
 21
3.0369701545
 31
0.0
  0
LINE
  5
41F
330
1F
100
AcDbEntity
  8
0
  6
Continuous
 62
     7
370
    25
100
AcDbLine
 10
5.4380170156
 20
2.9132592465
 30
0.0
 11
5.4525441439
 21
2.9251135724
 31
0.0
  0
LINE
  5
420
330
1F
100
AcDbEntity
  8
0
  6
Continuous
 62
     7
370
    25
100
AcDbLine
 10
5.5631809328
 20
2.7087903133
 30
0.0
 11
5.5450663828
 21
2.7039503157
 31
0.0
  0
LINE
  5
421
330
1F
100
AcDbEntity
  8
0
  6
Continuous
 62
     7
370
    25
100
AcDbLine
 10
5.6055059823
 20
2.5763173681
 30
0.0
 11
5.6207287765
 21
2.5872640132
 31
0.0
  0
LINE
  5
422
330
1F
100
AcDbEntity
  8
0
  6
Continuous
 62
     7
370
    25
100
AcDbLine
 10
5.7179718521
 20
2.3645982643
 30
0.0
 11
5.6995959302
 21
2.3608716042
 31
0.0
  0
LINE
  5
423
330
1F
100
AcDbEntity
  8
0
  6
Continuous
 62
     7
370
    25
100
AcDbLine
 10
5.7521420986
 20
2.22979142
 30
0.0
 11
5.7680039288
 21
2.2397896619
 31
0.0
  0
LINE
  5
424
330
1F
100
AcDbEntity
  8
0
  6
Continuous
 62
     7
370
    25
100
AcDbLine
 10
5.8514915405
 20
2.0116097544
 30
0.0
 11
5.8329226065
 21
2.0090102952
 31
0.0
  0
LINE
  5
425
330
1F
100
AcDbEntity
  8
0
  6
Continuous
 62
     7
370
    25
100
AcDbLine
 10
5.8773798685
 20
1.8749705013
 30
0.0
 11
5.8938217277
 21
1.883983146
 31
0.0
  0
LINE
  5
426
330
1F
100
AcDbEntity
  8
0
  6
Continuous
 62
     7
370
    25
100
AcDbLine
 10
5.9632432961
 20
1.6511379241
 30
0.0
 11
5.9445504275
 21
1.649675336
 31
0.0
  0
LINE
  5
427
330
1F
100
AcDbEntity
  8
0
  6
Continuous
 62
     7
370
    25
100
AcDbLine
 10
5.9807533992
 20
1.5131745692
 30
0.0
 11
5.9977141227
 21
1.521168089
 31
0.0
  0
LINE
  5
428
330
1F
100
AcDbEntity
  8
0
  6
Continuous
 62
     7
370
    25
100
AcDbLine
 10
6.0528113949
 20
1.2845237523
 30
0.0
 11
6.0340641305
 21
1.2842034761
 31
0.0
  0
LINE
  5
429
330
1F
100
AcDbEntity
  8
0
  6
Continuous
 62
     7
370
    25
100
AcDbLine
 10
6.0618781345
 20
1.1457495283
 30
0.0
 11
6.0792946272
 21
1.1526941868
 31
0.0
  0
LINE
  5
42A
330
1F
100
AcDbEntity
  8
0
  6
Continuous
 62
     7
370
    25
100
AcDbLine
 10
6.1198626378
 20
0.9131310678
 30
0.0
 11
6.1011307186
 21
0.913954295
 31
0.0
  0
LINE
  5
42B
330
1F
100
AcDbEntity
  8
0
  6
Continuous
 62
     7
370
    25
100
AcDbLine
 10
6.120452285
 20
0.7740622239
 30
0.0
 11
6.1382597564
 21
0.7799321865
 31
0.0
  0
LINE
  5
42C
330
1F
100
AcDbEntity
  8
0
  6
Continuous
 62
     7
370
    25
100
AcDbLine
 10
6.1641475898
 20
0.5383414757
 30
0.0
 11
6.1455006997
 21
0.5403051439
 31
0.0
  0
LINE
  5
42D
330
1F
100
AcDbEntity
  8
0
  6
Continuous
 62
     7
370
    25
100
AcDbLine
 10
6.156257951
 20
0.3994953572
 30
0.0
 11
6.1743901561
 21
0.4042687873
 31
0.0
  0
LINE
  5
42E
330
1F
100
AcDbEntity
  8
0
  6
Continuous
 62
     7
370
    25
100
AcDbLine
 10
6.1855015078
 20
0.1615492179
 30
0.0
 11
6.1670090146
 21
0.1646460222
 31
0.0
  0
LINE
  5
42F
330
1F
100
AcDbEntity
  8
0
  6
Continuous
 62
     7
370
    25
100
AcDbLine
 10
6.169161933
 20
0.0234423415
 30
0.0
 11
6.187551419
 21
0.0271014816
 31
0.0
  0
LINE
  5
430
330
1F
100
AcDbEntity
  8
0
  6
Continuous
 62
     7
370
    25
100
AcDbLine
 10
6.183844954
 20
-0.2158440135
 30
0.0
 11
6.1655756509
 21
-0.2116255935
 31
0.0
  0
LINE
  5
431
330
1F
100
AcDbEntity
  8
0
  6
Continuous
 62
     7
370
    25
100
AcDbLine
 10
6.1591162275
 20
-0.3526978812
 30
0.0
 11
6.1776945841
 21
-0.3501666433
 31
0.0
  0
LINE
  5
432
330
1F
100
AcDbEntity
  8
0
  6
Continuous
 62
     7
370
    25
100
AcDbLine
 10
6.1591840907
 20
-0.592434291
 30
0.0
 11
6.1412059408
 21
-0.5871099482
 31
0.0
  0
LINE
  5
433
330
1F
100
AcDbEntity
  8
0
  6
Continuous
 62
     7
370
    25
100
AcDbLine
 10
6.1261582051
 20
-0.7275260446
 30
0.0
 11
6.1448563197
 21
-0.7261321254
 31
0.0
  0
LINE
  5
434
330
1F
100
AcDbEntity
  8
0
  6
Continuous
 62
     7
370
    25
100
AcDbLine
 10
6.1116106582
 20
-0.9668206741
 30
0.0
 11
6.0939905413
 21
-0.9604102152
 31
0.0
  0
LINE
  5
435
330
1F
100
AcDbEntity
  8
0
  6
Continuous
 62
     7
370
    25
100
AcDbLine
 10
6.0704104718
 20
-1.0996477634
 30
0.0
 11
6.0891587861
 21
-1.0993963482
 31
0.0
  0
LINE
  5
436
330
1F
100
AcDbEntity
  8
0
  6
Continuous
 62
     7
370
    25
100
AcDbLine
 10
6.0413016325
 20
-1.3376104207
 30
0.0
 11
6.0241050967
 21
-1.3301376932
 31
0.0
  0
LINE
  5
437
330
1F
100
AcDbEntity
  8
0
  6
Continuous
 62
     7
370
    25
100
AcDbLine
 10
5.9920804128
 20
-1.4676787203
 30
0.0
 11
6.0108091819
 21
-1.4685707444
 31
0.0
  0
LINE
  5
438
330
1F
100
AcDbEntity
  8
0
  6
Continuous
 62
     7
370
    25
100
AcDbLine
 10
5.948518568
 20
-1.7034241688
 30
0.0
 11
5.9318095855
 21
-1.6949169716
 31
0.0
  0
LINE
  5
439
330
1F
100
AcDbEntity
  8
0
  6
Continuous
 62
     7
370
    25
100
AcDbLine
 10
5.8914594211
 20
-1.8302498159
 30
0.0
 11
5.9100989728
 21
-1.832281961
 31
0.0
  0
LINE
  5
43A
330
1F
100
AcDbEntity
  8
0
  6
Continuous
 62
     7
370
    25
100
AcDbLine
 10
5.8336066237
 20
-2.062901067
 30
0.0
 11
5.817447353
 21
-2.0533910476
 31
0.0
  0
LINE
  5
43B
330
1F
100
AcDbEntity
  8
0
  6
Continuous
 62
     7
370
    25
100
AcDbLine
 10
5.7689218134
 20
-2.186012262
 30
0.0
 11
5.7874028073
 21
-2.1891769684
 31
0.0
  0
LINE
  5
43C
330
1F
100
AcDbEntity
  8
0
  6
Continuous
 62
     7
370
    25
100
AcDbLine
 10
5.6969932797
 20
-2.4147038378
 30
0.0
 11
5.6814438343
 21
-2.404226374
 31
0.0
  0
LINE
  5
43D
330
1F
100
AcDbEntity
  8
0
  6
Continuous
 62
     7
370
    25
100
AcDbLine
 10
5.6249234377
 20
-2.5336425989
 30
0.0
 11
5.6431771232
 21
-2.5379280936
 31
0.0
  0
LINE
  5
43E
330
1F
100
AcDbEntity
  8
0
  6
Continuous
 62
     7
370
    25
100
AcDbLine
 10
5.5391867464
 20
-2.7575237517
 30
0.0
 11
5.5243049713
 21
-2.7461178203
 31
0.0
  0
LINE
  5
43F
330
1F
100
AcDbEntity
  8
0
  6
Continuous
 62
     7
370
    25
100
AcDbLine
 10
5.4599999774
 20
-2.8718476189
 30
0.0
 11
5.4779584496
 21
-2.8772379597
 31
0.0
  0
LINE
  5
440
330
1F
100
AcDbEntity
  8
0
  6
Continuous
 62
     7
370
    25
100
AcDbLine
 10
5.3607740747
 20
-3.0900854961
 30
0.0
 11
5.346615331
 21
-3.077793528
 31
0.0
  0
LINE
  5
441
330
1F
100
AcDbEntity
  8
0
  6
Continuous
 62
     7
370
    25
100
AcDbLine
 10
5.2747649585
 20
-3.1993691772
 30
0.0
 11
5.2923614108
 21
-3.2058443116
 31
0.0
  0
LINE
  5
442
330
1F
100
AcDbEntity
  8
0
  6
Continuous
 62
     7
370
    25
100
AcDbLine
 10
5.1624189712
 20
-3.4111519195
 30
0.0
 11
5.1490359305
 21
-3.3980196417
 31
0.0
  0
LINE
  5
443
330
1F
100
AcDbEntity
  8
0
  6
Continuous
 62
     7
370
    25
100
AcDbLine
 10
5.0699074675
 20
-3.514988872
 30
0.0
 11
5.08707644
 21
-3.522524712
 31
0.0
  0
LINE
  5
444
330
1F
100
AcDbEntity
  8
0
  6
Continuous
 62
     7
370
    25
100
AcDbLine
 10
4.9448593302
 20
-3.7195286338
 30
0.0
 11
4.9323017782
 21
-3.7056048991
 31
0.0
  0
LINE
  5
445
330
1F
100
AcDbEntity
  8
0
  6
Continuous
 62
     7
370
    25
100
AcDbLine
 10
4.8461895878
 20
-3.8175325773
 30
0.0
 11
4.8628672106
 21
-3.8261010892
 31
0.0
  0
LINE
  5
446
330
1F
100
AcDbEntity
  8
0
  6
Continuous
 62
     7
370
    25
100
AcDbLine
 10
4.7089044876
 20
-4.0140684572
 30
0.0
 11
4.6972191393
 21
-3.9994050628
 31
0.0
  0
LINE
  5
447
330
1F
100
AcDbEntity
  8
0
  6
Continuous
 62
     7
370
    25
100
AcDbLine
 10
4.6044435644
 20
-4.1058748107
 30
0.0
 11
4.6205677958
 21
-4.115444119
 31
0.0
  0
LINE
  5
448
330
1F
100
AcDbEntity
  8
0
  6
Continuous
 62
     7
370
    25
100
AcDbLine
 10
4.4554322111
 20
-4.2936756823
 30
0.0
 11
4.4446625367
 21
-4.2783271771
 31
0.0
  0
LINE
  5
449
330
1F
100
AcDbEntity
  8
0
  6
Continuous
 62
     7
370
    25
100
AcDbLine
 10
4.3455687087
 20
-4.3789429201
 30
0.0
 11
4.3610795654
 21
-4.3894774264
 31
0.0
  0
LINE
  5
44A
330
1F
100
AcDbEntity
  8
0
  6
Continuous
 62
     7
370
    25
100
AcDbLine
 10
4.1853854341
 20
-4.5573101519
 30
0.0
 11
4.1755714975
 21
-4.5413336332
 31
0.0
  0
LINE
  5
44B
330
1F
100
AcDbEntity
  8
0
  6
Continuous
 62
     7
370
    25
100
AcDbLine
 10
4.0705280518
 20
-4.6357210743
 30
0.0
 11
4.0853678325
 21
-4.6471815895
 31
0.0
  0
LINE
  5
44C
330
1F
100
AcDbEntity
  8
0
  6
Continuous
 62
     7
370
    25
100
AcDbLine
 10
3.8997687484
 20
-4.8039911284
 30
0.0
 11
3.8909470581
 21
-4.78744603
 31
0.0
  0
LINE
  5
44D
330
1F
100
AcDbEntity
  8
0
  6
Continuous
 62
     7
370
    25
100
AcDbLine
 10
3.7803447633
 20
-4.8752540415
 30
0.0
 11
3.794458263
 21
-4.8875979318
 31
0.0
  0
LINE
  5
44E
330
1F
100
AcDbEntity
  8
0
  6
Continuous
 62
     7
370
    25
100
AcDbLine
 10
3.5996446669
 20
-5.0328009423
 30
0.0
 11
3.5918480401
 21
-5.0157488131
 31
0.0
  0
LINE
  5
44F
330
1F
100
AcDbEntity
  8
0
  6
Continuous
 62
     7
370
    25
100
AcDbLine
 10
3.476098344
 20
-5.0966507436
 30
0.0
 11
3.4894330595
 21
-5.1098320888
 31
0.0
  0
LINE
  5
450
330
1F
100
AcDbEntity
  8
0
  6
Continuous
 62
     7
370
    25
100
AcDbLine
 10
3.2861296707
 20
-5.2428884062
 30
0.0
 11
3.2793871114
 21
-5.2253926812
 31
0.0
  0
LINE
  5
451
330
1F
100
AcDbEntity
  8
0
  6
Continuous
 62
     7
370
    25
100
AcDbLine
 10
3.1589206105
 20
-5.2990875701
 30
0.0
 11
3.1714269358
 21
-5.3130573348
 31
0.0
  0
LINE
  5
452
330
1F
100
AcDbEntity
  8
0
  6
Continuous
 62
     7
370
    25
100
AcDbLine
 10
2.9603900563
 20
-5.4334719809
 30
0.0
 11
2.9547266474
 21
-5.4155977453
 31
0.0
  0
LINE
  5
453
330
1F
100
AcDbEntity
  8
0
  6
Continuous
 62
     7
370
    25
100
AcDbLine
 10
2.8299914849
 20
-5.4818114428
 30
0.0
 11
2.8416228957
 21
-5.4965176586
 31
0.0
  0
LINE
  5
454
330
1F
100
AcDbEntity
  8
0
  6
Continuous
 62
     7
370
    25
100
AcDbLine
 10
2.6236375965
 20
-5.6038426829
 30
0.0
 11
2.6190744061
 21
-5.5856564301
 31
0.0
  0
LINE
  5
455
330
1F
100
AcDbEntity
  8
0
  6
Continuous
 62
     7
370
    25
100
AcDbLine
 10
2.4905346051
 20
-5.6441426169
 30
0.0
 11
2.5012478317
 21
-5.6595305757
 31
0.0
  0
LINE
  5
456
330
1F
100
AcDbEntity
  8
0
  6
Continuous
 62
     7
370
    25
100
AcDbLine
 10
2.2771250325
 20
-5.7533667221
 30
0.0
 11
2.273679036
 21
-5.7349361061
 31
0.0
  0
LINE
  5
457
330
1F
100
AcDbEntity
  8
0
  6
Continuous
 62
     7
370
    25
100
AcDbLine
 10
2.1418127729
 20
-5.7854772098
 30
0.0
 11
2.1515679615
 21
-5.8014896673
 31
0.0
  0
LINE
  5
458
330
1F
100
AcDbEntity
  8
0
  6
Continuous
 62
     7
370
    25
100
AcDbLine
 10
1.9221414138
 20
-5.8814878592
 30
0.0
 11
1.9198254305
 21
-5.8628814431
 31
0.0
  0
LINE
  5
459
330
1F
100
AcDbEntity
  8
0
  6
Continuous
 62
     7
370
    25
100
AcDbLine
 10
1.7851232566
 20
-5.9052894474
 30
0.0
 11
1.7938841172
 21
-5.9218668363
 31
0.0
  0
LINE
  5
45A
330
1F
100
AcDbEntity
  8
0
  6
Continuous
 62
     7
370
    25
100
AcDbLine
 10
1.5600073029
 20
-5.9877294752
 30
0.0
 11
1.5588299484
 21
-5.969016476
 31
0.0
  0
LINE
  5
45B
330
1F
100
AcDbEntity
  8
0
  6
Continuous
 62
     7
370
    25
100
AcDbLine
 10
1.4217929645
 20
-6.0031336205
 30
0.0
 11
1.4295269062
 21
-6.0202142717
 31
0.0
  0
LINE
  5
45C
330
1F
100
AcDbEntity
  8
0
  6
Continuous
 62
     7
370
    25
100
AcDbLine
 10
1.1920698622
 20
-6.0716963442
 30
0.0
 11
1.1920355165
 21
-6.0529463757
 31
0.0
  0
LINE
  5
45D
330
1F
100
AcDbEntity
  8
0
  6
Continuous
 62
     7
370
    25
100
AcDbLine
 10
1.0531735092
 20
-6.0786457422
 30
0.0
 11
1.0598517611
 21
-6.0961661146
 31
0.0
  0
LINE
  5
45E
330
1F
100
AcDbEntity
  8
0
  6
Continuous
 62
     7
370
    25
100
AcDbLine
 10
0.8196978434
 20
-6.1330761041
 30
0.0
 11
0.8208066341
 21
-6.1143589172
 31
0.0
  0
LINE
  5
45F
330
1F
100
AcDbEntity
  8
0
  6
Continuous
 62
     7
370
    25
100
AcDbLine
 10
0.6806361793
 20
-6.1315449024
 30
0.0
 11
0.6862338979
 21
-6.1494398192
 31
0.0
  0
LINE
  5
460
330
1F
100
AcDbEntity
  8
0
  6
Continuous
 62
     7
370
    25
100
AcDbLine
 10
0.4442764948
 20
-6.171640418
 30
0.0
 11
0.4465242972
 21
-6.153025642
 31
0.0
  0
LINE
  5
461
330
1F
100
AcDbEntity
  8
0
  6
Continuous
 62
     7
370
    25
100
AcDbLine
 10
0.3055668381
 20
-6.161634313
 30
0.0
 11
0.3100631995
 21
-6.1798372038
 31
0.0
  0
LINE
  5
462
330
1F
100
AcDbEntity
  8
0
  6
Continuous
 62
     7
370
    25
100
AcDbLine
 10
0.0672024085
 20
-6.1872458242
 30
0.0
 11
0.0705808605
 21
-6.1688027073
 31
0.0
  0
LINE
  5
463
330
1F
100
AcDbEntity
  8
0
  6
Continuous
 62
     7
370
    25
100
AcDbLine
 10
-0.0706392318
 20
-6.1688020391
 30
0.0
 11
-0.0672609543
 21
-6.187245188
 31
0.0
  0
LINE
  5
464
330
1F
100
AcDbEntity
  8
0
  6
Continuous
 62
     7
370
    25
100
AcDbLine
 10
-0.3101216752
 20
-6.1798342696
 30
0.0
 11
-0.3056251415
 21
-6.1616314213
 31
0.0
  0
LINE
  5
465
330
1F
100
AcDbEntity
  8
0
  6
Continuous
 62
     7
370
    25
100
AcDbLine
 10
-0.4465825192
 20
-6.1530214166
 30
0.0
 11
-0.444334893
 21
-6.1716362138
 31
0.0
  0
LINE
  5
466
330
1F
100
AcDbEntity
  8
0
  6
Continuous
 62
     7
370
    25
100
AcDbLine
 10
-0.686292086
 20
-6.1494333256
 30
0.0
 11
-0.680694198
 21
-6.1315384618
 31
0.0
  0
LINE
  5
467
330
1F
100
AcDbEntity
  8
0
  6
Continuous
 62
     7
370
    25
100
AcDbLine
 10
-0.8208644902
 20
-6.1143511502
 30
0.0
 11
-0.8197558767
 21
-6.1330683475
 31
0.0
  0
LINE
  5
468
330
1F
100
AcDbEntity
  8
0
  6
Continuous
 62
     7
370
    25
100
AcDbLine
 10
-1.0599094451
 20
-6.0961560857
 30
0.0
 11
-1.0532310274
 21
-6.0786357764
 31
0.0
  0
LINE
  5
469
330
1F
100
AcDbEntity
  8
0
  6
Continuous
 62
     7
370
    25
100
AcDbLine
 10
-1.1920927915
 20
-6.0529350959
 30
0.0
 11
-1.1921273147
 21
-6.0716850642
 31
0.0
  0
LINE
  5
46A
330
1F
100
AcDbEntity
  8
0
  6
Continuous
 62
     7
370
    25
100
AcDbLine
 10
-1.4295838714
 20
-6.0202007448
 30
0.0
 11
-1.4218497681
 21
-6.0031201667
 31
0.0
  0
LINE
  5
46B
330
1F
100
AcDbEntity
  8
0
  6
Continuous
 62
     7
370
    25
100
AcDbLine
 10
-1.5588864292
 20
-5.9690017256
 30
0.0
 11
-1.5600639607
 21
-5.9877147136
 31
0.0
  0
LINE
  5
46C
330
1F
100
AcDbEntity
  8
0
  6
Continuous
 62
     7
370
    25
100
AcDbLine
 10
-1.7939401519
 20
-5.9218498617
 30
0.0
 11
-1.7851791344
 21
-5.9052725557
 31
0.0
  0
LINE
  5
46D
330
1F
100
AcDbEntity
  8
0
  6
Continuous
 62
     7
370
    25
100
AcDbLine
 10
-1.919880907
 20
-5.8628632768
 30
0.0
 11
-1.9221970664
 21
-5.881469671
 31
0.0
  0
LINE
  5
46E
330
1F
100
AcDbEntity
  8
0
  6
Continuous
 62
     7
370
    25
100
AcDbLine
 10
-2.1516228571
 20
-5.8014693082
 30
0.0
 11
-2.141867517
 21
-5.785456943
 31
0.0
  0
LINE
  5
46F
330
1F
100
AcDbEntity
  8
0
  6
Continuous
 62
     7
370
    25
100
AcDbLine
 10
-2.2737333018
 20
-5.7349145915
 30
0.0
 11
-2.2771794727
 21
-5.7533451749
 31
0.0
  0
LINE
  5
470
330
1F
100
AcDbEntity
  8
0
  6
Continuous
 62
     7
370
    25
100
AcDbLine
 10
-2.501301384
 20
-5.6595069078
 30
0.0
 11
-2.4905880118
 21
-5.6441190504
 31
0.0
  0
LINE
  5
471
330
1F
100
AcDbEntity
  8
0
  6
Continuous
 62
     7
370
    25
100
AcDbLine
 10
-2.6191272593
 20
-5.5856316472
 30
0.0
 11
-2.6236906219
 21
-5.6038178569
 31
0.0
  0
LINE
  5
472
330
1F
100
AcDbEntity
  8
0
  6
Continuous
 62
     7
370
    25
100
AcDbLine
 10
-2.8416749055
 20
-5.49649077
 30
0.0
 11
-2.8300433555
 21
-5.4817846642
 31
0.0
  0
LINE
  5
473
330
1F
100
AcDbEntity
  8
0
  6
Continuous
 62
     7
370
    25
100
AcDbLine
 10
-2.9547778915
 20
-5.4155697864
 30
0.0
 11
-2.9604414696
 21
-5.4334439684
 31
0.0
  0
LINE
  5
474
330
1F
100
AcDbEntity
  8
0
  6
Continuous
 62
     7
370
    25
100
AcDbLine
 10
-3.1714772097
 20
-5.3130273255
 30
0.0
 11
-3.1589707522
 21
-5.2990576791
 31
0.0
  0
LINE
  5
475
330
1F
100
AcDbEntity
  8
0
  6
Continuous
 62
     7
370
    25
100
AcDbLine
 10
-3.2794365557
 20
-5.2253616503
 30
0.0
 11
-3.2861792806
 21
-5.2428573115
 31
0.0
  0
LINE
  5
476
330
1F
100
AcDbEntity
  8
0
  6
Continuous
 62
     7
370
    25
100
AcDbLine
 10
-3.4894814103
 20
-5.1097990704
 30
0.0
 11
-3.4761465701
 21
-5.0966178513
 31
0.0
  0
LINE
  5
477
330
1F
100
AcDbEntity
  8
0
  6
Continuous
 62
     7
370
    25
100
AcDbLine
 10
-3.5918955006
 20
-5.0157148256
 30
0.0
 11
-3.5996922888
 21
-5.032766881
 31
0.0
  0
LINE
  5
478
330
1F
100
AcDbEntity
  8
0
  6
Continuous
 62
     7
370
    25
100
AcDbLine
 10
-3.7945045109
 20
-4.8875620271
 30
0.0
 11
-3.7803908945
 21
-4.8752182704
 31
0.0
  0
LINE
  5
479
330
1F
100
AcDbEntity
  8
0
  6
Continuous
 62
     7
370
    25
100
AcDbLine
 10
-3.8909923584
 20
-4.7874092123
 30
0.0
 11
-3.8998142053
 21
-4.8039542272
 31
0.0
  0
LINE
  5
47A
330
1F
100
AcDbEntity
  8
0
  6
Continuous
 62
     7
370
    25
100
AcDbLine
 10
-4.0854118056
 20
-4.6471429321
 30
0.0
 11
-4.0705719164
 21
-4.6356825573
 31
0.0
  0
LINE
  5
47B
330
1F
100
AcDbEntity
  8
0
  6
Continuous
 62
     7
370
    25
100
AcDbLine
 10
-4.175614469
 20
-4.5412941224
 30
0.0
 11
-4.1854285568
 21
-4.5572705481
 31
0.0
  0
LINE
  5
47C
330
1F
100
AcDbEntity
  8
0
  6
Continuous
 62
     7
370
    25
100
AcDbLine
 10
-4.3611210999
 20
-4.3894361602
 30
0.0
 11
-4.3456101435
 21
-4.3789018007
 31
0.0
  0
LINE
  5
47D
330
1F
100
AcDbEntity
  8
0
  6
Continuous
 62
     7
370
    25
100
AcDbLine
 10
-4.4447030195
 20
-4.27828512
 30
0.0
 11
-4.4554728391
 21
-4.2936335233
 31
0.0
  0
LINE
  5
47E
330
1F
100
AcDbEntity
  8
0
  6
Continuous
 62
     7
370
    25
100
AcDbLine
 10
-4.6206067374
 20
-4.1154003975
 30
0.0
 11
-4.6044824154
 21
-4.1058312417
 31
0.0
  0
LINE
  5
47F
330
1F
100
AcDbEntity
  8
0
  6
Continuous
 62
     7
370
    25
100
AcDbLine
 10
-4.6972569828
 20
-3.999360616
 30
0.0
 11
-4.7089424699
 21
-4.0140238998
 31
0.0
  0
LINE
  5
480
330
1F
100
AcDbEntity
  8
0
  6
Continuous
 62
     7
370
    25
100
AcDbLine
 10
-4.8629034143
 20
-3.8260550749
 30
0.0
 11
-4.8462257103
 21
-3.8174867208
 31
0.0
  0
LINE
  5
481
330
1F
100
AcDbEntity
  8
0
  6
Continuous
 62
     7
370
    25
100
AcDbLine
 10
-4.9323368417
 20
-3.7055582278
 30
0.0
 11
-4.9448945254
 21
-3.7194818437
 31
0.0
  0
LINE
  5
482
330
1F
100
AcDbEntity
  8
0
  6
Continuous
 62
     7
370
    25
100
AcDbLine
 10
-5.087109771
 20
-3.5224765762
 30
0.0
 11
-5.0699407273
 21
-3.5149408986
 31
0.0
  0
ARC
  5
483
330
1F
100
AcDbEntity
  8
0
  6
Continuous
 62
     7
370
    25
100
AcDbCircle
 10
-5.162466547
 20
-3.3507861388
 30
0.0
 40
0.1875000000000112
100
AcDbArc
 50
266.9469903292
 51
293.6971860334
  0
ARC
  5
484
330
1F
100
AcDbEntity
  8
0
  6
Continuous
 62
     7
370
    25
100
AcDbCircle
 10
0.0
 20
0.0
 30
0.0
 40
6.266725884210114
100
AcDbArc
 50
213.7821994245
 51
214.3725982292
  0
ARC
  5
485
330
1F
100
AcDbEntity
  8
0
  6
Continuous
 62
     7
370
    25
100
AcDbCircle
 10
-5.0311297364
 20
-3.5449347205
 30
0.0
 40
0.1875000000000408
100
AcDbArc
 50
134.4576116203
 51
161.2078073245
  0
ARC
  5
486
330
1F
100
AcDbEntity
  8
0
  6
Continuous
 62
     7
370
    25
100
AcDbCircle
 10
-5.324163433
 20
-3.21952872
 30
0.0
 40
0.2499999999999696
100
AcDbArc
 50
314.4576116203
 51
332.3298260113
  0
ARC
  5
487
330
1F
100
AcDbEntity
  8
0
  6
Continuous
 62
     7
370
    25
100
AcDbCircle
 10
-5.1944178345
 20
-3.2875605483
 30
0.0
 40
0.1035
100
AcDbArc
 50
332.3298260113
 51
92.3298260113
  0
ARC
  5
488
330
1F
100
AcDbEntity
  8
0
  6
Continuous
 62
     7
370
    25
100
AcDbCircle
 10
-5.1884623267
 20
-3.4339394468
 30
0.0
 40
0.2499999999999584
100
AcDbArc
 50
92.3298260113
 51
110.2020404023
  0
ARC
  5
489
330
1F
100
AcDbEntity
  8
0
  6
Continuous
 62
     7
370
    25
100
AcDbCircle
 10
-5.3571414242
 20
-3.0298290973
 30
0.0
 40
0.187500000000023
100
AcDbArc
 50
263.4518446981
 51
290.2020404023
  0
ARC
  5
48A
330
1F
100
AcDbEntity
  8
0
  6
Continuous
 62
     7
370
    25
100
AcDbCircle
 10
-0.0000000001
 20
-0.0000000001
 30
0.0
 40
6.266725884130907
100
AcDbArc
 50
210.2870537934
 51
210.8774525981
  0
ARC
  5
48B
330
1F
100
AcDbEntity
  8
0
  6
Continuous
 62
     7
370
    25
100
AcDbCircle
 10
-5.2378849731
 20
-3.23162337
 30
0.0
 40
0.187500000000052
100
AcDbArc
 50
130.9624659892
 51
157.7126616934
  0
ARC
  5
48C
330
1F
100
AcDbEntity
  8
0
  6
Continuous
 62
     7
370
    25
100
AcDbCircle
 10
-5.5105355749
 20
-2.8889581371
 30
0.0
 40
0.2499999999999925
100
AcDbArc
 50
310.9624659892
 51
328.8346803802
  0
ARC
  5
48D
330
1F
100
AcDbEntity
  8
0
  6
Continuous
 62
     7
370
    25
100
AcDbCircle
 10
-5.385178798
 20
-2.964773231
 30
0.0
 40
0.1035000000000011
100
AcDbArc
 50
328.8346803802
 51
88.8346803802
  0
ARC
  5
48E
330
1F
100
AcDbEntity
  8
0
  6
Continuous
 62
     7
370
    25
100
AcDbCircle
 10
-5.3881582068
 20
-3.1112429314
 30
0.0
 40
0.2499999999999829
100
AcDbArc
 50
88.8346803802
 51
106.7068947713
  0
ARC
  5
48F
330
1F
100
AcDbEntity
  8
0
  6
Continuous
 62
     7
370
    25
100
AcDbCircle
 10
-5.5318873833
 20
-2.6976008925
 30
0.0
 40
0.1875000000000407
100
AcDbArc
 50
259.956699067
 51
286.7068947713
  0
ARC
  5
490
330
1F
100
AcDbEntity
  8
0
  6
Continuous
 62
     7
370
    25
100
AcDbCircle
 10
-0.0000000001
 20
-0.0000000001
 30
0.0
 40
6.266725884101881
100
AcDbArc
 50
206.7919081623
 51
207.3823069671
  0
ARC
  5
491
330
1F
100
AcDbEntity
  8
0
  6
Continuous
 62
     7
370
    25
100
AcDbCircle
 10
-5.4251549337
 20
-2.9062901683
 30
0.0
 40
0.1875000000000441
100
AcDbArc
 50
127.4673203581
 51
154.2175160623
  0
ARC
  5
492
330
1F
100
AcDbEntity
  8
0
  6
Continuous
 62
     7
370
    25
100
AcDbCircle
 10
-5.6764081626
 20
-2.5476404401
 30
0.0
 40
0.2499999999999883
100
AcDbArc
 50
307.4673203581
 51
325.3395347492
  0
ARC
  5
493
330
1F
100
AcDbEntity
  8
0
  6
Continuous
 62
     7
370
    25
100
AcDbCircle
 10
-5.5559065426
 20
-2.6309567627
 30
0.0
 40
0.1035000000000005
100
AcDbArc
 50
325.3395347492
 51
85.3395347492
  0
ARC
  5
494
330
1F
100
AcDbEntity
  8
0
  6
Continuous
 62
     7
370
    25
100
AcDbCircle
 10
-5.5678097845
 20
-2.776972388
 30
0.0
 40
0.2499999999999546
100
AcDbArc
 50
85.3395347492
 51
103.2117491402
  0
ARC
  5
495
330
1F
100
AcDbEntity
  8
0
  6
Continuous
 62
     7
370
    25
100
AcDbCircle
 10
-5.6860543581
 20
-2.3553374353
 30
0.0
 40
0.1875000000000357
100
AcDbArc
 50
256.461553436
 51
283.2117491402
  0
ARC
  5
496
330
1F
100
AcDbEntity
  8
0
  6
Continuous
 62
     7
370
    25
100
AcDbCircle
 10
-0.0000000001
 20
0.0
 30
0.0
 40
6.266725884147921
100
AcDbArc
 50
203.2967625313
 51
203.887161336
  0
ARC
  5
497
330
1F
100
AcDbEntity
  8
0
  6
Continuous
 62
     7
370
    25
100
AcDbCircle
 10
-5.5922429616
 20
-2.5701453763
 30
0.0
 40
0.1875000000000576
100
AcDbArc
 50
123.9721747271
 51
150.7223704313
  0
ARC
  5
498
330
1F
100
AcDbEntity
  8
0
  6
Continuous
 62
     7
370
    25
100
AcDbCircle
 10
-5.821164139
 20
-2.1968453534
 30
0.0
 40
0.2500000000000683
100
AcDbArc
 50
303.9721747271
 51
321.8443891181
  0
ARC
  5
499
330
1F
100
AcDbEntity
  8
0
  6
Continuous
 62
     7
370
    25
100
AcDbCircle
 10
-5.7059659501
 20
-2.2873529623
 30
0.0
 40
0.1035000000000015
100
AcDbArc
 50
321.8443891181
 51
81.8443891181
  0
ARC
  5
49A
330
1F
100
AcDbEntity
  8
0
  6
Continuous
 62
     7
370
    25
100
AcDbCircle
 10
-5.7267487441
 20
-2.4323713248
 30
0.0
 40
0.2500000000000002
100
AcDbArc
 50
81.8443891181
 51
99.7166035091
  0
ARC
  5
49B
330
1F
100
AcDbEntity
  8
0
  6
Continuous
 62
     7
370
    25
100
AcDbCircle
 10
-5.8190688372
 20
-2.0043119681
 30
0.0
 40
0.1875000000000146
100
AcDbArc
 50
252.9664078049
 51
279.7166035091
  0
ARC
  5
49C
330
1F
100
AcDbEntity
  8
0
  6
Continuous
 62
     7
370
    25
100
AcDbCircle
 10
0.0
 20
0.0
 30
0.0
 40
6.266725884225206
100
AcDbArc
 50
199.8016169002
 51
200.3920157049
  0
ARC
  5
49D
330
1F
100
AcDbEntity
  8
0
  6
Continuous
 62
     7
370
    25
100
AcDbCircle
 10
-5.7385274784
 20
-2.2244394746
 30
0.0
 40
0.1875000000000321
100
AcDbArc
 50
120.477029096
 51
147.2272248002
  0
ARC
  5
49E
330
1F
100
AcDbEntity
  8
0
  6
Continuous
 62
     7
370
    25
100
AcDbCircle
 10
-5.9442650025
 20
-1.8378778577
 30
0.0
 40
0.2499999999999805
100
AcDbArc
 50
300.477029096
 51
318.349243487
  0
ARC
  5
49F
330
1F
100
AcDbEntity
  8
0
  6
Continuous
 62
     7
370
    25
100
AcDbCircle
 10
-5.8347987894
 20
-1.9352400587
 30
0.0
 40
0.1035000000000012
100
AcDbArc
 50
318.349243487
 51
78.349243487
  0
ARC
  5
4A0
330
1F
100
AcDbEntity
  8
0
  6
Continuous
 62
     7
370
    25
100
AcDbCircle
 10
-5.8643838222
 20
-2.0787216806
 30
0.0
 40
0.2499999999999891
100
AcDbArc
 50
78.349243487
 51
96.2214578781
  0
ARC
  5
4A1
330
1F
100
AcDbEntity
  8
0
  6
Continuous
 62
     7
370
    25
100
AcDbCircle
 10
-5.930435998
 20
-1.6458303287
 30
0.0
 40
0.1875000000000261
100
AcDbArc
 50
249.4712621738
 51
276.2214578781
  0
ARC
  5
4A2
330
1F
100
AcDbEntity
  8
0
  6
Continuous
 62
     7
370
    25
100
AcDbCircle
 10
-0.0000000001
 20
0.0
 30
0.0
 40
6.266725884168638
100
AcDbArc
 50
196.3064712691
 51
196.8968700739
  0
ARC
  5
4A3
330
1F
100
AcDbEntity
  8
0
  6
Continuous
 62
     7
370
    25
100
AcDbCircle
 10
-5.8634642961
 20
-1.8704585121
 30
0.0
 40
0.1875000000000271
100
AcDbArc
 50
116.9818834649
 51
143.7320791691
  0
ARC
  5
4A4
330
1F
100
AcDbEntity
  8
0
  6
Continuous
 62
     7
370
    25
100
AcDbCircle
 10
-6.0452528098
 20
-1.4720733357
 30
0.0
 40
0.2500000000000007
100
AcDbArc
 50
296.9818834649
 51
314.854097856
  0
ARC
  5
4A5
330
1F
100
AcDbEntity
  8
0
  6
Continuous
 62
     7
370
    25
100
AcDbCircle
 10
-5.941925794
 20
-1.575927935
 30
0.0
 40
0.1035000000000009
100
AcDbArc
 50
314.854097856
 51
74.854097856
  0
ARC
  5
4A6
330
1F
100
AcDbEntity
  8
0
  6
Continuous
 62
     7
370
    25
100
AcDbCircle
 10
-5.9802030074
 20
-1.7173390553
 30
0.0
 40
0.2499999999999907
100
AcDbArc
 50
74.854097856
 51
92.726312247
  0
ARC
  5
4A7
330
1F
100
AcDbEntity
  8
0
  6
Continuous
 62
     7
370
    25
100
AcDbCircle
 10
-6.0197415474
 20
-1.2812260924
 30
0.0
 40
0.187500000000027
100
AcDbArc
 50
245.9761165428
 51
272.726312247
  0
ARC
  5
4A8
330
1F
100
AcDbEntity
  8
0
  6
Continuous
 62
     7
370
    25
100
AcDbCircle
 10
0.0
 20
0.0
 30
0.0
 40
6.26672588422214
100
AcDbArc
 50
192.8113256381
 51
193.4017244428
  0
ARC
  5
4A9
330
1F
100
AcDbEntity
  8
0
  6
Continuous
 62
     7
370
    25
100
AcDbCircle
 10
-5.9665886415
 20
-1.509519321
 30
0.0
 40
0.1875000000000528
100
AcDbArc
 50
113.4867378339
 51
140.2369335381
  0
ARC
  5
4AA
330
1F
100
AcDbEntity
  8
0
  6
Continuous
 62
     7
370
    25
100
AcDbCircle
 10
-6.1237518796
 20
-1.1007926041
 30
0.0
 40
0.2500000000000204
100
AcDbArc
 50
293.4867378339
 51
311.3589522249
  0
ARC
  5
4AB
330
1F
100
AcDbEntity
  8
0
  6
Continuous
 62
     7
370
    25
100
AcDbCircle
 10
-6.0269484444
 20
-1.2107532558
 30
0.0
 40
0.1035000000000005
100
AcDbArc
 50
311.3589522249
 51
71.3589522249
  0
ARC
  5
4AC
330
1F
100
AcDbEntity
  8
0
  6
Continuous
 62
     7
370
    25
100
AcDbCircle
 10
-6.0737754445
 20
-1.3495678158
 30
0.0
 40
0.2499999999999726
100
AcDbArc
 50
71.3589522249
 51
89.2311666159
  0
ARC
  5
4AD
330
1F
100
AcDbEntity
  8
0
  6
Continuous
 62
     7
370
    25
100
AcDbCircle
 10
-6.0866532628
 20
-0.9118556109
 30
0.0
 40
0.1875000000000161
100
AcDbArc
 50
242.4809709117
 51
269.2311666159
  0
ARC
  5
4AE
330
1F
100
AcDbEntity
  8
0
  6
Continuous
 62
     7
370
    25
100
AcDbCircle
 10
0.0000000001
 20
0.0
 30
0.0
 40
6.26672588429731
100
AcDbArc
 50
189.316180007
 51
189.9065788117
  0
ARC
  5
4AF
330
1F
100
AcDbEntity
  8
0
  6
Continuous
 62
     7
370
    25
100
AcDbCircle
 10
-6.0475168852
 20
-1.1429646189
 30
0.0
 40
0.1875000000000633
100
AcDbArc
 50
109.9915922028
 51
136.741787907
  0
ARC
  5
4B0
330
1F
100
AcDbEntity
  8
0
  6
Continuous
 62
     7
370
    25
100
AcDbCircle
 10
-6.1794701902
 20
-0.7254168518
 30
0.0
 40
0.2500000000000132
100
AcDbArc
 50
289.9915922028
 51
307.8638065938
  0
ARC
  5
4B1
330
1F
100
AcDbEntity
  8
0
  6
Continuous
 62
     7
370
    25
100
AcDbCircle
 10
-6.0895504507
 20
-0.8410744951
 30
0.0
 40
0.1035000000000004
100
AcDbArc
 50
307.8638065938
 51
67.8638065938
  0
ARC
  5
4B2
330
1F
100
AcDbEntity
  8
0
  6
Continuous
 62
     7
370
    25
100
AcDbCircle
 10
-6.1447530381
 20
-0.9767760954
 30
0.0
 40
0.249999999999972
100
AcDbArc
 50
67.8638065938
 51
85.7360209849
  0
ARC
  5
4B3
330
1F
100
AcDbEntity
  8
0
  6
Continuous
 62
     7
370
    25
100
AcDbCircle
 10
-6.1309222284
 20
-0.5390929667
 30
0.0
 40
0.1875000000000282
100
AcDbArc
 50
238.9858252806
 51
265.7360209849
  0
ARC
  5
4B4
330
1F
100
AcDbEntity
  8
0
  6
Continuous
 62
     7
370
    25
100
AcDbCircle
 10
-0.0000000001
 20
0.0
 30
0.0
 40
6.26672588415326
100
AcDbArc
 50
185.8210343759
 51
186.4114331807
  0
ARC
  5
4B5
330
1F
100
AcDbEntity
  8
0
  6
Continuous
 62
     7
370
    25
100
AcDbCircle
 10
-6.1059479689
 20
-0.7721580133
 30
0.0
 40
0.1875000000000494
100
AcDbArc
 50
106.4964465717
 51
133.2466422759
  0
ARC
  5
4B6
330
1F
100
AcDbEntity
  8
0
  6
Continuous
 62
     7
370
    25
100
AcDbCircle
 10
-6.2122004658
 20
-0.3473425011
 30
0.0
 40
0.250000000000045
100
AcDbArc
 50
286.4964465717
 51
304.3686609628
  0
ARC
  5
4B7
330
1F
100
AcDbEntity
  8
0
  6
Continuous
 62
     7
370
    25
100
AcDbCircle
 10
-6.1294989293
 20
-0.4682668819
 30
0.0
 40
0.103500000000001
100
AcDbArc
 50
304.3686609628
 51
64.3686609628
  0
ARC
  5
4B8
330
1F
100
AcDbEntity
  8
0
  6
Continuous
 62
     7
370
    25
100
AcDbCircle
 10
-6.1928717468
 20
-0.6003507038
 30
0.0
 40
0.2499999999999772
100
AcDbArc
 50
64.3686609628
 51
82.2408753538
  0
ARC
  5
4B9
330
1F
100
AcDbEntity
  8
0
  6
Continuous
 62
     7
370
    25
100
AcDbCircle
 10
-6.1523837605
 20
-0.1643248611
 30
0.0
 40
0.1875000000000224
100
AcDbArc
 50
235.4906796496
 51
262.2408753538
  0
ARC
  5
4BA
330
1F
100
AcDbEntity
  8
0
  6
Continuous
 62
     7
370
    25
100
AcDbCircle
 10
-0.0000000001
 20
0.0
 30
0.0
 40
6.266725884098294
100
AcDbArc
 50
182.3258887448
 51
182.9162875496
  0
ARC
  5
4BB
330
1F
100
AcDbEntity
  8
0
  6
Continuous
 62
     7
370
    25
100
AcDbCircle
 10
-6.1416645252
 20
-0.3984789293
 30
0.0
 40
0.1875000000000571
100
AcDbArc
 50
103.0013009407
 51
129.7514966449
  0
ARC
  5
4BC
330
1F
100
AcDbEntity
  8
0
  6
Continuous
 62
     7
370
    25
100
AcDbCircle
 10
-6.2218209476
 20
0.0320239865
 30
0.0
 40
0.2500000000000051
100
AcDbArc
 50
283.0013009407
 51
300.8735153317
  0
ARC
  5
4BD
330
1F
100
AcDbEntity
  8
0
  6
Continuous
 62
     7
370
    25
100
AcDbCircle
 10
-6.1466452694
 20
-0.0937172852
 30
0.0
 40
0.1034999999999998
100
AcDbArc
 50
300.8735153317
 51
60.8735153317
  0
ARC
  5
4BE
330
1F
100
AcDbEntity
  8
0
  6
Continuous
 62
     7
370
    25
100
AcDbCircle
 10
-6.2179525659
 20
-0.2216919681
 30
0.0
 40
0.2499999999999727
100
AcDbArc
 50
60.8735153317
 51
78.7457297227
  0
ARC
  5
4BF
330
1F
100
AcDbEntity
  8
0
  6
Continuous
 62
     7
370
    25
100
AcDbCircle
 10
-6.150958021
 20
0.2110545436
 30
0.0
 40
0.1875000000000216
100
AcDbArc
 50
231.9955340185
 51
258.7457297227
  0
ARC
  5
4C0
330
1F
100
AcDbEntity
  8
0
  6
Continuous
 62
     7
370
    25
100
AcDbCircle
 10
0.0000000001
 20
0.0
 30
0.0
 40
6.26672588431831
100
AcDbArc
 50
178.8307431138
 51
179.4211419185
  0
ARC
  5
4C1
330
1F
100
AcDbEntity
  8
0
  6
Continuous
 62
     7
370
    25
100
AcDbCircle
 10
-6.154533686
 20
-0.0233174774
 30
0.0
 40
0.1875000000000515
100
AcDbArc
 50
99.5061553096
 51
126.2563510138
  0
ARC
  5
4C2
330
1F
100
AcDbEntity
  8
0
  6
Continuous
 62
     7
370
    25
100
AcDbCircle
 10
-6.2082958469
 20
0.4112713427
 30
0.0
 40
0.2500000000000093
100
AcDbArc
 50
279.5061553096
 51
297.3783697006
  0
ARC
  5
4C3
330
1F
100
AcDbEntity
  8
0
  6
Continuous
 62
     7
370
    25
100
AcDbCircle
 10
-6.1409256854
 20
0.2811809459
 30
0.0
 40
0.1035
100
AcDbArc
 50
297.3783697006
 51
57.3783697006
  0
ARC
  5
4C4
330
1F
100
AcDbEntity
  8
0
  6
Continuous
 62
     7
370
    25
100
AcDbCircle
 10
-6.219902193
 20
0.1577914762
 30
0.0
 40
0.2499999999999757
100
AcDbArc
 50
57.3783697006
 51
75.2505840916
  0
ARC
  5
4C5
330
1F
100
AcDbEntity
  8
0
  6
Continuous
 62
     7
370
    25
100
AcDbCircle
 10
-6.1266503137
 20
0.5856488117
 30
0.0
 40
0.1875000000000085
100
AcDbArc
 50
228.5003883874
 51
255.2505840916
  0
ARC
  5
4C6
330
1F
100
AcDbEntity
  8
0
  6
Continuous
 62
     7
370
    25
100
AcDbCircle
 10
-0.0000000001
 20
0.0
 30
0.0
 40
6.266725884167924
100
AcDbArc
 50
175.3355974827
 51
175.9259962875
  0
ARC
  5
4C7
330
1F
100
AcDbEntity
  8
0
  6
Continuous
 62
     7
370
    25
100
AcDbCircle
 10
-6.1445075773
 20
0.351930717
 30
0.0
 40
0.1875000000000563
100
AcDbArc
 50
96.0110096785
 51
122.7612053827
  0
ARC
  5
4C8
330
1F
100
AcDbEntity
  8
0
  6
Continuous
 62
     7
370
    25
100
AcDbCircle
 10
-6.1716754779
 20
0.7889887426
 30
0.0
 40
0.2500000000000199
100
AcDbArc
 50
276.0110096785
 51
293.8832240696
  0
ARC
  5
4C9
330
1F
100
AcDbEntity
  8
0
  6
Continuous
 62
     7
370
    25
100
AcDbCircle
 10
-6.1123614544
 20
0.6550331655
 30
0.0
 40
0.103500000000001
100
AcDbArc
 50
293.8832240696
 51
53.8832240695
  0
ARC
  5
4CA
330
1F
100
AcDbEntity
  8
0
  6
Continuous
 62
     7
370
    25
100
AcDbCircle
 10
-6.1987133754
 20
0.5366879259
 30
0.0
 40
0.2499999999999778
100
AcDbArc
 50
53.8832240695
 51
71.7554384606
  0
ARC
  5
4CB
330
1F
100
AcDbEntity
  8
0
  6
Continuous
 62
     7
370
    25
100
AcDbCircle
 10
-6.0795510648
 20
0.9580644276
 30
0.0
 40
0.187500000000022
100
AcDbArc
 50
225.0052427564
 51
251.7554384606
  0
ARC
  5
4CC
330
1F
100
AcDbEntity
  8
0
  6
Continuous
 62
     7
370
    25
100
AcDbCircle
 10
0.0
 20
0.0
 30
0.0
 40
6.266725884217183
100
AcDbArc
 50
171.8404518516
 51
172.4308506564
  0
ARC
  5
4CD
330
1F
100
AcDbEntity
  8
0
  6
Continuous
 62
     7
370
    25
100
AcDbCircle
 10
-6.1116234968
 20
0.7258697061
 30
0.0
 40
0.1875000000000398
100
AcDbArc
 50
92.5158640475
 51
119.2660597517
  0
ARC
  5
4CE
330
1F
100
AcDbEntity
  8
0
  6
Continuous
 62
     7
370
    25
100
AcDbCircle
 10
-6.1120960707
 20
1.1637710525
 30
0.0
 40
0.2500000000000245
100
AcDbArc
 50
272.5158640475
 51
290.3880784385
  0
ARC
  5
4CF
330
1F
100
AcDbEntity
  8
0
  6
Continuous
 62
     7
370
    25
100
AcDbCircle
 10
-6.0610588374
 20
1.0264486187
 30
0.0
 40
0.1035000000000002
100
AcDbArc
 50
290.3880784385
 51
50.3880784385
  0
ARC
  5
4D0
330
1F
100
AcDbEntity
  8
0
  6
Continuous
 62
     7
370
    25
100
AcDbCircle
 10
-6.1544649369
 20
0.9135878612
 30
0.0
 40
0.249999999999993
100
AcDbArc
 50
50.3880784385
 51
68.2602928295
  0
ARC
  5
4D1
330
1F
100
AcDbEntity
  8
0
  6
Continuous
 62
     7
370
    25
100
AcDbCircle
 10
-6.0098354866
 20
1.326915981
 30
0.0
 40
0.1875000000000175
100
AcDbArc
 50
221.5100971253
 51
248.2602928295
  0
ARC
  5
4D2
330
1F
100
AcDbEntity
  8
0
  6
Continuous
 62
     7
370
    25
100
AcDbCircle
 10
0.0
 20
0.0
 30
0.0
 40
6.266725884221849
100
AcDbArc
 50
168.3453062206
 51
168.9357050253
  0
ARC
  5
4D3
330
1F
100
AcDbEntity
  8
0
  6
Continuous
 62
     7
370
    25
100
AcDbCircle
 10
-6.0560037755
 20
1.0971084121
 30
0.0
 40
0.1875000000000496
100
AcDbArc
 50
89.0207184164
 51
115.7709141206
  0
ARC
  5
4D4
330
1F
100
AcDbEntity
  8
0
  6
Continuous
 62
     7
370
    25
100
AcDbCircle
 10
-6.0297792647
 20
1.5342240576
 30
0.0
 40
0.2499999999999983
100
AcDbArc
 50
269.0207184164
 51
286.8929328074
  0
ARC
  5
4D5
330
1F
100
AcDbEntity
  8
0
  6
Continuous
 62
     7
370
    25
100
AcDbCircle
 10
-5.9872086834
 20
1.3940456156
 30
0.0
 40
0.1035000000000016
100
AcDbArc
 50
286.8929328074
 51
46.8929328074
  0
ARC
  5
4D6
330
1F
100
AcDbEntity
  8
0
  6
Continuous
 62
     7
370
    25
100
AcDbCircle
 10
-6.0873214847
 20
1.2870891897
 30
0.0
 40
0.2500000000000005
100
AcDbArc
 50
46.8929328074
 51
64.7651471984
  0
ARC
  5
4D7
330
1F
100
AcDbEntity
  8
0
  6
Continuous
 62
     7
370
    25
100
AcDbCircle
 10
-5.9177629257
 20
1.6908313198
 30
0.0
 40
0.18750000000002
100
AcDbArc
 50
218.0149514942
 51
244.7651471984
  0
ARC
  5
4D8
330
1F
100
AcDbEntity
  8
0
  6
Continuous
 62
     7
370
    25
100
AcDbCircle
 10
-0.0000000001
 20
0.0
 30
0.0
 40
6.266725884089219
100
AcDbArc
 50
164.8501605895
 51
165.4405593943
  0
ARC
  5
4D9
330
1F
100
AcDbEntity
  8
0
  6
Continuous
 62
     7
370
    25
100
AcDbCircle
 10
-5.9778553224
 20
1.4642658028
 30
0.0
 40
0.187500000000064
100
AcDbArc
 50
85.5255727853
 51
112.2757684895
  0
ARC
  5
4DA
330
1F
100
AcDbEntity
  8
0
  6
Continuous
 62
     7
370
    25
100
AcDbCircle
 10
-5.9250312838
 20
1.8989696485
 30
0.0
 40
0.2500000000000225
100
AcDbArc
 50
265.5255727853
 51
283.3977871763
  0
ARC
  5
4DB
330
1F
100
AcDbEntity
  8
0
  6
Continuous
 62
     7
370
    25
100
AcDbCircle
 10
-5.8910857199
 20
1.7564566712
 30
0.0
 40
0.1035000000000002
100
AcDbArc
 50
283.3977871763
 51
43.3977871763
  0
ARC
  5
4DC
330
1F
100
AcDbEntity
  8
0
  6
Continuous
 62
     7
370
    25
100
AcDbCircle
 10
-5.9975327967
 20
1.6558024619
 30
0.0
 40
0.2500000000000278
100
AcDbArc
 50
43.3977871763
 51
61.2700015674
  0
ARC
  5
4DD
330
1F
100
AcDbEntity
  8
0
  6
Continuous
 62
     7
370
    25
100
AcDbCircle
 10
-5.803675898
 20
2.048456655
 30
0.0
 40
0.1875000000000449
100
AcDbArc
 50
214.5198058632
 51
241.2700015674
  0
ARC
  5
4DE
330
1F
100
AcDbEntity
  8
0
  6
Continuous
 62
     7
370
    25
100
AcDbCircle
 10
-0.0000000001
 20
0.0
 30
0.0
 40
6.266725884162232
100
AcDbArc
 50
161.3550149584
 51
161.9454137632
  0
ARC
  5
4DF
330
1F
100
AcDbEntity
  8
0
  6
Continuous
 62
     7
370
    25
100
AcDbCircle
 10
-5.8774688549
 20
1.8259760286
 30
0.0
 40
0.1875000000000449
100
AcDbArc
 50
82.0304271542
 51
108.7806228585
  0
ARC
  5
4E0
330
1F
100
AcDbEntity
  8
0
  6
Continuous
 62
     7
370
    25
100
AcDbCircle
 10
-5.7982417974
 20
2.2566509476
 30
0.0
 40
0.2500000000000199
100
AcDbArc
 50
262.0304271542
 51
279.9026415453
  0
ARC
  5
4E1
330
1F
100
AcDbEntity
  8
0
  6
Continuous
 62
     7
370
    25
100
AcDbCircle
 10
-5.7730475306
 20
2.1123335927
 30
0.0
 40
0.103500000000001
100
AcDbArc
 50
279.9026415453
 51
39.9026415453
  0
ARC
  5
4E2
330
1F
100
AcDbEntity
  8
0
  6
Continuous
 62
     7
370
    25
100
AcDbCircle
 10
-5.8854328928
 20
2.0183560402
 30
0.0
 40
0.250000000000047
100
AcDbArc
 50
39.9026415453
 51
57.7748559363
  0
ARC
  5
4E3
330
1F
100
AcDbEntity
  8
0
  6
Continuous
 62
     7
370
    25
100
AcDbCircle
 10
-5.6679988148
 20
2.3984615969
 30
0.0
 40
0.1874999999999977
100
AcDbArc
 50
211.0246602321
 51
237.7748559363
  0
ARC
  5
4E4
330
1F
100
AcDbEntity
  8
0
  6
Continuous
 62
     7
370
    25
100
AcDbCircle
 10
-0.0000000001
 20
0.0
 30
0.0
 40
6.266725884168839
100
AcDbArc
 50
157.8598693274
 51
158.4502681321
  0
ARC
  5
4E5
330
1F
100
AcDbEntity
  8
0
  6
Continuous
 62
     7
370
    25
100
AcDbCircle
 10
-5.7552178172
 20
2.1808935036
 30
0.0
 40
0.18750000000005
100
AcDbArc
 50
78.5352815232
 51
105.2854772274
  0
ARC
  5
4E6
330
1F
100
AcDbEntity
  8
0
  6
Continuous
 62
     7
370
    25
100
AcDbCircle
 10
-5.6498824706
 20
2.6059373569
 30
0.0
 40
0.2499999999999766
100
AcDbArc
 50
258.5352815232
 51
276.4074959142
  0
ARC
  5
4E7
330
1F
100
AcDbEntity
  8
0
  6
Continuous
 62
     7
370
    25
100
AcDbCircle
 10
-5.6335332253
 20
2.4603524944
 30
0.0
 40
0.1035000000000006
100
AcDbArc
 50
276.4074959142
 51
36.4074959142
  0
ARC
  5
4E8
330
1F
100
AcDbEntity
  8
0
  6
Continuous
 62
     7
370
    25
100
AcDbCircle
 10
-5.7514387919
 20
2.3734012014
 30
0.0
 40
0.2499999999999994
100
AcDbArc
 50
36.4074959142
 51
54.2797103052
  0
ARC
  5
4E9
330
1F
100
AcDbEntity
  8
0
  6
Continuous
 62
     7
370
    25
100
AcDbCircle
 10
-5.5112364038
 20
2.7395441042
 30
0.0
 40
0.1875000000000286
100
AcDbArc
 50
207.529514601
 51
234.2797103052
  0
ARC
  5
4EA
330
1F
100
AcDbEntity
  8
0
  6
Continuous
 62
     7
370
    25
100
AcDbCircle
 10
-0.0000000001
 20
0.0
 30
0.0
 40
6.266725884159295
100
AcDbArc
 50
154.3647236963
 51
154.955122501
  0
ARC
  5
4EB
330
1F
100
AcDbEntity
  8
0
  6
Continuous
 62
     7
370
    25
100
AcDbCircle
 10
-5.6115569912
 20
2.5276979115
 30
0.0
 40
0.1875000000000651
100
AcDbArc
 50
75.0401358921
 51
101.7903315963
  0
ARC
  5
4EC
330
1F
100
AcDbEntity
  8
0
  6
Continuous
 62
     7
370
    25
100
AcDbCircle
 10
-5.48050521
 20
2.9455295081
 30
0.0
 40
0.2499999999999925
100
AcDbArc
 50
255.0401358921
 51
272.9123502831
  0
ARC
  5
4ED
330
1F
100
AcDbEntity
  8
0
  6
Continuous
 62
     7
370
    25
100
AcDbCircle
 10
-5.4730618064
 20
2.7992187233
 30
0.0
 40
0.1034999999999998
100
AcDbArc
 50
272.9123502831
 51
32.9123502831
  0
ARC
  5
4EE
330
1F
100
AcDbEntity
  8
0
  6
Continuous
 62
     7
370
    25
100
AcDbCircle
 10
-5.596048961
 20
2.7196171543
 30
0.0
 40
0.2499999999999688
100
AcDbArc
 50
32.9123502831
 51
50.7845646742
  0
ARC
  5
4EF
330
1F
100
AcDbEntity
  8
0
  6
Continuous
 62
     7
370
    25
100
AcDbCircle
 10
-5.3339718313
 20
3.0704353274
 30
0.0
 40
0.1874999999999755
100
AcDbArc
 50
204.03436897
 51
230.7845646742
  0
ARC
  5
4F0
330
1F
100
AcDbEntity
  8
0
  6
Continuous
 62
     7
370
    25
100
AcDbCircle
 10
-0.0000000002
 20
0.0000000001
 30
0.0
 40
6.266725884057072
100
AcDbArc
 50
150.8695780652
 51
151.45997687
  0
ARC
  5
4F1
330
1F
100
AcDbEntity
  8
0
  6
Continuous
 62
     7
370
    25
100
AcDbCircle
 10
-5.4470208046
 20
2.8650991171
 30
0.0
 40
0.187500000000056
100
AcDbArc
 50
71.544990261
 51
98.2951859653
  0
ARC
  5
4F2
330
1F
100
AcDbEntity
  8
0
  6
Continuous
 62
     7
370
    25
100
AcDbCircle
 10
-5.29074011
 20
3.2741640961
 30
0.0
 40
0.250000000000025
100
AcDbArc
 50
251.544990261
 51
269.4172046521
  0
ARC
  5
4F3
330
1F
100
AcDbEntity
  8
0
  6
Continuous
 62
     7
370
    25
100
AcDbCircle
 10
-5.2922302381
 20
3.1276716747
 30
0.0
 40
0.1035000000000004
100
AcDbArc
 50
269.4172046521
 51
29.4172046521
  0
ARC
  5
4F4
330
1F
100
AcDbEntity
  8
0
  6
Continuous
 62
     7
370
    25
100
AcDbCircle
 10
-5.4198414604
 20
3.0557159527
 30
0.0
 40
0.2499999999999484
100
AcDbArc
 50
29.4172046521
 51
47.2894190431
  0
ARC
  5
4F5
330
1F
100
AcDbEntity
  8
0
  6
Continuous
 62
     7
370
    25
100
AcDbCircle
 10
-5.1368645333
 20
3.3899043296
 30
0.0
 40
0.187500000000005
100
AcDbArc
 50
200.5392233389
 51
227.2894190431
  0
ARC
  5
4F6
330
1F
100
AcDbEntity
  8
0
  6
Continuous
 62
     7
370
    25
100
AcDbCircle
 10
-0.0000000001
 20
0.0000000001
 30
0.0
 40
6.266725884097715
100
AcDbArc
 50
147.3744324342
 51
147.9648312389
  0
ARC
  5
4F7
330
1F
100
AcDbEntity
  8
0
  6
Continuous
 62
     7
370
    25
100
AcDbCircle
 10
-5.2622213429
 20
3.1918419659
 30
0.0
 40
0.1875000000000619
100
AcDbArc
 50
68.04984463
 51
94.8000403342
  0
ARC
  5
4F8
330
1F
100
AcDbEntity
  8
0
  6
Continuous
 62
     7
370
    25
100
AcDbCircle
 10
-5.0812931094
 20
3.5906185786
 30
0.0
 40
0.2500000000000034
100
AcDbArc
 50
248.04984463
 51
265.922059021
  0
ARC
  5
4F9
330
1F
100
AcDbEntity
  8
0
  6
Continuous
 62
     7
370
    25
100
AcDbCircle
 10
-5.0917112257
 20
3.444489482
 30
0.0
 40
0.1034999999999999
100
AcDbArc
 50
265.922059021
 51
25.922059021
  0
ARC
  5
4FA
330
1F
100
AcDbEntity
  8
0
  6
Continuous
 62
     7
370
    25
100
AcDbCircle
 10
-5.2234717936
 20
3.3804472871
 30
0.0
 40
0.2499999999999888
100
AcDbArc
 50
25.922059021
 51
43.794273412
  0
ARC
  5
4FB
330
1F
100
AcDbEntity
  8
0
  6
Continuous
 62
     7
370
    25
100
AcDbCircle
 10
-4.9206477618
 20
3.696762665
 30
0.0
 40
0.1875000000000081
100
AcDbArc
 50
197.0440777078
 51
223.794273412
  0
ARC
  5
4FC
330
1F
100
AcDbEntity
  8
0
  6
Continuous
 62
     7
370
    25
100
AcDbCircle
 10
0.0
 20
0.0
 30
0.0
 40
6.266725884190966
100
AcDbArc
 50
143.8792868031
 51
144.4696856078
  0
ARC
  5
4FD
330
1F
100
AcDbEntity
  8
0
  6
Continuous
 62
     7
370
    25
100
AcDbCircle
 10
-5.0578460722
 20
3.5067109529
 30
0.0
 40
0.1875000000000665
100
AcDbArc
 50
64.5546989989
 51
91.3048947031
  0
ARC
  5
4FE
330
1F
100
AcDbEntity
  8
0
  6
Continuous
 62
     7
370
    25
100
AcDbCircle
 10
-4.8529433646
 20
3.8937157241
 30
0.0
 40
0.2500000000000567
100
AcDbArc
 50
244.5546989989
 51
262.4269133899
  0
ARC
  5
4FF
330
1F
100
AcDbEntity
  8
0
  6
Continuous
 62
     7
370
    25
100
AcDbCircle
 10
-4.8722507131
 20
3.7484935622
 30
0.0
 40
0.1035000000000003
100
AcDbArc
 50
262.4269133899
 51
22.4269133899
  0
ARC
  5
500
330
1F
100
AcDbEntity
  8
0
  6
Continuous
 62
     7
370
    25
100
AcDbCircle
 10
-5.0076704687
 20
3.6926031356
 30
0.0
 40
0.2499999999999944
100
AcDbArc
 50
22.4269133899
 51
40.299127781
  0
ARC
  5
501
330
1F
100
AcDbEntity
  8
0
  6
Continuous
 62
     7
370
    25
100
AcDbCircle
 10
-4.6861258575
 20
3.9898688004
 30
0.0
 40
0.1875000000000345
100
AcDbArc
 50
193.5489320768
 51
220.299127781
  0
ARC
  5
502
330
1F
100
AcDbEntity
  8
0
  6
Continuous
 62
     7
370
    25
100
AcDbCircle
 10
-0.0000000001
 20
0.0000000001
 30
0.0
 40
6.266725884131169
100
AcDbArc
 50
140.384141172
 51
140.9745399768
  0
ARC
  5
503
330
1F
100
AcDbEntity
  8
0
  6
Continuous
 62
     7
370
    25
100
AcDbCircle
 10
-4.8346552818
 20
3.8085347449
 30
0.0
 40
0.1875000000000422
100
AcDbArc
 50
61.0595533678
 51
87.8097490721
  0
ARC
  5
504
330
1F
100
AcDbEntity
  8
0
  6
Continuous
 62
     7
370
    25
100
AcDbCircle
 10
-4.6065403518
 20
4.1823279914
 30
0.0
 40
0.2500000000000472
100
AcDbArc
 50
241.0595533678
 51
258.9317677589
  0
ARC
  5
505
330
1F
100
AcDbEntity
  8
0
  6
Continuous
 62
     7
370
    25
100
AcDbCircle
 10
-4.6346651079
 20
4.0385530002
 30
0.0
 40
0.1035000000000001
100
AcDbArc
 50
258.9317677589
 51
18.9317677589
  0
ARC
  5
506
330
1F
100
AcDbEntity
  8
0
  6
Continuous
 62
     7
370
    25
100
AcDbCircle
 10
-4.7732402807
 20
3.9910222579
 30
0.0
 40
0.2500000000000103
100
AcDbArc
 50
18.9317677589
 51
36.8039821499
  0
ARC
  5
507
330
1F
100
AcDbEntity
  8
0
  6
Continuous
 62
     7
370
    25
100
AcDbCircle
 10
-4.4341712572
 20
4.2681323619
 30
0.0
 40
0.1875000000000262
100
AcDbArc
 50
190.0537864457
 51
216.8039821499
  0
ARC
  5
508
330
1F
100
AcDbEntity
  8
0
  6
Continuous
 62
     7
370
    25
100
AcDbCircle
 10
-0.0000000001
 20
0.0000000001
 30
0.0
 40
6.266725884145692
100
AcDbArc
 50
136.888995541
 51
137.4793943457
  0
ARC
  5
509
330
1F
100
AcDbEntity
  8
0
  6
Continuous
 62
     7
370
    25
100
AcDbCircle
 10
-4.5934792563
 20
4.0961905374
 30
0.0
 40
0.1875000000000649
100
AcDbArc
 50
57.5644077368
 51
84.314603441
  0
ARC
  5
50A
330
1F
100
AcDbEntity
  8
0
  6
Continuous
 62
     7
370
    25
100
AcDbCircle
 10
-4.3430007063
 20
4.4553817239
 30
0.0
 40
0.2500000000000243
100
AcDbArc
 50
237.5644077368
 51
255.4366221278
  0
ARC
  5
50B
330
1F
100
AcDbEntity
  8
0
  6
Continuous
 62
     7
370
    25
100
AcDbCircle
 10
-4.379838244
 20
4.3135887558
 30
0.0
 40
0.1035000000000003
100
AcDbArc
 50
255.4366221278
 51
15.4366221278
  0
ARC
  5
50C
330
1F
100
AcDbEntity
  8
0
  6
Continuous
 62
     7
370
    25
100
AcDbCircle
 10
-4.5210533254
 20
4.2745945152
 30
0.0
 40
0.2500000000000228
100
AcDbArc
 50
15.4366221278
 51
33.3088365188
  0
ARC
  5
50D
330
1F
100
AcDbEntity
  8
0
  6
Continuous
 62
     7
370
    25
100
AcDbCircle
 10
-4.1657212486
 20
4.5305181907
 30
0.0
 40
0.1874999999999964
100
AcDbArc
 50
186.5586408146
 51
213.3088365188
  0
ARC
  5
50E
330
1F
100
AcDbEntity
  8
0
  6
Continuous
 62
     7
370
    25
100
AcDbCircle
 10
-0.0000000001
 20
0.0000000001
 30
0.0
 40
6.266725884170612
100
AcDbArc
 50
133.3938499099
 51
133.9842487146
  0
ARC
  5
50F
330
1F
100
AcDbEntity
  8
0
  6
Continuous
 62
     7
370
    25
100
AcDbCircle
 10
-4.3352151863
 20
4.3686082321
 30
0.0
 40
0.18750000000007
100
AcDbArc
 50
54.0692621057
 51
80.8194578099
  0
ARC
  5
510
330
1F
100
AcDbEntity
  8
0
  6
Continuous
 62
     7
370
    25
100
AcDbCircle
 10
-4.0633048129
 20
4.7118611437
 30
0.0
 40
0.2499999999999691
100
AcDbArc
 50
234.0692621057
 51
251.9414764967
  0
ARC
  5
511
330
1F
100
AcDbEntity
  8
0
  6
Continuous
 62
     7
370
    25
100
AcDbCircle
 10
-4.1087180942
 20
4.5725776778
 30
0.0
 40
0.1035000000000001
100
AcDbArc
 50
251.9414764967
 51
11.9414764967
  0
ARC
  5
512
330
1F
100
AcDbEntity
  8
0
  6
Continuous
 62
     7
370
    25
100
AcDbCircle
 10
-4.2520477547
 20
4.5422650002
 30
0.0
 40
0.2499999999999693
100
AcDbArc
 50
11.9414764967
 51
29.8136908878
  0
ARC
  5
513
330
1F
100
AcDbEntity
  8
0
  6
Continuous
 62
     7
370
    25
100
AcDbCircle
 10
-3.8817744833
 20
4.7760501942
 30
0.0
 40
0.1875000000000065
100
AcDbArc
 50
183.0634951835
 51
209.8136908878
  0
ARC
  5
514
330
1F
100
AcDbEntity
  8
0
  6
Continuous
 62
     7
370
    25
100
AcDbCircle
 10
-0.0000000001
 20
0.0000000001
 30
0.0
 40
6.266725884106937
100
AcDbArc
 50
129.8987042788
 51
130.4891030836
  0
ARC
  5
515
330
1F
100
AcDbEntity
  8
0
  6
Continuous
 62
     7
370
    25
100
AcDbCircle
 10
-4.060823831
 20
4.6247744173
 30
0.0
 40
0.1875000000000648
100
AcDbArc
 50
50.5741164746
 51
77.3243121788
  0
ARC
  5
516
330
1F
100
AcDbEntity
  8
0
  6
Continuous
 62
     7
370
    25
100
AcDbCircle
 10
-3.7684931587
 20
4.9508121306
 30
0.0
 40
0.2500000000000258
100
AcDbArc
 50
230.5741164746
 51
248.4463308657
  0
ARC
  5
517
330
1F
100
AcDbEntity
  8
0
  6
Continuous
 62
     7
370
    25
100
AcDbCircle
 10
-3.8223132433
 20
4.8145563106
 30
0.0
 40
0.1035000000000003
100
AcDbArc
 50
248.4463308657
 51
8.4463308657
  0
ARC
  5
518
330
1F
100
AcDbEntity
  8
0
  6
Continuous
 62
     7
370
    25
100
AcDbCircle
 10
-3.9672242871
 20
4.793037961
 30
0.0
 40
0.2500000000000077
100
AcDbArc
 50
8.4463308657
 51
26.3185452567
  0
ARC
  5
519
330
1F
100
AcDbEntity
  8
0
  6
Continuous
 62
     7
370
    25
100
AcDbCircle
 10
-3.583387262
 20
5.0038149774
 30
0.0
 40
0.187500000000041
100
AcDbArc
 50
179.5683495525
 51
206.3185452567
  0
ARC
  5
51A
330
1F
100
AcDbEntity
  8
0
  6
Continuous
 62
     7
370
    25
100
AcDbCircle
 10
0.0
 20
0.0
 30
0.0
 40
6.266725884187015
100
AcDbArc
 50
126.4035586478
 51
126.9939574525
  0
ARC
  5
51B
330
1F
100
AcDbEntity
  8
0
  6
Continuous
 62
     7
370
    25
100
AcDbCircle
 10
-3.7713259443
 20
4.8637361378
 30
0.0
 40
0.187500000000089
100
AcDbArc
 50
47.0789708436
 51
73.8291665478
  0
ARC
  5
51C
330
1F
100
AcDbEntity
  8
0
  6
Continuous
 62
     7
370
    25
100
AcDbCircle
 10
-3.4596624625
 20
5.1713457713
 30
0.0
 40
0.250000000000057
100
AcDbArc
 50
227.0789708436
 51
244.9511852346
  0
ARC
  5
51D
330
1F
100
AcDbEntity
  8
0
  6
Continuous
 62
     7
370
    25
100
AcDbCircle
 10
-3.521689136
 20
5.0386244777
 30
0.0
 40
0.1035000000000002
100
AcDbArc
 50
244.9511852346
 51
4.9511852346
  0
ARC
  5
51E
330
1F
100
AcDbEntity
  8
0
  6
Continuous
 62
     7
370
    25
100
AcDbCircle
 10
-3.6676424846
 20
5.0259805058
 30
0.0
 40
0.2499999999999913
100
AcDbArc
 50
4.9511852346
 51
22.8233996256
  0
ARC
  5
51F
330
1F
100
AcDbEntity
  8
0
  6
Continuous
 62
     7
370
    25
100
AcDbCircle
 10
-3.2716696047
 20
5.2129652401
 30
0.0
 40
0.187500000000014
100
AcDbArc
 50
176.0732039214
 51
202.8233996256
  0
ARC
  5
520
330
1F
100
AcDbEntity
  8
0
  6
Continuous
 62
     7
370
    25
100
AcDbCircle
 10
0.0
 20
0.0000000001
 30
0.0
 40
6.266725884161128
100
AcDbArc
 50
122.9084130167
 51
123.4988118214
  0
ARC
  5
521
330
1F
100
AcDbEntity
  8
0
  6
Continuous
 62
     7
370
    25
100
AcDbCircle
 10
-3.4677984775
 20
5.0846044405
 30
0.0
 40
0.1875000000000426
100
AcDbArc
 50
43.5838252125
 51
70.3340209167
  0
ARC
  5
522
330
1F
100
AcDbEntity
  8
0
  6
Continuous
 62
     7
370
    25
100
AcDbCircle
 10
-3.1379615947
 20
5.3726416659
 30
0.0
 40
0.2500000000000514
100
AcDbArc
 50
223.5838252125
 51
241.4560396035
  0
ARC
  5
523
330
1F
100
AcDbEntity
  8
0
  6
Continuous
 62
     7
370
    25
100
AcDbCircle
 10
-3.2079641138
 20
5.2439486307
 30
0.0
 40
0.1035000000000013
100
AcDbArc
 50
241.4560396035
 51
1.4560396035
  0
ARC
  5
524
330
1F
100
AcDbEntity
  8
0
  6
Continuous
 62
     7
370
    25
100
AcDbCircle
 10
-3.3544168112
 20
5.2402260731
 30
0.0
 40
0.2499999999999673
100
AcDbArc
 50
1.4560396035
 51
19.3282539946
  0
ARC
  5
525
330
1F
100
AcDbEntity
  8
0
  6
Continuous
 62
     7
370
    25
100
AcDbCircle
 10
-2.9477811216
 20
5.4027229298
 30
0.0
 40
0.1875000000000322
100
AcDbArc
 50
172.5780582903
 51
199.3282539946
  0
ARC
  5
526
330
1F
100
AcDbEntity
  8
0
  6
Continuous
 62
     7
370
    25
100
AcDbCircle
 10
0.0
 20
0.0
 30
0.0
 40
6.266725884256218
100
AcDbArc
 50
119.4132673856
 51
120.0036661904
  0
ARC
  5
527
330
1F
100
AcDbEntity
  8
0
  6
Continuous
 62
     7
370
    25
100
AcDbCircle
 10
-3.1513705725
 20
5.2865576807
 30
0.0
 40
0.1875000000001025
100
AcDbArc
 50
40.0886795814
 51
66.8388752856
  0
ARC
  5
528
330
1F
100
AcDbEntity
  8
0
  6
Continuous
 62
     7
370
    25
100
AcDbCircle
 10
-2.8045873036
 20
5.5539509808
 30
0.0
 40
0.2500000000000328
100
AcDbArc
 50
220.0886795814
 51
237.9608939725
  0
ARC
  5
529
330
1F
100
AcDbEntity
  8
0
  6
Continuous
 62
     7
370
    25
100
AcDbCircle
 10
-2.8823052545
 20
5.4297649505
 30
0.0
 40
0.1035000000000008
100
AcDbArc
 50
237.9608939725
 51
357.9608939725
  0
ARC
  5
52A
330
1F
100
AcDbEntity
  8
0
  6
Continuous
 62
     7
370
    25
100
AcDbCircle
 10
-3.0287124869
 20
5.4349776551
 30
0.0
 40
0.2500000000000157
100
AcDbArc
 50
357.9608939725
 51
15.8331083635
  0
ARC
  5
52B
330
1F
100
AcDbEntity
  8
0
  6
Continuous
 62
     7
370
    25
100
AcDbCircle
 10
-2.6129266991
 20
5.5723821353
 30
0.0
 40
0.1875000000000191
100
AcDbArc
 50
169.0829126593
 51
195.8331083635
  0
ARC
  5
52C
330
1F
100
AcDbEntity
  8
0
  6
Continuous
 62
     7
370
    25
100
AcDbCircle
 10
0.0
 20
0.0
 30
0.0
 40
6.266725884246116
100
AcDbArc
 50
115.9181217546
 51
116.5085205593
  0
ARC
  5
52D
330
1F
100
AcDbEntity
  8
0
  6
Continuous
 62
     7
370
    25
100
AcDbCircle
 10
-2.823219362
 20
5.4688445791
 30
0.0
 40
0.1875000000000505
100
AcDbArc
 50
36.5935339504
 51
63.3437296546
  0
ARC
  5
52E
330
1F
100
AcDbEntity
  8
0
  6
Continuous
 62
     7
370
    25
100
AcDbCircle
 10
-2.4607797636
 20
5.7145992331
 30
0.0
 40
0.250000000000056
100
AcDbArc
 50
216.5935339504
 51
234.4657483414
  0
ARC
  5
52F
330
1F
100
AcDbEntity
  8
0
  6
Continuous
 62
     7
370
    25
100
AcDbCircle
 10
-2.5459240302
 20
5.595382188
 30
0.0
 40
0.1035000000000019
100
AcDbArc
 50
234.4657483414
 51
354.4657483414
  0
ARC
  5
530
330
1F
100
AcDbEntity
  8
0
  6
Continuous
 62
     7
370
    25
100
AcDbCircle
 10
-2.6917411532
 20
5.6095107633
 30
0.0
 40
0.2500000000000045
100
AcDbArc
 50
354.4657483414
 51
12.3379627324
  0
ARC
  5
531
330
1F
100
AcDbEntity
  8
0
  6
Continuous
 62
     7
370
    25
100
AcDbCircle
 10
-2.2683520177
 20
5.7213117133
 30
0.0
 40
0.1875000000000062
100
AcDbArc
 50
165.5877670282
 51
192.3379627324
  0
ARC
  5
532
330
1F
100
AcDbEntity
  8
0
  6
Continuous
 62
     7
370
    25
100
AcDbCircle
 10
0.0
 20
0.0
 30
0.0
 40
6.266725884267692
100
AcDbArc
 50
112.4229761235
 51
113.0133749282
  0
ARC
  5
533
330
1F
100
AcDbEntity
  8
0
  6
Continuous
 62
     7
370
    25
100
AcDbCircle
 10
-2.4845655901
 20
5.6307870165
 30
0.0
 40
0.1875000000000201
100
AcDbArc
 50
33.0983883193
 51
59.8485840235
  0
ARC
  5
534
330
1F
100
AcDbEntity
  8
0
  6
Continuous
 62
     7
370
    25
100
AcDbCircle
 10
-2.1078179612
 20
5.853988801
 30
0.0
 40
0.2500000000000266
100
AcDbArc
 50
213.0983883193
 51
230.9706027103
  0
ARC
  5
535
330
1F
100
AcDbEntity
  8
0
  6
Continuous
 62
     7
370
    25
100
AcDbCircle
 10
-2.2000718014
 20
5.7401842362
 30
0.0
 40
0.1035000000000012
100
AcDbArc
 50
230.9706027103
 51
350.9706027103
  0
ARC
  5
536
330
1F
100
AcDbEntity
  8
0
  6
Continuous
 62
     7
370
    25
100
AcDbCircle
 10
-2.3447563657
 20
5.7631761231
 30
0.0
 40
0.249999999999987
100
AcDbArc
 50
350.9706027103
 51
8.8428171014
  0
ARC
  5
537
330
1F
100
AcDbEntity
  8
0
  6
Continuous
 62
     7
370
    25
100
AcDbCircle
 10
-1.9153389178
 20
5.8489576359
 30
0.0
 40
0.1875000000000081
100
AcDbArc
 50
162.0926213971
 51
188.8428171014
  0
ARC
  5
538
330
1F
100
AcDbEntity
  8
0
  6
Continuous
 62
     7
370
    25
100
AcDbCircle
 10
0.0
 20
0.0000000001
 30
0.0
 40
6.266725884187421
100
AcDbArc
 50
108.9278304924
 51
109.5182292972
  0
ARC
  5
539
330
1F
100
AcDbEntity
  8
0
  6
Continuous
 62
     7
370
    25
100
AcDbCircle
 10
-2.136669071
 20
5.7717825564
 30
0.0
 40
0.1875000000000588
100
AcDbArc
 50
29.6032426882
 51
56.3534383924
  0
ARC
  5
53A
330
1F
100
AcDbEntity
  8
0
  6
Continuous
 62
     7
370
    25
100
AcDbCircle
 10
-1.7470149376
 20
5.9716011461
 30
0.0
 40
0.2500000000000758
100
AcDbArc
 50
209.6032426882
 51
227.4754570793
  0
ARC
  5
53B
330
1F
100
AcDbEntity
  8
0
  6
Continuous
 62
     7
370
    25
100
AcDbCircle
 10
-1.846035161
 20
5.8636324221
 30
0.0
 40
0.1034999999999997
100
AcDbArc
 50
227.4754570793
 51
347.4754570793
  0
ARC
  5
53C
330
1F
100
AcDbEntity
  8
0
  6
Continuous
 62
     7
370
    25
100
AcDbCircle
 10
-1.9890489305
 20
5.8954020891
 30
0.0
 40
0.2499999999999818
100
AcDbArc
 50
347.4754570793
 51
5.3476714703
  0
ARC
  5
53D
330
1F
100
AcDbEntity
  8
0
  6
Continuous
 62
     7
370
    25
100
AcDbCircle
 10
-1.5552006313
 20
5.954845052
 30
0.0
 40
0.1875000000000183
100
AcDbArc
 50
158.5974757661
 51
185.3476714703
  0
ARC
  5
53E
330
1F
100
AcDbEntity
  8
0
  6
Continuous
 62
     7
370
    25
100
AcDbCircle
 10
0.0
 20
0.0000000001
 30
0.0
 40
6.266725884180789
100
AcDbArc
 50
105.4326848614
 51
106.0230836661
  0
ARC
  5
53F
330
1F
100
AcDbEntity
  8
0
  6
Continuous
 62
     7
370
    25
100
AcDbCircle
 10
-1.7808240026
 20
5.891306686
 30
0.0
 40
0.1875000000000481
100
AcDbArc
 50
26.1080970572
 51
52.8582927614
  0
ARC
  5
540
330
1F
100
AcDbEntity
  8
0
  6
Continuous
 62
     7
370
    25
100
AcDbCircle
 10
-1.3797129036
 20
6.0669987427
 30
0.0
 40
0.2500000000000483
100
AcDbArc
 50
206.1080970572
 51
223.9803114482
  0
ARC
  5
541
330
1F
100
AcDbEntity
  8
0
  6
Continuous
 62
     7
370
    25
100
AcDbCircle
 10
-1.4851311485
 20
5.9652675103
 30
0.0
 40
0.1035000000000012
100
AcDbArc
 50
223.9803114482
 51
343.9803114482
  0
ARC
  5
542
330
1F
100
AcDbEntity
  8
0
  6
Continuous
 62
     7
370
    25
100
AcDbCircle
 10
-1.6259421026
 20
6.0056967722
 30
0.0
 40
0.2499999999999812
100
AcDbArc
 50
343.9803114482
 51
1.8525258392
  0
ARC
  5
543
330
1F
100
AcDbEntity
  8
0
  6
Continuous
 62
     7
370
    25
100
AcDbCircle
 10
-1.1892768963
 20
6.0385800534
 30
0.0
 40
0.1875000000000185
100
AcDbArc
 50
155.102330135
 51
181.8525258392
  0
ARC
  5
544
330
1F
100
AcDbEntity
  8
0
  6
Continuous
 62
     7
370
    25
100
AcDbCircle
 10
0.0
 20
0.0
 30
0.0
 40
6.266725884216259
100
AcDbArc
 50
101.9375392303
 51
102.527938035
  0
ARC
  5
545
330
1F
100
AcDbEntity
  8
0
  6
Continuous
 62
     7
370
    25
100
AcDbCircle
 10
-1.4183541519
 20
5.9889147679
 30
0.0
 40
0.1875000000000343
100
AcDbArc
 50
22.6129514261
 51
49.3631471303
  0
ARC
  5
546
330
1F
100
AcDbEntity
  8
0
  6
Continuous
 62
     7
370
    25
100
AcDbCircle
 10
-1.0072782471
 20
6.1398267055
 30
0.0
 40
0.2499999999999735
100
AcDbArc
 50
202.6129514261
 51
220.4851658171
  0
ARC
  5
547
330
1F
100
AcDbEntity
  8
0
  6
Continuous
 62
     7
370
    25
100
AcDbCircle
 10
-1.1187023506
 20
6.0447114115
 30
0.0
 40
0.1035000000000014
100
AcDbArc
 50
220.4851658171
 51
340.4851658171
  0
ARC
  5
548
330
1F
100
AcDbEntity
  8
0
  6
Continuous
 62
     7
370
    25
100
AcDbCircle
 10
-1.2567866632
 20
6.0936498688
 30
0.0
 40
0.2499999999999735
100
AcDbArc
 50
340.4851658171
 51
358.3573802082
  0
ARC
  5
549
330
1F
100
AcDbEntity
  8
0
  6
Continuous
 62
     7
370
    25
100
AcDbCircle
 10
-0.8189289732
 20
6.0998511403
 30
0.0
 40
0.1875000000000243
100
AcDbArc
 50
151.6071845039
 51
178.3573802081
  0
ARC
  5
54A
330
1F
100
AcDbEntity
  8
0
  6
Continuous
 62
     7
370
    25
100
AcDbCircle
 10
0.0
 20
0.0000000001
 30
0.0
 40
6.266725884128357
100
AcDbArc
 50
98.4423935992
 51
99.032792404
  0
ARC
  5
54B
330
1F
100
AcDbEntity
  8
0
  6
Continuous
 62
     7
370
    25
100
AcDbCircle
 10
-1.0506079307
 20
6.0642436934
 30
0.0
 40
0.1875000000000297
100
AcDbArc
 50
19.117805795
 51
45.8680014992
  0
ARC
  5
54C
330
1F
100
AcDbEntity
  8
0
  6
Continuous
 62
     7
370
    25
100
AcDbCircle
 10
-0.6310964492
 20
6.1898141096
 30
0.0
 40
0.2499999999999736
100
AcDbArc
 50
199.117805795
 51
216.9900201861
  0
ARC
  5
54D
330
1F
100
AcDbEntity
  8
0
  6
Continuous
 62
     7
370
    25
100
AcDbCircle
 10
-0.7481119065
 20
6.1016685892
 30
0.0
 40
0.1035000000000013
100
AcDbArc
 50
216.9900201861
 51
336.9900201861
  0
ARC
  5
54E
330
1F
100
AcDbEntity
  8
0
  6
Continuous
 62
     7
370
    25
100
AcDbCircle
 10
-0.882955895
 20
6.1589341876
 30
0.0
 40
0.2499999999999752
100
AcDbArc
 50
336.9900201861
 51
354.8622345771
  0
ARC
  5
54F
330
1F
100
AcDbEntity
  8
0
  6
Continuous
 62
     7
370
    25
100
AcDbCircle
 10
-0.4455345805
 20
6.1384303804
 30
0.0
 40
0.1875000000000177
100
AcDbArc
 50
148.1120388729
 51
174.8622345771
  0
ARC
  5
550
330
1F
100
AcDbEntity
  8
0
  6
Continuous
 62
     7
370
    25
100
AcDbCircle
 10
0.0
 20
0.0000000001
 30
0.0
 40
6.266725884120531
100
AcDbArc
 50
94.9472479681
 51
95.5376467729
  0
ARC
  5
551
330
1F
100
AcDbEntity
  8
0
  6
Continuous
 62
     7
370
    25
100
AcDbCircle
 10
-0.6789533789
 20
6.1170132341
 30
0.0
 40
0.1875000000000527
100
AcDbArc
 50
15.622660164
 51
42.3728558682
  0
ARC
  5
552
330
1F
100
AcDbEntity
  8
0
  6
Continuous
 62
     7
370
    25
100
AcDbCircle
 10
-0.2525669312
 20
6.2167749988
 30
0.0
 40
0.2499999999999788
100
AcDbArc
 50
195.622660164
 51
213.494874555
  0
ARC
  5
553
330
1F
100
AcDbEntity
  8
0
  6
Continuous
 62
     7
370
    25
100
AcDbCircle
 10
-0.3747384369
 20
6.1359271591
 30
0.0
 40
0.1035000000000008
100
AcDbArc
 50
213.494874555
 51
333.494874555
  0
ARC
  5
554
330
1F
100
AcDbEntity
  8
0
  6
Continuous
 62
     7
370
    25
100
AcDbCircle
 10
-0.5058404728
 20
6.2013068668
 30
0.0
 40
0.2499999999999895
100
AcDbArc
 50
333.494874555
 51
351.367088946
  0
ARC
  5
555
330
1F
100
AcDbEntity
  8
0
  6
Continuous
 62
     7
370
    25
100
AcDbCircle
 10
-0.0704827699
 20
6.1541742562
 30
0.0
 40
0.1875000000000106
100
AcDbArc
 50
144.6168932418
 51
171.367088946
  0
ARC
  5
556
330
1F
100
AcDbEntity
  8
0
  6
Continuous
 62
     7
370
    25
100
AcDbCircle
 10
0.0
 20
0.0
 30
0.0
 40
6.266725884243705
100
AcDbArc
 50
91.4521023371
 51
92.0425011418
  0
ARC
  5
557
330
1F
100
AcDbEntity
  8
0
  6
Continuous
 62
     7
370
    25
100
AcDbCircle
 10
-0.304773076
 20
6.1470270838
 30
0.0
 40
0.1875000000000361
100
AcDbArc
 50
12.1275145329
 51
38.8777102371
  0
ARC
  5
558
330
1F
100
AcDbEntity
  8
0
  6
Continuous
 62
     7
370
    25
100
AcDbCircle
 10
0.1269021524
 20
6.2206090766
 30
0.0
 40
0.2500000000000047
100
AcDbArc
 50
192.1275145329
 51
209.9997289239
  0
ARC
  5
559
330
1F
100
AcDbEntity
  8
0
  6
Continuous
 62
     7
370
    25
100
AcDbCircle
 10
0.0000290842
 20
6.1473596769
 30
0.0
 40
0.1035000000000006
100
AcDbArc
 50
209.9997289239
 51
329.9997289239
  0
ARC
  5
55A
330
1F
100
AcDbEntity
  8
0
  6
Continuous
 62
     7
370
    25
100
AcDbCircle
 10
-0.1268432909
 20
6.2206102771
 30
0.0
 40
0.2500000000000003
100
AcDbArc
 50
329.9997289239
 51
347.871943315
  0
ARC
  5
55B
330
1F
100
AcDbEntity
  8
0
  6
Continuous
 62
     7
370
    25
100
AcDbCircle
 10
0.3048312413
 20
6.1470241997
 30
0.0
 40
0.1875000000000356
100
AcDbArc
 50
141.1217476107
 51
167.8719433149
  0
ARC
  5
55C
330
1F
100
AcDbEntity
  8
0
  6
Continuous
 62
     7
370
    25
100
AcDbCircle
 10
0.0
 20
0.0
 30
0.0
 40
6.266725884225702
100
AcDbArc
 50
87.956956706
 51
88.5473555108
  0
ARC
  5
55D
330
1F
100
AcDbEntity
  8
0
  6
Continuous
 62
     7
370
    25
100
AcDbCircle
 10
0.0705410028
 20
6.154173589
 30
0.0
 40
0.1875000000000603
100
AcDbArc
 50
8.6323689018
 51
35.382564606
  0
ARC
  5
55E
330
1F
100
AcDbEntity
  8
0
  6
Continuous
 62
     7
370
    25
100
AcDbCircle
 10
0.5058991517
 20
6.2013020801
 30
0.0
 40
0.2500000000000123
100
AcDbArc
 50
188.6323689018
 51
206.5045832929
  0
ARC
  5
55F
330
1F
100
AcDbEntity
  8
0
  6
Continuous
 62
     7
370
    25
100
AcDbCircle
 10
0.3747964972
 20
6.1359236129
 30
0.0
 40
0.1035000000000002
100
AcDbArc
 50
206.5045832929
 51
326.5045832929
  0
ARC
  5
560
330
1F
100
AcDbEntity
  8
0
  6
Continuous
 62
     7
370
    25
100
AcDbCircle
 10
0.2526257564
 20
6.2167726086
 30
0.0
 40
0.2500000000000066
100
AcDbArc
 50
326.5045832928
 51
344.3767976839
  0
ARC
  5
561
330
1F
100
AcDbEntity
  8
0
  6
Continuous
 62
     7
370
    25
100
AcDbCircle
 10
0.6790112602
 20
6.1170068093
 30
0.0
 40
0.1875000000000273
100
AcDbArc
 50
137.6266019797
 51
164.3767976839
  0
ARC
  5
562
330
1F
100
AcDbEntity
  8
0
  6
Continuous
 62
     7
370
    25
100
AcDbCircle
 10
0.0
 20
0.0000000001
 30
0.0
 40
6.266725884121774
100
AcDbArc
 50
84.4618110749
 51
85.0522098797
  0
ARC
  5
563
330
1F
100
AcDbEntity
  8
0
  6
Continuous
 62
     7
370
    25
100
AcDbCircle
 10
0.4455926644
 20
6.1384261643
 30
0.0
 40
0.1875000000000352
100
AcDbArc
 50
5.1372232708
 51
31.887418975
  0
ARC
  5
564
330
1F
100
AcDbEntity
  8
0
  6
Continuous
 62
     7
370
    25
100
AcDbCircle
 10
0.8830141729
 20
6.1589258325
 30
0.0
 40
0.2500000000000097
100
AcDbArc
 50
185.1372232708
 51
203.0094376618
  0
ARC
  5
565
330
1F
100
AcDbEntity
  8
0
  6
Continuous
 62
     7
370
    25
100
AcDbCircle
 10
0.7481696425
 20
6.1016615101
 30
0.0
 40
0.1035000000000001
100
AcDbArc
 50
203.0094376618
 51
323.0094376618
  0
ARC
  5
566
330
1F
100
AcDbEntity
  8
0
  6
Continuous
 62
     7
370
    25
100
AcDbCircle
 10
0.6311550193
 20
6.1898081377
 30
0.0
 40
0.2499999999999861
100
AcDbArc
 50
323.0094376618
 51
340.8816520528
  0
ARC
  5
567
330
1F
100
AcDbEntity
  8
0
  6
Continuous
 62
     7
370
    25
100
AcDbCircle
 10
1.0506653126
 20
6.0642337519
 30
0.0
 40
0.1875000000000195
100
AcDbArc
 50
134.1314563486
 51
160.8816520528
  0
ARC
  5
568
330
1F
100
AcDbEntity
  8
0
  6
Continuous
 62
     7
370
    25
100
AcDbCircle
 10
0.0
 20
0.0
 30
0.0
 40
6.266725884193471
100
AcDbArc
 50
80.9666654439
 51
81.5570642486
  0
ARC
  5
569
330
1F
100
AcDbEntity
  8
0
  6
Continuous
 62
     7
370
    25
100
AcDbCircle
 10
0.818986692
 20
6.099843391
 30
0.0
 40
0.1875000000000476
100
AcDbArc
 50
1.6420776397
 51
28.3922733439
  0
ARC
  5
56A
330
1F
100
AcDbEntity
  8
0
  6
Continuous
 62
     7
370
    25
100
AcDbCircle
 10
1.2568443234
 20
6.0936379764
 30
0.0
 40
0.2500000000000364
100
AcDbArc
 50
181.6420776397
 51
199.5142920307
  0
ARC
  5
56B
330
1F
100
AcDbEntity
  8
0
  6
Continuous
 62
     7
370
    25
100
AcDbCircle
 10
1.1187595477
 20
6.0447008257
 30
0.0
 40
0.1034999999999996
100
AcDbArc
 50
199.5142920307
 51
319.5142920307
  0
ARC
  5
56C
330
1F
100
AcDbEntity
  8
0
  6
Continuous
 62
     7
370
    25
100
AcDbCircle
 10
1.0073363441
 20
6.139817174
 30
0.0
 40
0.2500000000000285
100
AcDbArc
 50
319.5142920307
 51
337.3865064217
  0
ARC
  5
56D
330
1F
100
AcDbEntity
  8
0
  6
Continuous
 62
     7
370
    25
100
AcDbCircle
 10
1.418410821
 20
5.9889013466
 30
0.0
 40
0.1875000000000094
100
AcDbArc
 50
130.6363107175
 51
157.3865064217
  0
ARC
  5
56E
330
1F
100
AcDbEntity
  8
0
  6
Continuous
 62
     7
370
    25
100
AcDbCircle
 10
0.0
 20
0.0000000001
 30
0.0
 40
6.266725884158367
100
AcDbArc
 50
77.4715198128
 51
78.0619186176
  0
ARC
  5
56F
330
1F
100
AcDbEntity
  8
0
  6
Continuous
 62
     7
370
    25
100
AcDbCircle
 10
1.1893340354
 20
6.0385687997
 30
0.0
 40
0.1875000000000556
100
AcDbArc
 50
358.1469320086
 51
24.8971277128
  0
ARC
  5
570
330
1F
100
AcDbEntity
  8
0
  6
Continuous
 62
     7
370
    25
100
AcDbCircle
 10
1.6259989304
 20
6.0056813867
 30
0.0
 40
0.2499999999999733
100
AcDbArc
 50
178.1469320086
 51
196.0191463996
  0
ARC
  5
571
330
1F
100
AcDbEntity
  8
0
  6
Continuous
 62
     7
370
    25
100
AcDbCircle
 10
1.4851875938
 20
5.9652534572
 30
0.0
 40
0.1034999999999999
100
AcDbArc
 50
196.0191463996
 51
316.0191463996
  0
ARC
  5
572
330
1F
100
AcDbEntity
  8
0
  6
Continuous
 62
     7
370
    25
100
AcDbCircle
 10
1.3797703116
 20
6.0669856871
 30
0.0
 40
0.250000000000043
100
AcDbArc
 50
316.0191463996
 51
333.8913607907
  0
ARC
  5
573
330
1F
100
AcDbEntity
  8
0
  6
Continuous
 62
     7
370
    25
100
AcDbCircle
 10
1.7808797481
 20
5.891289835
 30
0.0
 40
0.1875000000000177
100
AcDbArc
 50
127.1411650865
 51
153.8913607907
  0
ARC
  5
574
330
1F
100
AcDbEntity
  8
0
  6
Continuous
 62
     7
370
    25
100
AcDbCircle
 10
0.0
 20
0.0000000002
 30
0.0
 40
6.266725884083013
100
AcDbArc
 50
73.9763741817
 51
74.5667729865
  0
ARC
  5
575
330
1F
100
AcDbEntity
  8
0
  6
Continuous
 62
     7
370
    25
100
AcDbCircle
 10
1.555256978
 20
5.9548303359
 30
0.0
 40
0.1875000000000522
100
AcDbArc
 50
354.6517863776
 51
21.4019820818
  0
ARC
  5
576
330
1F
100
AcDbEntity
  8
0
  6
Continuous
 62
     7
370
    25
100
AcDbCircle
 10
1.9891047147
 20
5.8953832678
 30
0.0
 40
0.2500000000000256
100
AcDbArc
 50
174.6517863775
 51
192.5240007686
  0
ARC
  5
577
330
1F
100
AcDbEntity
  8
0
  6
Continuous
 62
     7
370
    25
100
AcDbCircle
 10
1.8460906446
 20
5.8636149541
 30
0.0
 40
0.1035000000000004
100
AcDbArc
 50
192.5240007686
 51
312.5240007686
  0
ARC
  5
578
330
1F
100
AcDbEntity
  8
0
  6
Continuous
 62
     7
370
    25
100
AcDbCircle
 10
1.7470714428
 20
5.971584615
 30
0.0
 40
0.2499999999999098
100
AcDbArc
 50
312.5240007686
 51
330.3962151596
  0
ARC
  5
579
330
1F
100
AcDbEntity
  8
0
  6
Continuous
 62
     7
370
    25
100
AcDbCircle
 10
2.1367236855
 20
5.7717623382
 30
0.0
 40
0.1875000000000284
100
AcDbArc
 50
123.6460194554
 51
150.3962151596
  0
ARC
  5
57A
330
1F
100
AcDbEntity
  8
0
  6
Continuous
 62
     7
370
    25
100
AcDbCircle
 10
0.0
 20
0.0
 30
0.0
 40
6.266725884218125
100
AcDbArc
 50
70.4812285507
 51
71.0716273554
  0
ARC
  5
57B
330
1F
100
AcDbEntity
  8
0
  6
Continuous
 62
     7
370
    25
100
AcDbCircle
 10
1.9153942625
 20
5.8489395121
 30
0.0
 40
0.187500000000053
100
AcDbArc
 50
351.1566407465
 51
17.9068364507
  0
ARC
  5
57C
330
1F
100
AcDbEntity
  8
0
  6
Continuous
 62
     7
370
    25
100
AcDbCircle
 10
2.3448108987
 20
5.7631539359
 30
0.0
 40
0.2499999999999894
100
AcDbArc
 50
171.1566407465
 51
189.0288551375
  0
ARC
  5
57D
330
1F
100
AcDbEntity
  8
0
  6
Continuous
 62
     7
370
    25
100
AcDbCircle
 10
2.2001261169
 20
5.7401634182
 30
0.0
 40
0.1035000000000012
100
AcDbArc
 50
189.0288551375
 51
309.0288551375
  0
ARC
  5
57E
330
1F
100
AcDbEntity
  8
0
  6
Continuous
 62
     7
370
    25
100
AcDbCircle
 10
2.1078733535
 20
5.8539688559
 30
0.0
 40
0.2499999999999777
100
AcDbArc
 50
309.0288551375
 51
326.9010695285
  0
ARC
  5
57F
330
1F
100
AcDbEntity
  8
0
  6
Continuous
 62
     7
370
    25
100
AcDbCircle
 10
2.4846188704
 20
5.6307635065
 30
0.0
 40
0.1875000000000046
100
AcDbArc
 50
120.1508738243
 51
146.9010695285
  0
ARC
  5
580
330
1F
100
AcDbEntity
  8
0
  6
Continuous
 62
     7
370
    25
100
AcDbCircle
 10
0.0
 20
0.0000000001
 30
0.0
 40
6.266725884166946
100
AcDbArc
 50
66.9860829196
 51
67.5764817243
  0
ARC
  5
581
330
1F
100
AcDbEntity
  8
0
  6
Continuous
 62
     7
370
    25
100
AcDbCircle
 10
2.2684061546
 20
5.7212902491
 30
0.0
 40
0.18750000000005
100
AcDbArc
 50
347.6614951154
 51
14.4116908196
  0
ARC
  5
582
330
1F
100
AcDbEntity
  8
0
  6
Continuous
 62
     7
370
    25
100
AcDbCircle
 10
2.6917942322
 20
5.6094852929
 30
0.0
 40
0.2499999999999868
100
AcDbArc
 50
167.6614951154
 51
185.5337095064
  0
ARC
  5
583
330
1F
100
AcDbEntity
  8
0
  6
Continuous
 62
     7
370
    25
100
AcDbCircle
 10
2.5459769755
 20
5.5953580973
 30
0.0
 40
0.103500000000001
100
AcDbArc
 50
185.5337095064
 51
305.5337095064
  0
ARC
  5
584
330
1F
100
AcDbEntity
  8
0
  6
Continuous
 62
     7
370
    25
100
AcDbCircle
 10
2.4608338369
 20
5.7145759481
 30
0.0
 40
0.2499999999999891
100
AcDbArc
 50
305.5337095064
 51
323.4059238975
  0
ARC
  5
585
330
1F
100
AcDbEntity
  8
0
  6
Continuous
 62
     7
370
    25
100
AcDbCircle
 10
2.82327111
 20
5.4688178646
 30
0.0
 40
0.187500000000022
100
AcDbArc
 50
116.6557281933
 51
143.4059238975
  0
ARC
  5
586
330
1F
100
AcDbEntity
  8
0
  6
Continuous
 62
     7
370
    25
100
AcDbCircle
 10
0.0
 20
0.0
 30
0.0
 40
6.26672588419196
100
AcDbArc
 50
63.4909372885
 51
64.0813360933
  0
ARC
  5
587
330
1F
100
AcDbEntity
  8
0
  6
Continuous
 62
     7
370
    25
100
AcDbCircle
 10
2.6129794268
 20
5.5723574107
 30
0.0
 40
0.1875000000000232
100
AcDbArc
 50
344.1663494843
 51
10.9165451886
  0
ARC
  5
588
330
1F
100
AcDbEntity
  8
0
  6
Continuous
 62
     7
370
    25
100
AcDbCircle
 10
3.0287639144
 20
5.4349489962
 30
0.0
 40
0.2499999999999928
100
AcDbArc
 50
164.1663494843
 51
182.0385638754
  0
ARC
  5
589
330
1F
100
AcDbEntity
  8
0
  6
Continuous
 62
     7
370
    25
100
AcDbCircle
 10
2.8823566326
 20
5.4297376769
 30
0.0
 40
0.1035000000000001
100
AcDbArc
 50
182.0385638754
 51
302.0385638754
  0
ARC
  5
58A
330
1F
100
AcDbEntity
  8
0
  6
Continuous
 62
     7
370
    25
100
AcDbCircle
 10
2.8046398569
 20
5.5539244425
 30
0.0
 40
0.2500000000000096
100
AcDbArc
 50
302.0385638754
 51
319.9107782664
  0
ARC
  5
58B
330
1F
100
AcDbEntity
  8
0
  6
Continuous
 62
     7
370
    25
100
AcDbCircle
 10
3.1514205956
 20
5.2865278611
 30
0.0
 40
0.1875000000000188
100
AcDbArc
 50
113.1605825622
 51
139.9107782664
  0
ARC
  5
58C
330
1F
100
AcDbEntity
  8
0
  6
Continuous
 62
     7
370
    25
100
AcDbCircle
 10
0.0
 20
0.0000000001
 30
0.0
 40
6.266725884170159
100
AcDbArc
 50
59.9957916575
 51
60.5861904622
  0
ARC
  5
58D
330
1F
100
AcDbEntity
  8
0
  6
Continuous
 62
     7
370
    25
100
AcDbCircle
 10
2.9478322439
 20
5.4026950366
 30
0.0
 40
0.1875000000000702
100
AcDbArc
 50
340.6712038533
 51
7.4213995575
  0
ARC
  5
58E
330
1F
100
AcDbEntity
  8
0
  6
Continuous
 62
     7
370
    25
100
AcDbCircle
 10
3.3544663958
 20
5.2401943322
 30
0.0
 40
0.2500000000000048
100
AcDbArc
 50
160.6712038533
 51
178.5434182443
  0
ARC
  5
58F
330
1F
100
AcDbEntity
  8
0
  6
Continuous
 62
     7
370
    25
100
AcDbCircle
 10
3.2080137337
 20
5.2439182757
 30
0.0
 40
0.1035000000000003
100
AcDbArc
 50
178.5434182443
 51
298.5434182443
  0
ARC
  5
590
330
1F
100
AcDbEntity
  8
0
  6
Continuous
 62
     7
370
    25
100
AcDbCircle
 10
3.1380124323
 20
5.3726119732
 30
0.0
 40
0.2499999999999721
100
AcDbArc
 50
298.5434182443
 51
316.4156326353
  0
ARC
  5
591
330
1F
100
AcDbEntity
  8
0
  6
Continuous
 62
     7
370
    25
100
AcDbCircle
 10
3.4678465896
 20
5.0845716268
 30
0.0
 40
0.1875000000000167
100
AcDbArc
 50
109.6654369311
 51
136.4156326353
  0
ARC
  5
592
330
1F
100
AcDbEntity
  8
0
  6
Continuous
 62
     7
370
    25
100
AcDbCircle
 10
0.0
 20
0.0
 30
0.0
 40
6.266725884243153
100
AcDbArc
 50
56.5006460264
 51
57.0910448311
  0
ARC
  5
593
330
1F
100
AcDbEntity
  8
0
  6
Continuous
 62
     7
370
    25
100
AcDbCircle
 10
3.2717189314
 20
5.2129342822
 30
0.0
 40
0.187500000000062
100
AcDbArc
 50
337.1760582222
 51
3.9262539264
  0
ARC
  5
594
330
1F
100
AcDbEntity
  8
0
  6
Continuous
 62
     7
370
    25
100
AcDbCircle
 10
3.667690042
 20
5.0259458011
 30
0.0
 40
0.2500000000000216
100
AcDbArc
 50
157.1760582222
 51
175.0482726132
  0
ARC
  5
595
330
1F
100
AcDbEntity
  8
0
  6
Continuous
 62
     7
370
    25
100
AcDbCircle
 10
3.521736813
 20
5.038591154
 30
0.0
 40
0.1035000000000005
100
AcDbArc
 50
175.0482726132
 51
295.0482726132
  0
ARC
  5
596
330
1F
100
AcDbEntity
  8
0
  6
Continuous
 62
     7
370
    25
100
AcDbCircle
 10
3.4597113954
 20
5.1713130345
 30
0.0
 40
0.2499999999999865
100
AcDbArc
 50
295.0482726132
 51
312.9204870043
  0
ARC
  5
597
330
1F
100
AcDbEntity
  8
0
  6
Continuous
 62
     7
370
    25
100
AcDbCircle
 10
3.7713719665
 20
4.863700452
 30
0.0
 40
0.1875000000000132
100
AcDbArc
 50
106.1702913001
 51
132.9204870043
  0
ARC
  5
598
330
1F
100
AcDbEntity
  8
0
  6
Continuous
 62
     7
370
    25
100
AcDbCircle
 10
0.0
 20
0.0
 30
0.0
 40
6.26672588422349
100
AcDbArc
 50
53.0055003953
 51
53.5958992001
  0
ARC
  5
599
330
1F
100
AcDbEntity
  8
0
  6
Continuous
 62
     7
370
    25
100
AcDbCircle
 10
3.5834346096
 20
5.0037810699
 30
0.0
 40
0.1875000000000362
100
AcDbArc
 50
333.6809125911
 51
0.4311082954
  0
ARC
  5
59A
330
1F
100
AcDbEntity
  8
0
  6
Continuous
 62
     7
370
    25
100
AcDbCircle
 10
3.9672696403
 20
4.7930004216
 30
0.0
 40
0.2500000000000263
100
AcDbArc
 50
153.6809125911
 51
171.5531269822
  0
ARC
  5
59B
330
1F
100
AcDbEntity
  8
0
  6
Continuous
 62
     7
370
    25
100
AcDbCircle
 10
3.8223588001
 20
4.8145201423
 30
0.0
 40
0.1035000000000012
100
AcDbArc
 50
171.5531269822
 51
291.5531269822
  0
ARC
  5
59C
330
1F
100
AcDbEntity
  8
0
  6
Continuous
 62
     7
370
    25
100
AcDbCircle
 10
3.7685400048
 20
4.9507764717
 30
0.0
 40
0.2499999999999838
100
AcDbArc
 50
291.5531269822
 51
309.4253413732
  0
ARC
  5
59D
330
1F
100
AcDbEntity
  8
0
  6
Continuous
 62
     7
370
    25
100
AcDbCircle
 10
4.060867592
 20
4.6247359922
 30
0.0
 40
0.187500000000044
100
AcDbArc
 50
102.675145669
 51
129.4253413732
  0
ARC
  5
59E
330
1F
100
AcDbEntity
  8
0
  6
Continuous
 62
     7
370
    25
100
AcDbCircle
 10
0.0000000001
 20
0.0000000001
 30
0.0
 40
6.266725884147233
100
AcDbArc
 50
49.5103547643
 51
50.100753569
  0
ARC
  5
59F
330
1F
100
AcDbEntity
  8
0
  6
Continuous
 62
     7
370
    25
100
AcDbCircle
 10
3.8818196757
 20
4.7760134634
 30
0.0
 40
0.1875000000000559
100
AcDbArc
 50
330.1857669601
 51
356.9359626643
  0
ARC
  5
5A0
330
1F
100
AcDbEntity
  8
0
  6
Continuous
 62
     7
370
    25
100
AcDbCircle
 10
4.252090735
 20
4.5422247657
 30
0.0
 40
0.2500000000000397
100
AcDbArc
 50
150.1857669601
 51
168.0579813511
  0
ARC
  5
5A1
330
1F
100
AcDbEntity
  8
0
  6
Continuous
 62
     7
370
    25
100
AcDbCircle
 10
4.1087613613
 20
4.5725387995
 30
0.0
 40
0.1034999999999998
100
AcDbArc
 50
168.0579813511
 51
288.0579813511
  0
ARC
  5
5A2
330
1F
100
AcDbEntity
  8
0
  6
Continuous
 62
     7
370
    25
100
AcDbCircle
 10
4.0633493979
 20
4.7118226951
 30
0.0
 40
0.2500000000000073
100
AcDbArc
 50
288.0579813511
 51
305.9301957421
  0
ARC
  5
5A3
330
1F
100
AcDbEntity
  8
0
  6
Continuous
 62
     7
370
    25
100
AcDbCircle
 10
4.3352565233
 20
4.3685672106
 30
0.0
 40
0.1875000000000211
100
AcDbArc
 50
99.1800000379
 51
125.9301957421
  0
ARC
  5
5A4
330
1F
100
AcDbEntity
  8
0
  6
Continuous
 62
     7
370
    25
100
AcDbCircle
 10
0.0
 20
0.0
 30
0.0
 40
6.266725884265965
100
AcDbArc
 50
46.0152091332
 51
46.6056079379
  0
ARC
  5
5A5
330
1F
100
AcDbEntity
  8
0
  6
Continuous
 62
     7
370
    25
100
AcDbCircle
 10
4.1657641177
 20
4.530478773
 30
0.0
 40
0.1875000000000685
100
AcDbArc
 50
326.690621329
 51
353.4408170332
  0
ARC
  5
5A6
330
1F
100
AcDbEntity
  8
0
  6
Continuous
 62
     7
370
    25
100
AcDbCircle
 10
4.5210937728
 20
4.2745517353
 30
0.0
 40
0.250000000000024
100
AcDbArc
 50
146.690621329
 51
164.56283572
  0
ARC
  5
5A7
330
1F
100
AcDbEntity
  8
0
  6
Continuous
 62
     7
370
    25
100
AcDbCircle
 10
4.3798790605
 20
4.313547312
 30
0.0
 40
0.1035000000000012
100
AcDbArc
 50
164.56283572
 51
284.56283572
  0
ARC
  5
5A8
330
1F
100
AcDbEntity
  8
0
  6
Continuous
 62
     7
370
    25
100
AcDbCircle
 10
4.3430428644
 20
4.4553406287
 30
0.0
 40
0.2499999999999426
100
AcDbArc
 50
284.56283572
 51
302.4350501111
  0
ARC
  5
5A9
330
1F
100
AcDbEntity
  8
0
  6
Continuous
 62
     7
370
    25
100
AcDbCircle
 10
4.5935180157
 20
4.0961470722
 30
0.0
 40
0.1875000000000074
100
AcDbArc
 50
95.6848544068
 51
122.4350501111
  0
ARC
  5
5AA
330
1F
100
AcDbEntity
  8
0
  6
Continuous
 62
     7
370
    25
100
AcDbCircle
 10
-0.0000000001
 20
-0.0000000001
 30
0.0
 40
6.266725884321078
100
AcDbArc
 50
42.5200635021
 51
43.1104623069
  0
ARC
  5
5AB
330
1F
100
AcDbEntity
  8
0
  6
Continuous
 62
     7
370
    25
100
AcDbCircle
 10
4.4342116435
 20
4.2680904041
 30
0.0
 40
0.187500000000056
100
AcDbArc
 50
323.1954756979
 51
349.9456714021
  0
ARC
  5
5AC
330
1F
100
AcDbEntity
  8
0
  6
Continuous
 62
     7
370
    25
100
AcDbCircle
 10
4.7732780449
 20
3.9909770917
 30
0.0
 40
0.2500000000000805
100
AcDbArc
 50
143.1954756979
 51
161.067690089
  0
ARC
  5
5AD
330
1F
100
AcDbEntity
  8
0
  6
Continuous
 62
     7
370
    25
100
AcDbCircle
 10
4.6347033218
 20
4.0385091453
 30
0.0
 40
0.1035000000000002
100
AcDbArc
 50
161.067690089
 51
281.067690089
  0
ARC
  5
5AE
330
1F
100
AcDbEntity
  8
0
  6
Continuous
 62
     7
370
    25
100
AcDbCircle
 10
4.6065799262
 20
4.1822844026
 30
0.0
 40
0.2499999999999804
100
AcDbArc
 50
281.067690089
 51
298.93990448
  0
ARC
  5
5AF
330
1F
100
AcDbEntity
  8
0
  6
Continuous
 62
     7
370
    25
100
AcDbCircle
 10
4.8346913193
 20
3.8084889975
 30
0.0
 40
0.1874999999999979
100
AcDbArc
 50
92.1897087758
 51
118.93990448
  0
ARC
  5
5B0
330
1F
100
AcDbEntity
  8
0
  6
Continuous
 62
     7
370
    25
100
AcDbCircle
 10
0.0
 20
0.0
 30
0.0
 40
6.266725884198759
100
AcDbArc
 50
39.0249178711
 51
39.6153166758
  0
ARC
  5
5B1
330
1F
100
AcDbEntity
  8
0
  6
Continuous
 62
     7
370
    25
100
AcDbCircle
 10
4.6861636108
 20
3.9898244586
 30
0.0
 40
0.1875000000000703
100
AcDbArc
 50
319.7003300669
 51
346.4505257711
  0
ARC
  5
5B2
330
1F
100
AcDbEntity
  8
0
  6
Continuous
 62
     7
370
    25
100
AcDbCircle
 10
5.0077054091
 20
3.6925557512
 30
0.0
 40
0.2499999999999893
100
AcDbArc
 50
139.7003300669
 51
157.5725444579
  0
ARC
  5
5B3
330
1F
100
AcDbEntity
  8
0
  6
Continuous
 62
     7
370
    25
100
AcDbCircle
 10
4.8722861824
 20
3.7484474592
 30
0.0
 40
0.1035000000000006
100
AcDbArc
 50
157.5725444579
 51
277.5725444579
  0
ARC
  5
5B4
330
1F
100
AcDbEntity
  8
0
  6
Continuous
 62
     7
370
    25
100
AcDbCircle
 10
4.852980208
 20
3.8936698037
 30
0.0
 40
0.2500000000000064
100
AcDbArc
 50
277.5725444579
 51
295.4447588489
  0
ARC
  5
5B5
330
1F
100
AcDbEntity
  8
0
  6
Continuous
 62
     7
370
    25
100
AcDbCircle
 10
5.0578792536
 20
3.5066630937
 30
0.0
 40
0.1875000000000043
100
AcDbArc
 50
88.6945631447
 51
115.4447588489
  0
ARC
  5
5B6
330
1F
100
AcDbEntity
  8
0
  6
Continuous
 62
     7
370
    25
100
AcDbCircle
 10
0.0
 20
0.0
 30
0.0
 40
6.266725884238298
100
AcDbArc
 50
35.52977224
 51
36.1201710447
  0
ARC
  5
5B7
330
1F
100
AcDbEntity
  8
0
  6
Continuous
 62
     7
370
    25
100
AcDbCircle
 10
4.9206827416
 20
3.696716104
 30
0.0
 40
0.1875000000000322
100
AcDbArc
 50
316.2051844358
 51
342.95538014
  0
ARC
  5
5B8
330
1F
100
AcDbEntity
  8
0
  6
Continuous
 62
     7
370
    25
100
AcDbCircle
 10
5.2235037804
 20
3.3803978607
 30
0.0
 40
0.2500000000001114
100
AcDbArc
 50
136.2051844358
 51
154.0773988268
  0
ARC
  5
5B9
330
1F
100
AcDbEntity
  8
0
  6
Continuous
 62
     7
370
    25
100
AcDbCircle
 10
5.0917438184
 20
3.4444413024
 30
0.0
 40
0.1034999999999998
100
AcDbArc
 50
154.0773988268
 51
274.0773988268
  0
ARC
  5
5BA
330
1F
100
AcDbEntity
  8
0
  6
Continuous
 62
     7
370
    25
100
AcDbCircle
 10
5.0813270848
 20
3.5905704975
 30
0.0
 40
0.2500000000000052
100
AcDbArc
 50
274.0773988268
 51
291.9496132179
  0
ARC
  5
5BB
330
1F
100
AcDbEntity
  8
0
  6
Continuous
 62
     7
370
    25
100
AcDbCircle
 10
5.262251545
 20
3.1917921728
 30
0.0
 40
0.1875000000000216
100
AcDbArc
 50
85.1994175136
 51
111.9496132179
  0
ARC
  5
5BC
330
1F
100
AcDbEntity
  8
0
  6
Continuous
 62
     7
370
    25
100
AcDbCircle
 10
0.0
 20
0.0
 30
0.0
 40
6.266725884201852
100
AcDbArc
 50
32.0346266089
 51
32.6250254137
  0
ARC
  5
5BD
330
1F
100
AcDbEntity
  8
0
  6
Continuous
 62
     7
370
    25
100
AcDbCircle
 10
5.1368966095
 20
3.3898557227
 30
0.0
 40
0.187500000000048
100
AcDbArc
 50
312.7100388047
 51
339.4602345089
  0
ARC
  5
5BE
330
1F
100
AcDbEntity
  8
0
  6
Continuous
 62
     7
370
    25
100
AcDbCircle
 10
5.4198703744
 20
3.0556646682
 30
0.0
 40
0.250000000000027
100
AcDbArc
 50
132.7100388047
 51
150.5822531958
  0
ARC
  5
5BF
330
1F
100
AcDbEntity
  8
0
  6
Continuous
 62
     7
370
    25
100
AcDbCircle
 10
5.2922598329
 20
3.1276215977
 30
0.0
 40
0.1035000000000007
100
AcDbArc
 50
150.5822531958
 51
270.5822531958
  0
ARC
  5
5C0
330
1F
100
AcDbEntity
  8
0
  6
Continuous
 62
     7
370
    25
100
AcDbCircle
 10
5.2907710911
 20
3.2741140332
 30
0.0
 40
0.2500000000000622
100
AcDbArc
 50
270.5822531958
 51
288.4544675868
  0
ARC
  5
5C1
330
1F
100
AcDbEntity
  8
0
  6
Continuous
 62
     7
370
    25
100
AcDbCircle
 10
5.4470479149
 20
2.8650475754
 30
0.0
 40
0.1875000000000347
100
AcDbArc
 50
81.7042718826
 51
108.4544675868
  0
ARC
  5
5C2
330
1F
100
AcDbEntity
  8
0
  6
Continuous
 62
     7
370
    25
100
AcDbCircle
 10
0.0000000001
 20
0.0000000001
 30
0.0
 40
6.26672588413755
100
AcDbArc
 50
28.5394809779
 51
29.1298797826
  0
ARC
  5
5C3
330
1F
100
AcDbEntity
  8
0
  6
Continuous
 62
     7
370
    25
100
AcDbCircle
 10
5.3340008846
 20
3.0703848554
 30
0.0
 40
0.1875000000000512
100
AcDbArc
 50
309.2148931737
 51
335.9650888779
  0
ARC
  5
5C4
330
1F
100
AcDbEntity
  8
0
  6
Continuous
 62
     7
370
    25
100
AcDbCircle
 10
5.5960746947
 20
2.7195642025
 30
0.0
 40
0.2499999999999357
100
AcDbArc
 50
129.2148931737
 51
147.0871075647
  0
ARC
  5
5C5
330
1F
100
AcDbEntity
  8
0
  6
Continuous
 62
     7
370
    25
100
AcDbCircle
 10
5.4730882933
 20
2.7991669352
 30
0.0
 40
0.1035000000000008
100
AcDbArc
 50
147.0871075647
 51
267.0871075647
  0
ARC
  5
5C6
330
1F
100
AcDbEntity
  8
0
  6
Continuous
 62
     7
370
    25
100
AcDbCircle
 10
5.4805330814
 20
2.9454776496
 30
0.0
 40
0.2499999999999593
100
AcDbArc
 50
267.0871075647
 51
284.9593219557
  0
ARC
  5
5C7
330
1F
100
AcDbEntity
  8
0
  6
Continuous
 62
     7
370
    25
100
AcDbCircle
 10
5.6115809089
 20
2.5276448129
 30
0.0
 40
0.1875000000000095
100
AcDbArc
 50
78.2091262515
 51
104.9593219557
  0
ARC
  5
5C8
330
1F
100
AcDbEntity
  8
0
  6
Continuous
 62
     7
370
    25
100
AcDbCircle
 10
0.0000000001
 20
0.0
 30
0.0
 40
6.266725884185965
100
AcDbArc
 50
25.0443353468
 51
25.6347341515
  0
ARC
  5
5C9
330
1F
100
AcDbEntity
  8
0
  6
Continuous
 62
     7
370
    25
100
AcDbCircle
 10
5.511262326
 20
2.7394919548
 30
0.0
 40
0.1875000000000879
100
AcDbArc
 50
305.7197475426
 51
332.4699432468
  0
ARC
  5
5CA
330
1F
100
AcDbEntity
  8
0
  6
Continuous
 62
     7
370
    25
100
AcDbCircle
 10
5.7514612496
 20
2.3733467792
 30
0.0
 40
0.2500000000000221
100
AcDbArc
 50
125.7197475426
 51
143.5919619336
  0
ARC
  5
5CB
330
1F
100
AcDbEntity
  8
0
  6
Continuous
 62
     7
370
    25
100
AcDbCircle
 10
5.6335565057
 20
2.4602991879
 30
0.0
 40
0.1035000000000015
100
AcDbArc
 50
143.5919619336
 51
263.5919619336
  0
ARC
  5
5CC
330
1F
100
AcDbEntity
  8
0
  6
Continuous
 62
     7
370
    25
100
AcDbCircle
 10
5.6499071287
 20
2.6058838957
 30
0.0
 40
0.2499999999999914
100
AcDbArc
 50
263.5919619336
 51
281.4641763247
  0
ARC
  5
5CD
330
1F
100
AcDbEntity
  8
0
  6
Continuous
 62
     7
370
    25
100
AcDbCircle
 10
5.7552384533
 20
2.1808390456
 30
0.0
 40
0.1875000000000152
100
AcDbArc
 50
74.7139806204
 51
101.4641763247
  0
ARC
  5
5CE
330
1F
100
AcDbEntity
  8
0
  6
Continuous
 62
     7
370
    25
100
AcDbCircle
 10
0.0
 20
0.0
 30
0.0
 40
6.266725884212383
100
AcDbArc
 50
21.5491897157
 51
22.1395885205
  0
ARC
  5
5CF
330
1F
100
AcDbEntity
  8
0
  6
Continuous
 62
     7
370
    25
100
AcDbCircle
 10
5.6680215096
 20
2.3984079643
 30
0.0
 40
0.1875000000000613
100
AcDbArc
 50
302.2246019115
 51
328.9747976157
  0
ARC
  5
5D0
330
1F
100
AcDbEntity
  8
0
  6
Continuous
 62
     7
370
    25
100
AcDbCircle
 10
5.8854519909
 20
2.0183003501
 30
0.0
 40
0.2500000000000293
100
AcDbArc
 50
122.2246019115
 51
140.0968163026
  0
ARC
  5
5D1
330
1F
100
AcDbEntity
  8
0
  6
Continuous
 62
     7
370
    25
100
AcDbCircle
 10
5.773067518
 20
2.1122789661
 30
0.0
 40
0.1035000000000011
100
AcDbArc
 50
140.0968163026
 51
260.0968163026
  0
ARC
  5
5D2
330
1F
100
AcDbEntity
  8
0
  6
Continuous
 62
     7
370
    25
100
AcDbCircle
 10
5.7982631503
 20
2.2565960825
 30
0.0
 40
0.2499999999999802
100
AcDbArc
 50
260.0968163026
 51
277.9690306936
  0
ARC
  5
5D3
330
1F
100
AcDbEntity
  8
0
  6
Continuous
 62
     7
370
    25
100
AcDbCircle
 10
5.8774861326
 20
1.8259204139
 30
0.0
 40
0.1875000000000036
100
AcDbArc
 50
71.2188349894
 51
97.9690306936
  0
ARC
  5
5D4
330
1F
100
AcDbEntity
  8
0
  6
Continuous
 62
     7
370
    25
100
AcDbCircle
 10
0.0000000001
 20
0.0
 30
0.0
 40
6.266725884139468
100
AcDbArc
 50
18.0540440847
 51
18.6444428894
  0
ARC
  5
5D5
330
1F
100
AcDbEntity
  8
0
  6
Continuous
 62
     7
370
    25
100
AcDbCircle
 10
5.803695281
 20
2.0484017386
 30
0.0
 40
0.1875000000000621
100
AcDbArc
 50
298.7294562805
 51
325.4796519847
  0
ARC
  5
5D6
330
1F
100
AcDbEntity
  8
0
  6
Continuous
 62
     7
370
    25
100
AcDbCircle
 10
5.9975484642
 20
1.6557457111
 30
0.0
 40
0.2499999999999896
100
AcDbArc
 50
118.7294562805
 51
136.6016706715
  0
ARC
  5
5D7
330
1F
100
AcDbEntity
  8
0
  6
Continuous
 62
     7
370
    25
100
AcDbCircle
 10
5.8911023399
 20
1.7564009277
 30
0.0
 40
0.1035000000000002
100
AcDbArc
 50
136.6016706715
 51
256.6016706715
  0
ARC
  5
5D8
330
1F
100
AcDbEntity
  8
0
  6
Continuous
 62
     7
370
    25
100
AcDbCircle
 10
5.9250492522
 20
1.8989135838
 30
0.0
 40
0.249999999999986
100
AcDbArc
 50
256.6016706715
 51
274.4738850625
  0
ARC
  5
5D9
330
1F
100
AcDbEntity
  8
0
  6
Continuous
 62
     7
370
    25
100
AcDbCircle
 10
5.9778691775
 20
1.4642092383
 30
0.0
 40
0.1875000000000169
100
AcDbArc
 50
67.7236893583
 51
94.4738850625
  0
ARC
  5
5DA
330
1F
100
AcDbEntity
  8
0
  6
Continuous
 62
     7
370
    25
100
AcDbCircle
 10
0.0
 20
0.0
 30
0.0
 40
6.266725884229765
100
AcDbArc
 50
14.5588984536
 51
15.1492972583
  0
ARC
  5
5DB
330
1F
100
AcDbEntity
  8
0
  6
Continuous
 62
     7
370
    25
100
AcDbCircle
 10
5.9177789247
 20
1.6907753238
 30
0.0
 40
0.1875000000000787
100
AcDbArc
 50
295.2343106494
 51
321.9845063536
  0
ARC
  5
5DC
330
1F
100
AcDbEntity
  8
0
  6
Continuous
 62
     7
370
    25
100
AcDbCircle
 10
6.0873336633
 20
1.2870315894
 30
0.0
 40
0.2500000000000763
100
AcDbArc
 50
115.2343106494
 51
133.1065250404
  0
ARC
  5
5DD
330
1F
100
AcDbEntity
  8
0
  6
Continuous
 62
     7
370
    25
100
AcDbCircle
 10
5.9872218741
 20
1.3939889625
 30
0.0
 40
0.1035000000000004
100
AcDbArc
 50
133.1065250404
 51
253.1065250404
  0
ARC
  5
5DE
330
1F
100
AcDbEntity
  8
0
  6
Continuous
 62
     7
370
    25
100
AcDbCircle
 10
6.0297937818
 20
1.5341670017
 30
0.0
 40
0.2499999999999979
100
AcDbArc
 50
253.1065250404
 51
270.9787394315
  0
ARC
  5
5DF
330
1F
100
AcDbEntity
  8
0
  6
Continuous
 62
     7
370
    25
100
AcDbCircle
 10
6.0560141565
 20
1.0970511081
 30
0.0
 40
0.1875000000000274
100
AcDbArc
 50
64.2285437272
 51
90.9787394315
  0
ARC
  5
5E0
330
1F
100
AcDbEntity
  8
0
  6
Continuous
 62
     7
370
    25
100
AcDbCircle
 10
0.0
 20
0.0
 30
0.0
 40
6.266725884205739
100
AcDbArc
 50
11.0637528225
 51
11.6541516273
  0
ARC
  5
5E1
330
1F
100
AcDbEntity
  8
0
  6
Continuous
 62
     7
370
    25
100
AcDbCircle
 10
6.0098480421
 20
1.3268591138
 30
0.0
 40
0.1875000000000619
100
AcDbArc
 50
291.7391650183
 51
318.4893607225
  0
ARC
  5
5E2
330
1F
100
AcDbEntity
  8
0
  6
Continuous
 62
     7
370
    25
100
AcDbCircle
 10
6.1544735813
 20
0.9135296256
 30
0.0
 40
0.2500000000000225
100
AcDbArc
 50
111.7391650183
 51
129.6113794094
  0
ARC
  5
5E3
330
1F
100
AcDbEntity
  8
0
  6
Continuous
 62
     7
370
    25
100
AcDbCircle
 10
6.0610685498
 20
1.0263912668
 30
0.0
 40
0.1035000000000009
100
AcDbArc
 50
129.6113794094
 51
249.6113794094
  0
ARC
  5
5E4
330
1F
100
AcDbEntity
  8
0
  6
Continuous
 62
     7
370
    25
100
AcDbCircle
 10
6.1121070824
 20
1.1637132177
 30
0.0
 40
0.2500000000000022
100
AcDbArc
 50
249.6113794094
 51
267.4835938004
  0
ARC
  5
5E5
330
1F
100
AcDbEntity
  8
0
  6
Continuous
 62
     7
370
    25
100
AcDbCircle
 10
6.111630365
 20
0.7258118758
 30
0.0
 40
0.1875000000000183
100
AcDbArc
 50
60.7333980962
 51
87.4835938004
  0
ARC
  5
5E6
330
1F
100
AcDbEntity
  8
0
  6
Continuous
 62
     7
370
    25
100
AcDbCircle
 10
0.0000000001
 20
0.0
 30
0.0
 40
6.266725884138178
100
AcDbArc
 50
7.5686071914
 51
8.1590059962
  0
ARC
  5
5E7
330
1F
100
AcDbEntity
  8
0
  6
Continuous
 62
     7
370
    25
100
AcDbCircle
 10
6.0795601301
 20
0.9580069008
 30
0.0
 40
0.1875000000000342
100
AcDbArc
 50
288.2440193873
 51
314.9942150915
  0
ARC
  5
5E8
330
1F
100
AcDbEntity
  8
0
  6
Continuous
 62
     7
370
    25
100
AcDbCircle
 10
6.1987184534
 20
0.5366292715
 30
0.0
 40
0.249999999999996
100
AcDbArc
 50
108.2440193873
 51
126.1162337783
  0
ARC
  5
5E9
330
1F
100
AcDbEntity
  8
0
  6
Continuous
 62
     7
370
    25
100
AcDbCircle
 10
6.1123676523
 20
0.6549753282
 30
0.0
 40
0.1034999999999993
100
AcDbArc
 50
126.1162337783
 51
246.1162337783
  0
ARC
  5
5EA
330
1F
100
AcDbEntity
  8
0
  6
Continuous
 62
     7
370
    25
100
AcDbCircle
 10
6.1716829433
 20
0.788930344
 30
0.0
 40
0.249999999999965
100
AcDbArc
 50
246.1162337783
 51
263.9884481693
  0
ARC
  5
5EB
330
1F
100
AcDbEntity
  8
0
  6
Continuous
 62
     7
370
    25
100
AcDbCircle
 10
6.1445109071
 20
0.3518725756
 30
0.0
 40
0.1875000000000282
100
AcDbArc
 50
57.2382524651
 51
83.9884481693
  0
ARC
  5
5EC
330
1F
100
AcDbEntity
  8
0
  6
Continuous
 62
     7
370
    25
100
AcDbCircle
 10
0.0
 20
0.0
 30
0.0
 40
6.266725884195057
100
AcDbArc
 50
4.0734615604
 51
4.6638603651
  0
ARC
  5
5ED
330
1F
100
AcDbEntity
  8
0
  6
Continuous
 62
     7
370
    25
100
AcDbCircle
 10
6.126655855
 20
0.5855908392
 30
0.0
 40
0.187500000000058
100
AcDbArc
 50
284.7488737562
 51
311.4990694604
  0
ARC
  5
5EE
330
1F
100
AcDbEntity
  8
0
  6
Continuous
 62
     7
370
    25
100
AcDbCircle
 10
6.2199036858
 20
0.1577326214
 30
0.0
 40
0.2500000000000121
100
AcDbArc
 50
104.7488737562
 51
122.6210881472
  0
ARC
  5
5EF
330
1F
100
AcDbEntity
  8
0
  6
Continuous
 62
     7
370
    25
100
AcDbCircle
 10
6.1409283457
 20
0.2811228384
 30
0.0
 40
0.1035000000000006
100
AcDbArc
 50
122.6210881472
 51
242.6210881472
  0
ARC
  5
5F0
330
1F
100
AcDbEntity
  8
0
  6
Continuous
 62
     7
370
    25
100
AcDbCircle
 10
6.2082997382
 20
0.4112125977
 30
0.0
 40
0.2500000000000011
100
AcDbArc
 50
242.6210881472
 51
260.4933025383
  0
ARC
  5
5F1
330
1F
100
AcDbEntity
  8
0
  6
Continuous
 62
     7
370
    25
100
AcDbCircle
 10
6.1545334651
 20
-0.0233757137
 30
0.0
 40
0.1875000000000189
100
AcDbArc
 50
53.743106834
 51
80.4933025382
  0
ARC
  5
5F2
330
1F
100
AcDbEntity
  8
0
  6
Continuous
 62
     7
370
    25
100
AcDbCircle
 10
0.0
 20
0.0
 30
0.0
 40
6.266725884196384
100
AcDbArc
 50
0.5783159293
 51
1.1687147341
  0
ARC
  5
5F3
330
1F
100
AcDbEntity
  8
0
  6
Continuous
 62
     7
370
    25
100
AcDbCircle
 10
6.1509600178
 20
0.2109963412
 30
0.0
 40
0.1875000000000496
100
AcDbArc
 50
281.2537281251
 51
308.0039238293
  0
ARC
  5
5F4
330
1F
100
AcDbEntity
  8
0
  6
Continuous
 62
     7
370
    25
100
AcDbCircle
 10
6.2179504679
 20
-0.2217508045
 30
0.0
 40
0.2500000000000163
100
AcDbArc
 50
101.2537281251
 51
119.1259425162
  0
ARC
  5
5F5
330
1F
100
AcDbEntity
  8
0
  6
Continuous
 62
     7
370
    25
100
AcDbCircle
 10
6.1466443823
 20
-0.0937754469
 30
0.0
 40
0.1035000000000003
100
AcDbArc
 50
119.1259425162
 51
239.1259425162
  0
ARC
  5
5F6
330
1F
100
AcDbEntity
  8
0
  6
Continuous
 62
     7
370
    25
100
AcDbCircle
 10
6.2218212504
 20
0.0319651135
 30
0.0
 40
0.2500000000000011
100
AcDbArc
 50
239.1259425162
 51
256.9981569072
  0
ARC
  5
5F7
330
1F
100
AcDbEntity
  8
0
  6
Continuous
 62
     7
370
    25
100
AcDbCircle
 10
6.1416607544
 20
-0.3985370438
 30
0.0
 40
0.1875000000000102
100
AcDbArc
 50
50.247961203
 51
76.9981569072
  0
ARC
  5
5F8
330
1F
100
AcDbEntity
  8
0
  6
Continuous
 62
     7
370
    25
100
AcDbCircle
 10
0.0000000001
 20
0.0
 30
0.0
 40
6.266725884167688
100
AcDbArc
 50
357.0831702982
 51
357.673569103
  0
ARC
  5
5F9
330
1F
100
AcDbEntity
  8
0
  6
Continuous
 62
     7
370
    25
100
AcDbCircle
 10
6.1523822054
 20
-0.1643830771
 30
0.0
 40
0.1875000000000549
100
AcDbArc
 50
277.7585824941
 51
304.5087781983
  0
ARC
  5
5FA
330
1F
100
AcDbEntity
  8
0
  6
Continuous
 62
     7
370
    25
100
AcDbCircle
 10
6.1928660658
 20
-0.6004093028
 30
0.0
 40
0.2500000000000144
100
AcDbArc
 50
97.7585824941
 51
115.6307968851
  0
ARC
  5
5FB
330
1F
100
AcDbEntity
  8
0
  6
Continuous
 62
     7
370
    25
100
AcDbCircle
 10
6.1294944982
 20
-0.4683248813
 30
0.0
 40
0.1035000000000002
100
AcDbArc
 50
115.6307968851
 51
235.6307968851
  0
ARC
  5
5FC
330
1F
100
AcDbEntity
  8
0
  6
Continuous
 62
     7
370
    25
100
AcDbCircle
 10
6.2121971788
 20
-0.3474012831
 30
0.0
 40
0.250000000000005
100
AcDbArc
 50
235.6307968851
 51
253.5030112761
  0
ARC
  5
5FD
330
1F
100
AcDbEntity
  8
0
  6
Continuous
 62
     7
370
    25
100
AcDbCircle
 10
6.1059406622
 20
-0.7722157899
 30
0.0
 40
0.1875000000000223
100
AcDbArc
 50
46.7528155719
 51
73.5030112761
  0
ARC
  5
5FE
330
1F
100
AcDbEntity
  8
0
  6
Continuous
 62
     7
370
    25
100
AcDbCircle
 10
0.0000000001
 20
0.0
 30
0.0
 40
6.266725884153844
100
AcDbArc
 50
353.5880246672
 51
354.1784234719
  0
ARC
  5
5FF
330
1F
100
AcDbEntity
  8
0
  6
Continuous
 62
     7
370
    25
100
AcDbCircle
 10
6.130917127
 20
-0.5391509795
 30
0.0
 40
0.1875000000000545
100
AcDbArc
 50
274.263436863
 51
301.0136325672
  0
ARC
  5
600
330
1F
100
AcDbEntity
  8
0
  6
Continuous
 62
     7
370
    25
100
AcDbCircle
 10
6.1447437953
 20
-0.9768342391
 30
0.0
 40
0.2500000000000113
100
AcDbArc
 50
94.263436863
 51
112.135651254
  0
ARC
  5
601
330
1F
100
AcDbEntity
  8
0
  6
Continuous
 62
     7
370
    25
100
AcDbCircle
 10
6.0895424919
 20
-0.8411321164
 30
0.0
 40
0.1035000000000009
100
AcDbArc
 50
112.135651254
 51
232.135651254
  0
ARC
  5
602
330
1F
100
AcDbEntity
  8
0
  6
Continuous
 62
     7
370
    25
100
AcDbCircle
 10
6.1794633258
 20
-0.725475324
 30
0.0
 40
0.2499999999999929
100
AcDbArc
 50
232.135651254
 51
250.007865645
  0
ARC
  5
603
330
1F
100
AcDbEntity
  8
0
  6
Continuous
 62
     7
370
    25
100
AcDbCircle
 10
6.0475060698
 20
-1.1430218425
 30
0.0
 40
0.1875000000000213
100
AcDbArc
 50
43.2576699408
 51
70.007865645
  0
ARC
  5
604
330
1F
100
AcDbEntity
  8
0
  6
Continuous
 62
     7
370
    25
100
AcDbCircle
 10
0.0
 20
0.0
 30
0.0
 40
6.266725884199562
100
AcDbArc
 50
350.0928790361
 51
350.6832778409
  0
ARC
  5
605
330
1F
100
AcDbEntity
  8
0
  6
Continuous
 62
     7
370
    25
100
AcDbCircle
 10
6.0866446343
 20
-0.9119132049
 30
0.0
 40
0.1875000000000445
100
AcDbArc
 50
270.7682912319
 51
297.5184869361
  0
ARC
  5
606
330
1F
100
AcDbEntity
  8
0
  6
Continuous
 62
     7
370
    25
100
AcDbCircle
 10
6.0737626742
 20
-1.3496252879
 30
0.0
 40
0.2499999999999928
100
AcDbArc
 50
90.7682912319
 51
108.6405056229
  0
ARC
  5
607
330
1F
100
AcDbEntity
  8
0
  6
Continuous
 62
     7
370
    25
100
AcDbCircle
 10
6.0269369875
 20
-1.2108102848
 30
0.0
 40
0.1035000000000011
100
AcDbArc
 50
108.6405056229
 51
228.6405056229
  0
ARC
  5
608
330
1F
100
AcDbEntity
  8
0
  6
Continuous
 62
     7
370
    25
100
AcDbCircle
 10
6.1237414632
 20
-1.1008505491
 30
0.0
 40
0.2499999999999909
100
AcDbArc
 50
228.6405056229
 51
246.512720014
  0
ARC
  5
609
330
1F
100
AcDbEntity
  8
0
  6
Continuous
 62
     7
370
    25
100
AcDbCircle
 10
5.9665743576
 20
-1.5095757788
 30
0.0
 40
0.1875000000000272
100
AcDbArc
 50
39.7625243098
 51
66.512720014
  0
ARC
  5
60A
330
1F
100
AcDbEntity
  8
0
  6
Continuous
 62
     7
370
    25
100
AcDbCircle
 10
0.0
 20
0.0
 30
0.0
 40
6.266725884225525
100
AcDbArc
 50
346.597733405
 51
347.1881322098
  0
ARC
  5
60B
330
1F
100
AcDbEntity
  8
0
  6
Continuous
 62
     7
370
    25
100
AcDbCircle
 10
6.0197294237
 20
-1.2812830532
 30
0.0
 40
0.18750000000005
100
AcDbArc
 50
267.2731456009
 51
294.0233413051
  0
ARC
  5
60C
330
1F
100
AcDbEntity
  8
0
  6
Continuous
 62
     7
370
    25
100
AcDbCircle
 10
5.9801867571
 20
-1.7173956419
 30
0.0
 40
0.2500000000000238
100
AcDbArc
 50
87.2731456008
 51
105.1453599919
  0
ARC
  5
60D
330
1F
100
AcDbEntity
  8
0
  6
Continuous
 62
     7
370
    25
100
AcDbCircle
 10
5.9419108817
 20
-1.5759841594
 30
0.0
 40
0.1035000000000013
100
AcDbArc
 50
105.1453599919
 51
225.1453599919
  0
ARC
  5
60E
330
1F
100
AcDbEntity
  8
0
  6
Continuous
 62
     7
370
    25
100
AcDbCircle
 10
6.0452388803
 20
-1.4721305378
 30
0.0
 40
0.2500000000000481
100
AcDbArc
 50
225.1453599919
 51
243.0175743829
  0
ARC
  5
60F
330
1F
100
AcDbEntity
  8
0
  6
Continuous
 62
     7
370
    25
100
AcDbCircle
 10
5.8634465969
 20
-1.8705139941
 30
0.0
 40
0.1875000000000222
100
AcDbArc
 50
36.2673786787
 51
63.0175743829
  0
ARC
  5
610
330
1F
100
AcDbEntity
  8
0
  6
Continuous
 62
     7
370
    25
100
AcDbCircle
 10
0.0
 20
0.0
 30
0.0
 40
6.266725884213028
100
AcDbArc
 50
343.102587774
 51
343.6929865787
  0
ARC
  5
611
330
1F
100
AcDbEntity
  8
0
  6
Continuous
 62
     7
370
    25
100
AcDbCircle
 10
5.9304204243
 20
-1.6458864444
 30
0.0
 40
0.1875000000000467
100
AcDbArc
 50
263.7779999698
 51
290.528195674
  0
ARC
  5
612
330
1F
100
AcDbEntity
  8
0
  6
Continuous
 62
     7
370
    25
100
AcDbCircle
 10
5.8643641524
 20
-2.0787771713
 30
0.0
 40
0.250000000000019
100
AcDbArc
 50
83.7779999698
 51
101.6502143608
  0
ARC
  5
613
330
1F
100
AcDbEntity
  8
0
  6
Continuous
 62
     7
370
    25
100
AcDbCircle
 10
5.8347804772
 20
-1.9352952695
 30
0.0
 40
0.1035
100
AcDbArc
 50
101.6502143608
 51
221.6502143608
  0
ARC
  5
614
330
1F
100
AcDbEntity
  8
0
  6
Continuous
 62
     7
370
    25
100
AcDbCircle
 10
5.9442476116
 20
-1.8379341043
 30
0.0
 40
0.2499999999999457
100
AcDbArc
 50
221.6502143608
 51
239.5224287518
  0
ARC
  5
615
330
1F
100
AcDbEntity
  8
0
  6
Continuous
 62
     7
370
    25
100
AcDbCircle
 10
5.7385064298
 20
-2.2244937745
 30
0.0
 40
0.1875000000000102
100
AcDbArc
 50
32.7722330476
 51
59.5224287518
  0
ARC
  5
616
330
1F
100
AcDbEntity
  8
0
  6
Continuous
 62
     7
370
    25
100
AcDbCircle
 10
0.0
 20
0.0
 30
0.0
 40
6.266725884207521
100
AcDbArc
 50
339.6074421429
 51
340.1978409476
  0
ARC
  5
617
330
1F
100
AcDbEntity
  8
0
  6
Continuous
 62
     7
370
    25
100
AcDbCircle
 10
5.8190498714
 20
-2.00436703
 30
0.0
 40
0.1875000000000405
100
AcDbArc
 50
260.2828543387
 51
287.0330500429
  0
ARC
  5
618
330
1F
100
AcDbEntity
  8
0
  6
Continuous
 62
     7
370
    25
100
AcDbCircle
 10
5.7267257279
 20
-2.4324255132
 30
0.0
 40
0.2500000000000195
100
AcDbArc
 50
80.2828543387
 51
98.1550687297
  0
ARC
  5
619
330
1F
100
AcDbEntity
  8
0
  6
Continuous
 62
     7
370
    25
100
AcDbCircle
 10
5.7059443061
 20
-2.287406954
 30
0.0
 40
0.1035000000000015
100
AcDbArc
 50
98.1550687297
 51
218.1550687297
  0
ARC
  5
61A
330
1F
100
AcDbEntity
  8
0
  6
Continuous
 62
     7
370
    25
100
AcDbCircle
 10
5.8211433514
 20
-2.1969004352
 30
0.0
 40
0.2499999999999764
100
AcDbArc
 50
218.1550687297
 51
236.0272831208
  0
ARC
  5
61B
330
1F
100
AcDbEntity
  8
0
  6
Continuous
 62
     7
370
    25
100
AcDbCircle
 10
5.5922186418
 20
-2.5701982919
 30
0.0
 40
0.1875000000000405
100
AcDbArc
 50
29.2770874166
 51
56.0272831208
  0
ARC
  5
61C
330
1F
100
AcDbEntity
  8
0
  6
Continuous
 62
     7
370
    25
100
AcDbCircle
 10
0.0
 20
0.0
 30
0.0
 40
6.266725884256553
100
AcDbArc
 50
336.1122965118
 51
336.7026953166
  0
ARC
  5
61D
330
1F
100
AcDbEntity
  8
0
  6
Continuous
 62
     7
370
    25
100
AcDbCircle
 10
5.6860320708
 20
-2.3553912386
 30
0.0
 40
0.1875000000000397
100
AcDbArc
 50
256.7877087076
 51
283.5379044119
  0
ARC
  5
61E
330
1F
100
AcDbEntity
  8
0
  6
Continuous
 62
     7
370
    25
100
AcDbCircle
 10
5.5677835076
 20
-2.7770250723
 30
0.0
 40
0.2499999999999971
100
AcDbArc
 50
76.7877087076
 51
94.6599230987
  0
ARC
  5
61F
330
1F
100
AcDbEntity
  8
0
  6
Continuous
 62
     7
370
    25
100
AcDbCircle
 10
5.5558816474
 20
-2.6310093344
 30
0.0
 40
0.103500000000001
100
AcDbArc
 50
94.6599230987
 51
214.6599230987
  0
ARC
  5
620
330
1F
100
AcDbEntity
  8
0
  6
Continuous
 62
     7
370
    25
100
AcDbCircle
 10
5.6763840557
 20
-2.5476941521
 30
0.0
 40
0.2499999999999018
100
AcDbArc
 50
214.6599230987
 51
232.5321374897
  0
ARC
  5
621
330
1F
100
AcDbEntity
  8
0
  6
Continuous
 62
     7
370
    25
100
AcDbCircle
 10
5.4251274332
 20
-2.9063415028
 30
0.0
 40
0.187500000000025
100
AcDbArc
 50
25.7819417855
 51
52.5321374897
  0
ARC
  5
622
330
1F
100
AcDbEntity
  8
0
  6
Continuous
 62
     7
370
    25
100
AcDbCircle
 10
0.0
 20
0.0
 30
0.0
 40
6.266725884282319
100
AcDbArc
 50
332.6171508808
 51
333.2075496855
  0
ARC
  5
623
330
1F
100
AcDbEntity
  8
0
  6
Continuous
 62
     7
370
    25
100
AcDbCircle
 10
5.5318618574
 20
-2.697653237
 30
0.0
 40
0.1875000000000534
100
AcDbArc
 50
253.2925630766
 51
280.0427587808
  0
ARC
  5
624
330
1F
100
AcDbEntity
  8
0
  6
Continuous
 62
     7
370
    25
100
AcDbCircle
 10
5.388128767
 20
-3.1112939158
 30
0.0
 40
0.2499999999999959
100
AcDbArc
 50
73.2925630766
 51
91.1647774676
  0
ARC
  5
625
330
1F
100
AcDbEntity
  8
0
  6
Continuous
 62
     7
370
    25
100
AcDbCircle
 10
5.385150744
 20
-2.9648241873
 30
0.0
 40
0.1034999999999998
100
AcDbArc
 50
91.1647774676
 51
211.1647774676
  0
ARC
  5
626
330
1F
100
AcDbEntity
  8
0
  6
Continuous
 62
     7
370
    25
100
AcDbCircle
 10
5.5105082384
 20
-2.8890102795
 30
0.0
 40
0.2499999999999641
100
AcDbArc
 50
211.1647774676
 51
229.0369918586
  0
ARC
  5
627
330
1F
100
AcDbEntity
  8
0
  6
Continuous
 62
     7
370
    25
100
AcDbCircle
 10
5.2378543942
 20
-3.2316729325
 30
0.0
 40
0.1875000000000011
100
AcDbArc
 50
22.2867961544
 51
49.0369918586
  0
ARC
  5
628
330
1F
100
AcDbEntity
  8
0
  6
Continuous
 62
     7
370
    25
100
AcDbCircle
 10
0.0
 20
0.0
 30
0.0
 40
6.266725884235606
100
AcDbArc
 50
329.1220052497
 51
329.7124040544
  0
ARC
  5
629
330
1F
100
AcDbEntity
  8
0
  6
Continuous
 62
     7
370
    25
100
AcDbCircle
 10
5.3571127546
 20
-3.0298797882
 30
0.0
 40
0.1875000000000595
100
AcDbArc
 50
249.7974174455
 51
276.5476131497
  0
ARC
  5
62A
330
1F
100
AcDbEntity
  8
0
  6
Continuous
 62
     7
370
    25
100
AcDbCircle
 10
5.1884298334
 20
-3.4339885416
 30
0.0
 40
0.2500000000000062
100
AcDbArc
 50
69.7974174455
 51
87.6696318365
  0
ARC
  5
62B
330
1F
100
AcDbEntity
  8
0
  6
Continuous
 62
     7
370
    25
100
AcDbCircle
 10
5.1943867262
 20
-3.2876096995
 30
0.0
 40
0.1035000000000002
100
AcDbArc
 50
87.6696318365
 51
207.6696318365
  0
ARC
  5
62C
330
1F
100
AcDbEntity
  8
0
  6
Continuous
 62
     7
370
    25
100
AcDbCircle
 10
5.3241329685
 20
-3.2195790989
 30
0.0
 40
0.2500000000000364
100
AcDbArc
 50
207.6696318365
 51
225.5418462276
  0
ARC
  5
62D
330
1F
100
AcDbEntity
  8
0
  6
Continuous
 62
     7
370
    25
100
AcDbCircle
 10
5.0310961928
 20
-3.5449823266
 30
0.0
 40
0.187500000000037
100
AcDbArc
 50
18.7916505234
 51
45.5418462276
  0
ARC
  5
62E
330
1F
100
AcDbEntity
  8
0
  6
Continuous
 62
     7
370
    25
100
AcDbCircle
 10
0.0000000001
 20
-0.0000000001
 30
0.0
 40
6.2667258840728
100
AcDbArc
 50
325.6268596186
 51
326.2172584234
  0
ARC
  5
62F
330
1F
100
AcDbEntity
  8
0
  6
Continuous
 62
     7
370
    25
100
AcDbCircle
 10
5.1624348405
 20
-3.3508349876
 30
0.0
 40
0.1875000000000364
100
AcDbArc
 50
246.3022718144
 51
273.0524675187
  0
ARC
  5
630
330
1F
100
AcDbEntity
  8
0
  6
Continuous
 62
     7
370
    25
100
AcDbCircle
 10
4.9694296001
 20
-3.7439085045
 30
0.0
 40
0.2500000000000538
100
AcDbArc
 50
66.3022718144
 51
84.1744862055
  0
ARC
  5
631
330
1F
100
AcDbEntity
  8
0
  6
Continuous
 62
     7
370
    25
100
AcDbCircle
 10
4.9842992486
 20
-3.5981650876
 30
0.0
 40
0.1035000000000004
100
AcDbArc
 50
84.1744862055
 51
204.1744862055
  0
ARC
  5
632
330
1F
100
AcDbEntity
  8
0
  6
Continuous
 62
     7
370
    25
100
AcDbCircle
 10
5.1179515743
 20
-3.5381708726
 30
0.0
 40
0.24999999999999
100
AcDbArc
 50
204.1744862055
 51
222.0467005965
  0
ARC
  5
633
330
1F
100
AcDbEntity
  8
0
  6
Continuous
 62
     7
370
    25
100
AcDbCircle
 10
4.8056219831
 20
-3.8451041536
 30
0.0
 40
0.1875000000000363
100
AcDbArc
 50
15.2965048923
 51
42.0467005965
  0
ARC
  5
634
330
1F
100
AcDbEntity
  8
0
  6
Continuous
 62
     7
370
    25
100
AcDbCircle
 10
0.0
 20
0.0
 30
0.0
 40
6.266725884202017
100
AcDbArc
 50
322.1317139876
 51
322.7221127923
  0
ARC
  5
635
330
1F
100
AcDbEntity
  8
0
  6
Continuous
 62
     7
370
    25
100
AcDbCircle
 10
4.9485523297
 20
-3.6593248608
 30
0.0
 40
0.1875000000000669
100
AcDbArc
 50
242.8071261834
 51
269.5573218876
  0
ARC
  5
636
330
1F
100
AcDbEntity
  8
0
  6
Continuous
 62
     7
370
    25
100
AcDbCircle
 10
4.7319427623
 20
-4.0399008818
 30
0.0
 40
0.2499999999999733
100
AcDbArc
 50
62.8071261834
 51
80.6793405744
  0
ARC
  5
637
330
1F
100
AcDbEntity
  8
0
  6
Continuous
 62
     7
370
    25
100
AcDbCircle
 10
4.7556698504
 20
-3.8953350654
 30
0.0
 40
0.1035000000000014
100
AcDbArc
 50
80.6793405744
 51
200.6793405744
  0
ARC
  5
638
330
1F
100
AcDbEntity
  8
0
  6
Continuous
 62
     7
370
    25
100
AcDbCircle
 10
4.8927310641
 20
-3.8436004182
 30
0.0
 40
0.2499999999999313
100
AcDbArc
 50
200.6793405744
 51
218.5515549654
  0
ARC
  5
639
330
1F
100
AcDbEntity
  8
0
  6
Continuous
 62
     7
370
    25
100
AcDbCircle
 10
4.5622705441
 20
-4.1309219406
 30
0.0
 40
0.1875000000000394
100
AcDbArc
 50
11.8013592612
 51
38.5515549654
  0
ARC
  5
63A
330
1F
100
AcDbEntity
  8
0
  6
Continuous
 62
     7
370
    25
100
AcDbCircle
 10
0.0
 20
0.0
 30
0.0
 40
6.266725884207545
100
AcDbArc
 50
318.6365683565
 51
319.2269671612
  0
ARC
  5
63B
330
1F
100
AcDbEntity
  8
0
  6
Continuous
 62
     7
370
    25
100
AcDbCircle
 10
4.7162608793
 20
-3.9542018051
 30
0.0
 40
0.1875000000000787
100
AcDbArc
 50
239.3119805523
 51
266.0621762565
  0
ARC
  5
63C
330
1F
100
AcDbEntity
  8
0
  6
Continuous
 62
     7
370
    25
100
AcDbCircle
 10
4.4768527866
 20
-4.3208645625
 30
0.0
 40
0.2499999999999602
100
AcDbArc
 50
59.3119805523
 51
77.1841949433
  0
ARC
  5
63D
330
1F
100
AcDbEntity
  8
0
  6
Continuous
 62
     7
370
    25
100
AcDbCircle
 10
4.509349048
 20
-4.1780141408
 30
0.0
 40
0.1035000000000007
100
AcDbArc
 50
77.1841949433
 51
197.1841949433
  0
ARC
  5
63E
330
1F
100
AcDbEntity
  8
0
  6
Continuous
 62
     7
370
    25
100
AcDbCircle
 10
4.6493092729
 20
-4.1347315179
 30
0.0
 40
0.2500000000000157
100
AcDbArc
 50
197.1841949433
 51
215.0564093344
  0
ARC
  5
63F
330
1F
100
AcDbEntity
  8
0
  6
Continuous
 62
     7
370
    25
100
AcDbCircle
 10
4.3019471589
 20
-4.4013724267
 30
0.0
 40
0.1875000000000122
100
AcDbArc
 50
8.3062136301
 51
35.0564093344
  0
ARC
  5
640
330
1F
100
AcDbEntity
  8
0
  6
Continuous
 62
     7
370
    25
100
AcDbCircle
 10
0.0000000001
 20
-0.0000000001
 30
0.0
 40
6.266725884153789
100
AcDbArc
 50
315.1414227254
 51
315.7318215302
  0
ARC
  5
641
330
1F
100
AcDbEntity
  8
0
  6
Continuous
 62
     7
370
    25
100
AcDbCircle
 10
4.4664246285
 20
-4.2343688591
 30
0.0
 40
0.1875000000000654
100
AcDbArc
 50
235.8168349212
 51
262.5670306254
  0
ARC
  5
642
330
1F
100
AcDbEntity
  8
0
  6
Continuous
 62
     7
370
    25
100
AcDbCircle
 10
4.2051086245
 20
-4.5857543433
 30
0.0
 40
0.2499999999999958
100
AcDbArc
 50
55.8168349212
 51
73.6890493123
  0
ARC
  5
643
330
1F
100
AcDbEntity
  8
0
  6
Continuous
 62
     7
370
    25
100
AcDbCircle
 10
4.246253171
 20
-4.4451507292
 30
0.0
 40
0.103500000000001
100
AcDbArc
 50
73.6890493123
 51
193.6890493123
  0
ARC
  5
644
330
1F
100
AcDbEntity
  8
0
  6
Continuous
 62
     7
370
    25
100
AcDbCircle
 10
4.3885917459
 20
-4.4104811447
 30
0.0
 40
0.2499999999999209
100
AcDbArc
 50
193.6890493123
 51
211.5612637033
  0
ARC
  5
645
330
1F
100
AcDbEntity
  8
0
  6
Continuous
 62
     7
370
    25
100
AcDbCircle
 10
4.0256202478
 20
-4.6554495183
 30
0.0
 40
0.1875000000000378
100
AcDbArc
 50
4.8110679991
 51
31.5612637033
  0
ARC
  5
646
330
1F
100
AcDbEntity
  8
0
  6
Continuous
 62
     7
370
    25
100
AcDbCircle
 10
0.0
 20
0.0
 30
0.0
 40
6.266725884200788
100
AcDbArc
 50
311.6462770944
 51
312.2366758991
  0
ARC
  5
647
330
1F
100
AcDbEntity
  8
0
  6
Continuous
 62
     7
370
    25
100
AcDbCircle
 10
4.1999729849
 20
-4.4987837827
 30
0.0
 40
0.1875000000000608
100
AcDbArc
 50
232.3216892902
 51
259.0718849944
  0
ARC
  5
648
330
1F
100
AcDbEntity
  8
0
  6
Continuous
 62
     7
370
    25
100
AcDbCircle
 10
3.9177211821
 20
-4.8335848166
 30
0.0
 40
0.2500000000000291
100
AcDbArc
 50
52.3216892902
 51
70.1939036812
  0
ARC
  5
649
330
1F
100
AcDbEntity
  8
0
  6
Continuous
 62
     7
370
    25
100
AcDbCircle
 10
3.9673609533
 20
-4.6957510649
 30
0.0
 40
0.1035000000000003
100
AcDbArc
 50
70.1939036812
 51
190.1939036812
  0
ARC
  5
64A
330
1F
100
AcDbEntity
  8
0
  6
Continuous
 62
     7
370
    25
100
AcDbCircle
 10
4.1115483694
 20
-4.669823492
 30
0.0
 40
0.249999999999966
100
AcDbArc
 50
190.1939036812
 51
208.0661180722
  0
ARC
  5
64B
330
1F
100
AcDbEntity
  8
0
  6
Continuous
 62
     7
370
    25
100
AcDbCircle
 10
3.734317765
 20
-4.8922080319
 30
0.0
 40
0.1875000000000194
100
AcDbArc
 50
1.315922368
 51
28.0661180722
  0
ARC
  5
64C
330
1F
100
AcDbEntity
  8
0
  6
Continuous
 62
     7
370
    25
100
AcDbCircle
 10
0.0
 20
-0.0000000001
 30
0.0
 40
6.266725884173457
100
AcDbArc
 50
308.1511314633
 51
308.741530268
  0
ARC
  5
64D
330
1F
100
AcDbEntity
  8
0
  6
Continuous
 62
     7
370
    25
100
AcDbCircle
 10
3.9178971658
 20
-4.7464629352
 30
0.0
 40
0.1875000000000514
100
AcDbArc
 50
228.8265436591
 51
255.5767393633
  0
ARC
  5
64E
330
1F
100
AcDbEntity
  8
0
  6
Continuous
 62
     7
370
    25
100
AcDbCircle
 10
3.6157595596
 20
-5.063434037
 30
0.0
 40
0.2500000000000715
100
AcDbArc
 50
48.8265436591
 51
66.6987580501
  0
ARC
  5
64F
330
1F
100
AcDbEntity
  8
0
  6
Continuous
 62
     7
370
    25
100
AcDbCircle
 10
3.6737098923
 20
-4.9288828983
 30
0.0
 40
0.1034999999999995
100
AcDbArc
 50
66.6987580501
 51
186.6987580501
  0
ARC
  5
650
330
1F
100
AcDbEntity
  8
0
  6
Continuous
 62
     7
370
    25
100
AcDbCircle
 10
3.8192097629
 20
-4.9117937892
 30
0.0
 40
0.2499999999999987
100
AcDbArc
 50
186.6987580501
 51
204.5709724412
  0
ARC
  5
651
330
1F
100
AcDbEntity
  8
0
  6
Continuous
 62
     7
370
    25
100
AcDbCircle
 10
3.4291233748
 20
-5.1107672103
 30
0.0
 40
0.1875000000000022
100
AcDbArc
 50
357.8207767369
 51
24.5709724412
  0
ARC
  5
652
330
1F
100
AcDbEntity
  8
0
  6
Continuous
 62
     7
370
    25
100
AcDbCircle
 10
0.0
 20
0.0
 30
0.0
 40
6.266725884186982
100
AcDbArc
 50
304.6559858322
 51
305.246384637
  0
ARC
  5
653
330
1F
100
AcDbEntity
  8
0
  6
Continuous
 62
     7
370
    25
100
AcDbCircle
 10
3.621246512
 20
-4.9764849338
 30
0.0
 40
0.1875000000000457
100
AcDbArc
 50
225.331398028
 51
252.0815937322
  0
ARC
  5
654
330
1F
100
AcDbEntity
  8
0
  6
Continuous
 62
     7
370
    25
100
AcDbCircle
 10
3.300347074
 20
-5.2744469502
 30
0.0
 40
0.2500000000000143
100
AcDbArc
 50
45.331398028
 51
63.2036124191
  0
ARC
  5
655
330
1F
100
AcDbEntity
  8
0
  6
Continuous
 62
     7
370
    25
100
AcDbCircle
 10
3.3663923891
 20
-5.1436789635
 30
0.0
 40
0.1035000000000014
100
AcDbArc
 50
63.2036124191
 51
183.2036124191
  0
ARC
  5
656
330
1F
100
AcDbEntity
  8
0
  6
Continuous
 62
     7
370
    25
100
AcDbCircle
 10
3.5126634452
 20
-5.1354918908
 30
0.0
 40
0.249999999999973
100
AcDbArc
 50
183.2036124191
 51
201.0758268101
  0
ARC
  5
657
330
1F
100
AcDbEntity
  8
0
  6
Continuous
 62
     7
370
    25
100
AcDbCircle
 10
3.1111724204
 20
-5.310313999
 30
0.0
 40
0.18750000000005
100
AcDbArc
 50
354.3256311059
 51
21.0758268101
  0
ARC
  5
658
330
1F
100
AcDbEntity
  8
0
  6
Continuous
 62
     7
370
    25
100
AcDbCircle
 10
0.0
 20
0.0
 30
0.0
 40
6.266725884196314
100
AcDbArc
 50
301.1608402012
 51
301.7512390059
  0
ARC
  5
659
330
1F
100
AcDbEntity
  8
0
  6
Continuous
 62
     7
370
    25
100
AcDbCircle
 10
3.3111245833
 20
-5.1879940816
 30
0.0
 40
0.1875000000000433
100
AcDbArc
 50
221.836252397
 51
248.5864481012
  0
ARC
  5
65A
330
1F
100
AcDbEntity
  8
0
  6
Continuous
 62
     7
370
    25
100
AcDbCircle
 10
2.9726570806
 20
-5.4658385744
 30
0.0
 40
0.2500000000000732
100
AcDbArc
 50
41.836252397
 51
59.708466788
  0
ARC
  5
65B
330
1F
100
AcDbEntity
  8
0
  6
Continuous
 62
     7
370
    25
100
AcDbCircle
 10
3.0465516852
 20
-5.3393402052
 30
0.0
 40
0.103500000000001
100
AcDbArc
 50
59.708466788
 51
179.708466788
  0
ARC
  5
65C
330
1F
100
AcDbEntity
  8
0
  6
Continuous
 62
     7
370
    25
100
AcDbCircle
 10
3.1930497888
 20
-5.3400856254
 30
0.0
 40
0.2499999999999971
100
AcDbArc
 50
179.708466788
 51
197.580681179
  0
ARC
  5
65D
330
1F
100
AcDbEntity
  8
0
  6
Continuous
 62
     7
370
    25
100
AcDbCircle
 10
2.7816477003
 20
-5.4901060708
 30
0.0
 40
0.187500000000022
100
AcDbArc
 50
350.8304854748
 51
17.580681179
  0
ARC
  5
65E
330
1F
100
AcDbEntity
  8
0
  6
Continuous
 62
     7
370
    25
100
AcDbCircle
 10
0.0
 20
0.0
 30
0.0
 40
6.266725884221573
100
AcDbArc
 50
297.6656945701
 51
298.2560933748
  0
ARC
  5
65F
330
1F
100
AcDbEntity
  8
0
  6
Continuous
 62
     7
370
    25
100
AcDbCircle
 10
2.9886850536
 20
-5.3802035507
 30
0.0
 40
0.1875000000000226
100
AcDbArc
 50
218.3411067659
 51
245.0913024701
  0
ARC
  5
660
330
1F
100
AcDbEntity
  8
0
  6
Continuous
 62
     7
370
    25
100
AcDbCircle
 10
2.6339086076
 20
-5.63689692
 30
0.0
 40
0.2499999999999934
100
AcDbArc
 50
38.3411067659
 51
56.2133211569
  0
ARC
  5
661
330
1F
100
AcDbEntity
  8
0
  6
Continuous
 62
     7
370
    25
100
AcDbCircle
 10
2.715377609
 20
-5.5151387506
 30
0.0
 40
0.1035000000000007
100
AcDbArc
 50
56.2133211569
 51
176.2133211569
  0
ARC
  5
662
330
1F
100
AcDbEntity
  8
0
  6
Continuous
 62
     7
370
    25
100
AcDbCircle
 10
2.8615577775
 20
-5.5248138907
 30
0.0
 40
0.2500000000000102
100
AcDbArc
 50
176.2133211569
 51
194.085535548
  0
ARC
  5
663
330
1F
100
AcDbEntity
  8
0
  6
Continuous
 62
     7
370
    25
100
AcDbCircle
 10
2.441775068
 20
-5.6494745875
 30
0.0
 40
0.1875000000000054
100
AcDbArc
 50
347.3353398437
 51
14.085535548
  0
ARC
  5
664
330
1F
100
AcDbEntity
  8
0
  6
Continuous
 62
     7
370
    25
100
AcDbCircle
 10
0.0
 20
0.0
 30
0.0
 40
6.26672588426292
100
AcDbArc
 50
294.170548939
 51
294.7609477438
  0
ARC
  5
665
330
1F
100
AcDbEntity
  8
0
  6
Continuous
 62
     7
370
    25
100
AcDbCircle
 10
2.6551274193
 20
-5.5523983092
 30
0.0
 40
0.187500000000062
100
AcDbArc
 50
214.8459611348
 51
241.596156839
  0
ARC
  5
666
330
1F
100
AcDbEntity
  8
0
  6
Continuous
 62
     7
370
    25
100
AcDbCircle
 10
2.2853618216
 20
-5.7869856389
 30
0.0
 40
0.2499999999999646
100
AcDbArc
 50
34.8459611348
 51
52.7181755259
  0
ARC
  5
667
330
1F
100
AcDbEntity
  8
0
  6
Continuous
 62
     7
370
    25
100
AcDbCircle
 10
2.3741021496
 20
-5.6704206176
 30
0.0
 40
0.1035000000000003
100
AcDbArc
 50
52.7181755259
 51
172.7181755259
  0
ARC
  5
668
330
1F
100
AcDbEntity
  8
0
  6
Continuous
 62
     7
370
    25
100
AcDbCircle
 10
2.5194205832
 20
-5.6889894854
 30
0.0
 40
0.2499999999999672
100
AcDbArc
 50
172.7181755259
 51
190.5903899169
  0
ARC
  5
669
330
1F
100
AcDbEntity
  8
0
  6
Continuous
 62
     7
370
    25
100
AcDbCircle
 10
2.0928188721
 20
-5.7878266876
 30
0.0
 40
0.1875000000000164
100
AcDbArc
 50
343.8401942127
 51
10.5903899169
  0
ARC
  5
66A
330
1F
100
AcDbEntity
  8
0
  6
Continuous
 62
     7
370
    25
100
AcDbCircle
 10
0.0
 20
0.0
 30
0.0
 40
6.266725884222512
100
AcDbArc
 50
290.675403308
 51
291.2658021127
  0
ARC
  5
66B
330
1F
100
AcDbEntity
  8
0
  6
Continuous
 62
     7
370
    25
100
AcDbCircle
 10
2.3116925366
 20
-5.7039377813
 30
0.0
 40
0.187500000000048
100
AcDbArc
 50
211.3508155038
 51
238.101011208
  0
ARC
  5
66C
330
1F
100
AcDbEntity
  8
0
  6
Continuous
 62
     7
370
    25
100
AcDbCircle
 10
1.9283133395
 20
-5.9155463911
 30
0.0
 40
0.2500000000000603
100
AcDbArc
 50
31.3508155038
 51
49.2230298948
  0
ARC
  5
66D
330
1F
100
AcDbEntity
  8
0
  6
Continuous
 62
     7
370
    25
100
AcDbCircle
 10
2.0239948744
 20
-5.8046081475
 30
0.0
 40
0.1035000000000011
100
AcDbArc
 50
49.2230298948
 51
169.2230298948
  0
ARC
  5
66E
330
1F
100
AcDbEntity
  8
0
  6
Continuous
 62
     7
370
    25
100
AcDbCircle
 10
2.167910979
 20
-5.8320016656
 30
0.0
 40
0.2499999999999832
100
AcDbArc
 50
169.2230298948
 51
187.0952442858
  0
ARC
  5
66F
330
1F
100
AcDbEntity
  8
0
  6
Continuous
 62
     7
370
    25
100
AcDbCircle
 10
1.7360772525
 20
-5.9046476923
 30
0.0
 40
0.1875000000000261
100
AcDbArc
 50
340.3450485816
 51
7.0952442858
  0
ARC
  5
670
330
1F
100
AcDbEntity
  8
0
  6
Continuous
 62
     7
370
    25
100
AcDbCircle
 10
0.0
 20
-0.0000000001
 30
0.0
 40
6.266725884125844
100
AcDbArc
 50
287.1802576769
 51
287.7706564816
  0
ARC
  5
671
330
1F
100
AcDbEntity
  8
0
  6
Continuous
 62
     7
370
    25
100
AcDbCircle
 10
1.9596580058
 20
-5.8342582302
 30
0.0
 40
0.1875000000000616
100
AcDbArc
 50
207.8556698727
 51
234.6058655769
  0
ARC
  5
672
330
1F
100
AcDbEntity
  8
0
  6
Continuous
 62
     7
370
    25
100
AcDbCircle
 10
1.5640914051
 20
-6.0221009222
 30
0.0
 40
0.2500000000000574
100
AcDbArc
 50
27.8556698727
 51
45.7278842637
  0
ARC
  5
673
330
1F
100
AcDbEntity
  8
0
  6
Continuous
 62
     7
370
    25
100
AcDbCircle
 10
1.6663582052
 20
-5.9172021538
 30
0.0
 40
0.1034999999999995
100
AcDbArc
 50
45.7278842637
 51
165.7278842637
  0
ARC
  5
674
330
1F
100
AcDbEntity
  8
0
  6
Continuous
 62
     7
370
    25
100
AcDbCircle
 10
1.8083366035
 20
-5.9533184165
 30
0.0
 40
0.2499999999999818
100
AcDbArc
 50
165.7278842637
 51
183.6000986548
  0
ARC
  5
675
330
1F
100
AcDbEntity
  8
0
  6
Continuous
 62
     7
370
    25
100
AcDbCircle
 10
1.3728773116
 20
-5.9995030198
 30
0.0
 40
0.1875000000000194
100
AcDbArc
 50
336.8499029505
 51
3.6000986548
  0
ARC
  5
676
330
1F
100
AcDbEntity
  8
0
  6
Continuous
 62
     7
370
    25
100
AcDbCircle
 10
0.0
 20
-0.0000000001
 30
0.0
 40
6.266725884181518
100
AcDbArc
 50
283.6851120458
 51
284.2755108506
  0
ARC
  5
677
330
1F
100
AcDbEntity
  8
0
  6
Continuous
 62
     7
370
    25
100
AcDbCircle
 10
1.6003334186
 20
-5.9428748554
 30
0.0
 40
0.1875000000000556
100
AcDbArc
 50
204.3605242416
 51
231.1107199458
  0
ARC
  5
678
330
1F
100
AcDbEntity
  8
0
  6
Continuous
 62
     7
370
    25
100
AcDbCircle
 10
1.194050948
 20
-6.1062528423
 30
0.0
 40
0.2500000000000426
100
AcDbArc
 50
24.3605242416
 51
42.2327386327
  0
ARC
  5
679
330
1F
100
AcDbEntity
  8
0
  6
Continuous
 62
     7
370
    25
100
AcDbCircle
 10
1.3025225741
 20
-6.0077837795
 30
0.0
 40
0.1035000000000009
100
AcDbArc
 50
42.2327386327
 51
162.2327386327
  0
ARC
  5
67A
330
1F
100
AcDbEntity
  8
0
  6
Continuous
 62
     7
370
    25
100
AcDbCircle
 10
1.442035097
 20
-6.052488432
 30
0.0
 40
0.2499999999999806
100
AcDbArc
 50
162.2327386327
 51
180.1049530237
  0
ARC
  5
67B
330
1F
100
AcDbEntity
  8
0
  6
Continuous
 62
     7
370
    25
100
AcDbCircle
 10
1.0045701768
 20
-6.072039802
 30
0.0
 40
0.1875000000000315
100
AcDbArc
 50
333.3547573195
 51
0.1049530237
  0
ARC
  5
67C
330
1F
100
AcDbEntity
  8
0
  6
Continuous
 62
     7
370
    25
100
AcDbCircle
 10
0.0
 20
0.0
 30
0.0
 40
6.266725884270363
100
AcDbArc
 50
280.1899664148
 51
280.7803652195
  0
ARC
  5
67D
330
1F
100
AcDbEntity
  8
0
  6
Continuous
 62
     7
370
    25
100
AcDbCircle
 10
1.2350554859
 20
-6.0293835957
 30
0.0
 40
0.1875000000000569
100
AcDbArc
 50
200.8653786106
 51
227.6155743148
  0
ARC
  5
67E
330
1F
100
AcDbEntity
  8
0
  6
Continuous
 62
     7
370
    25
100
AcDbCircle
 10
0.8195685429
 20
-6.1676891008
 30
0.0
 40
0.2499999999999869
100
AcDbArc
 50
20.8653786106
 51
38.7375930016
  0
ARC
  5
67F
330
1F
100
AcDbEntity
  8
0
  6
Continuous
 62
     7
370
    25
100
AcDbCircle
 10
0.9338414735
 20
-6.0760160549
 30
0.0
 40
0.1034999999999996
100
AcDbArc
 50
38.7375930016
 51
158.7375930016
  0
ARC
  5
680
330
1F
100
AcDbEntity
  8
0
  6
Continuous
 62
     7
370
    25
100
AcDbCircle
 10
1.0703691253
 20
-6.1291427929
 30
0.0
 40
0.25
100
AcDbArc
 50
158.7375930016
 51
176.6098073926
  0
ARC
  5
681
330
1F
100
AcDbEntity
  8
0
  6
Continuous
 62
     7
370
    25
100
AcDbCircle
 10
0.632525975
 20
-6.1219881973
 30
0.0
 40
0.1875000000000188
100
AcDbArc
 50
329.8596116884
 51
356.6098073926
  0
ARC
  5
682
330
1F
100
AcDbEntity
  8
0
  6
Continuous
 62
     7
370
    25
100
AcDbCircle
 10
0.0
 20
0.0
 30
0.0
 40
6.266725884238483
100
AcDbArc
 50
276.6948207837
 51
277.2852195884
  0
ARC
  5
683
330
1F
100
AcDbEntity
  8
0
  6
Continuous
 62
     7
370
    25
100
AcDbCircle
 10
0.8651830656
 20
-6.093462633
 30
0.0
 40
0.1875000000000603
100
AcDbArc
 50
197.3702329795
 51
224.1204286837
  0
ARC
  5
684
330
1F
100
AcDbEntity
  8
0
  6
Continuous
 62
     7
370
    25
100
AcDbCircle
 10
0.442037289
 20
-6.2061811507
 30
0.0
 40
0.249999999999968
100
AcDbArc
 50
17.3702329795
 51
35.2424473705
  0
ARC
  5
685
330
1F
100
AcDbEntity
  8
0
  6
Continuous
 62
     7
370
    25
100
AcDbCircle
 10
0.5616864213
 20
-6.1216451516
 30
0.0
 40
0.1035000000000007
100
AcDbArc
 50
35.2424473705
 51
155.2424473705
  0
ARC
  5
686
330
1F
100
AcDbEntity
  8
0
  6
Continuous
 62
     7
370
    25
100
AcDbCircle
 10
0.6947213102
 20
-6.1829963401
 30
0.0
 40
0.2499999999999914
100
AcDbArc
 50
155.2424473705
 51
173.1146617616
  0
ARC
  5
687
330
1F
100
AcDbEntity
  8
0
  6
Continuous
 62
     7
370
    25
100
AcDbCircle
 10
0.2581287351
 20
-6.1491623944
 30
0.0
 40
0.1875000000000267
100
AcDbArc
 50
326.3644660573
 51
353.1146617615
  0
ARC
  5
688
330
1F
100
AcDbEntity
  8
0
  6
Continuous
 62
     7
370
    25
100
AcDbCircle
 10
0.0
 20
0.0
 30
0.0
 40
6.266725884250186
100
AcDbArc
 50
273.1996751526
 51
273.7900739574
  0
ARC
  5
689
330
1F
100
AcDbEntity
  8
0
  6
Continuous
 62
     7
370
    25
100
AcDbCircle
 10
0.4920921076
 20
-6.1348735891
 30
0.0
 40
0.1875000000000524
100
AcDbArc
 50
193.8750873484
 51
220.6252830526
  0
ARC
  5
68A
330
1F
100
AcDbEntity
  8
0
  6
Continuous
 62
     7
370
    25
100
AcDbCircle
 10
0.0628616274
 20
-6.2215857991
 30
0.0
 40
0.2500000000000199
100
AcDbArc
 50
13.8750873484
 51
31.7473017395
  0
ARC
  5
68B
330
1F
100
AcDbEntity
  8
0
  6
Continuous
 62
     7
370
    25
100
AcDbCircle
 10
0.1874418586
 20
-6.1445013262
 30
0.0
 40
0.1034999999999997
100
AcDbArc
 50
31.7473017395
 51
151.7473017395
  0
ARC
  5
68C
330
1F
100
AcDbEntity
  8
0
  6
Continuous
 62
     7
370
    25
100
AcDbCircle
 10
0.3164890861
 20
-6.2138487348
 30
0.0
 40
0.2499999999999853
100
AcDbArc
 50
151.7473017394
 51
169.6195161305
  0
ARC
  5
68D
330
1F
100
AcDbEntity
  8
0
  6
Continuous
 62
     7
370
    25
100
AcDbCircle
 10
-0.1172287607
 20
-6.1534613036
 30
0.0
 40
0.1875000000000238
100
AcDbArc
 50
322.8693204263
 51
349.6195161305
  0
ARC
  5
68E
330
1F
100
AcDbEntity
  8
0
  6
Continuous
 62
     7
370
    25
100
AcDbCircle
 10
0.0
 20
-0.0000000001
 30
0.0
 40
6.266725884161521
100
AcDbArc
 50
269.7045295215
 51
270.2949283263
  0
ARC
  5
68F
330
1F
100
AcDbEntity
  8
0
  6
Continuous
 62
     7
370
    25
100
AcDbCircle
 10
0.1171705346
 20
-6.1534624126
 30
0.0
 40
0.1875000000000473
100
AcDbArc
 50
190.3799417174
 51
217.1301374216
  0
ARC
  5
690
330
1F
100
AcDbEntity
  8
0
  6
Continuous
 62
     7
370
    25
100
AcDbCircle
 10
-0.3165478837
 20
-6.2138457398
 30
0.0
 40
0.2500000000000477
100
AcDbArc
 50
10.3799417174
 51
28.2521561084
  0
ARC
  5
691
330
1F
100
AcDbEntity
  8
0
  6
Continuous
 62
     7
370
    25
100
AcDbCircle
 10
-0.1875
 20
-6.1444995522
 30
0.0
 40
0.1035
100
AcDbArc
 50
28.2521561084
 51
148.2521561084
  0
ARC
  5
692
330
1F
100
AcDbEntity
  8
0
  6
Continuous
 62
     7
370
    25
100
AcDbCircle
 10
-0.0629204981
 20
-6.221585204
 30
0.0
 40
0.249999999999981
100
AcDbArc
 50
148.2521561084
 51
166.1243704994
  0
ARC
  5
693
330
1F
100
AcDbEntity
  8
0
  6
Continuous
 62
     7
370
    25
100
AcDbCircle
 10
-0.4921501578
 20
-6.1348689325
 30
0.0
 40
0.1875000000000224
100
AcDbArc
 50
319.3741747952
 51
346.1243704994
  0
ARC
  5
694
330
1F
100
AcDbEntity
  8
0
  6
Continuous
 62
     7
370
    25
100
AcDbCircle
 10
0.0
 20
0.0
 30
0.0
 40
6.266725884281941
100
AcDbArc
 50
266.2093838905
 51
266.7997826952
  0
ARC
  5
695
330
1F
100
AcDbEntity
  8
0
  6
Continuous
 62
     7
370
    25
100
AcDbCircle
 10
-0.2581869205
 20
-6.1491599517
 30
0.0
 40
0.1875000000000659
100
AcDbArc
 50
186.8847960863
 51
213.6349917905
  0
ARC
  5
696
330
1F
100
AcDbEntity
  8
0
  6
Continuous
 62
     7
370
    25
100
AcDbCircle
 10
-0.6947798158
 20
-6.1829897661
 30
0.0
 40
0.2500000000000318
100
AcDbArc
 50
6.8847960863
 51
24.7570104773
  0
ARC
  5
697
330
1F
100
AcDbEntity
  8
0
  6
Continuous
 62
     7
370
    25
100
AcDbCircle
 10
-0.5617443463
 20
-6.1216398364
 30
0.0
 40
0.1035000000000004
100
AcDbArc
 50
24.7570104773
 51
144.7570104773
  0
ARC
  5
698
330
1F
100
AcDbEntity
  8
0
  6
Continuous
 62
     7
370
    25
100
AcDbCircle
 10
-0.442096014
 20
-6.2061769677
 30
0.0
 40
0.2500000000000096
100
AcDbArc
 50
144.7570104773
 51
162.6292248683
  0
ARC
  5
699
330
1F
100
AcDbEntity
  8
0
  6
Continuous
 62
     7
370
    25
100
AcDbCircle
 10
-0.865240724
 20
-6.0934544461
 30
0.0
 40
0.187500000000026
100
AcDbArc
 50
315.8790291641
 51
342.6292248683
  0
ARC
  5
69A
330
1F
100
AcDbEntity
  8
0
  6
Continuous
 62
     7
370
    25
100
AcDbCircle
 10
0.0
 20
-0.0000000001
 30
0.0
 40
6.266725884170679
100
AcDbArc
 50
262.7142382594
 51
263.3046370642
  0
ARC
  5
69B
330
1F
100
AcDbEntity
  8
0
  6
Continuous
 62
     7
370
    25
100
AcDbCircle
 10
-0.6325839033
 20
-6.1219822118
 30
0.0
 40
0.1875000000000444
100
AcDbArc
 50
183.3896504552
 51
210.1398461594
  0
ARC
  5
69C
330
1F
100
AcDbEntity
  8
0
  6
Continuous
 62
     7
370
    25
100
AcDbCircle
 10
-1.0704271213
 20
-6.1291326644
 30
0.0
 40
0.2500000000000038
100
AcDbArc
 50
3.3896504552
 51
21.2618648462
  0
ARC
  5
69D
330
1F
100
AcDbEntity
  8
0
  6
Continuous
 62
     7
370
    25
100
AcDbCircle
 10
-0.9338989668
 20
-6.0760072183
 30
0.0
 40
0.1035000000000006
100
AcDbArc
 50
21.2618648462
 51
141.2618648462
  0
ARC
  5
69E
330
1F
100
AcDbEntity
  8
0
  6
Continuous
 62
     7
370
    25
100
AcDbCircle
 10
-0.8196269036
 20
-6.1676813454
 30
0.0
 40
0.2500000000000103
100
AcDbArc
 50
141.2618648462
 51
159.1340792373
  0
ARC
  5
69F
330
1F
100
AcDbEntity
  8
0
  6
Continuous
 62
     7
370
    25
100
AcDbCircle
 10
-1.2351125379
 20
-6.0293719089
 30
0.0
 40
0.1875000000000479
100
AcDbArc
 50
312.3838835331
 51
339.1340792373
  0
ARC
  5
6A0
330
1F
100
AcDbEntity
  8
0
  6
Continuous
 62
     7
370
    25
100
AcDbCircle
 10
0.0
 20
0.0000000001
 30
0.0
 40
6.266725884295601
100
AcDbArc
 50
259.2190926283
 51
259.8094914331
  0
ARC
  5
6A1
330
1F
100
AcDbEntity
  8
0
  6
Continuous
 62
     7
370
    25
100
AcDbCircle
 10
-1.0046276325
 20
-6.0720302961
 30
0.0
 40
0.1875000000000467
100
AcDbArc
 50
179.8945048241
 51
206.6447005284
  0
ARC
  5
6A2
330
1F
100
AcDbEntity
  8
0
  6
Continuous
 62
     7
370
    25
100
AcDbCircle
 10
-1.4420923677
 20
-6.0524747867
 30
0.0
 40
0.2500000000000217
100
AcDbArc
 50
359.8945048242
 51
17.7667192152
  0
ARC
  5
6A3
330
1F
100
AcDbEntity
  8
0
  6
Continuous
 62
     7
370
    25
100
AcDbCircle
 10
-1.3025794218
 20
-6.0077714543
 30
0.0
 40
0.103500000000001
100
AcDbArc
 50
17.7667192152
 51
137.7667192152
  0
ARC
  5
6A4
330
1F
100
AcDbEntity
  8
0
  6
Continuous
 62
     7
370
    25
100
AcDbCircle
 10
-1.1941087274
 20
-6.1062415435
 30
0.0
 40
0.2499999999999696
100
AcDbArc
 50
137.7667192152
 51
155.6389336062
  0
ARC
  5
6A5
330
1F
100
AcDbEntity
  8
0
  6
Continuous
 62
     7
370
    25
100
AcDbCircle
 10
-1.600389652
 20
-5.9428597122
 30
0.0
 40
0.1874999999999859
100
AcDbArc
 50
308.888737902
 51
335.6389336062
  0
ARC
  5
6A6
330
1F
100
AcDbEntity
  8
0
  6
Continuous
 62
     7
370
    25
100
AcDbCircle
 10
0.0
 20
0.0
 30
0.0
 40
6.266725884203649
100
AcDbArc
 50
255.7239469973
 51
256.314345802
  0
ARC
  5
6A7
330
1F
100
AcDbEntity
  8
0
  6
Continuous
 62
     7
370
    25
100
AcDbCircle
 10
-1.3729340808
 20
-5.9994900289
 30
0.0
 40
0.1875000000000712
100
AcDbArc
 50
176.3993591931
 51
203.1495548973
  0
ARC
  5
6A8
330
1F
100
AcDbEntity
  8
0
  6
Continuous
 62
     7
370
    25
100
AcDbCircle
 10
-1.8083929357
 20
-5.9533013052
 30
0.0
 40
0.2500000000000385
100
AcDbArc
 50
356.3993591931
 51
14.2715735841
  0
ARC
  5
6A9
330
1F
100
AcDbEntity
  8
0
  6
Continuous
 62
     7
370
    25
100
AcDbCircle
 10
-1.6664141957
 20
-5.9171863859
 30
0.0
 40
0.1035000000000003
100
AcDbArc
 50
14.2715735841
 51
134.2715735841
  0
ARC
  5
6AA
330
1F
100
AcDbEntity
  8
0
  6
Continuous
 62
     7
370
    25
100
AcDbCircle
 10
-1.5641483882
 20
-6.0220861219
 30
0.0
 40
0.2499999999999948
100
AcDbArc
 50
134.2715735841
 51
152.1437879751
  0
ARC
  5
6AB
330
1F
100
AcDbEntity
  8
0
  6
Continuous
 62
     7
370
    25
100
AcDbCircle
 10
-1.9597132115
 20
-5.834239687
 30
0.0
 40
0.1874999999999966
100
AcDbArc
 50
305.3935922709
 51
332.1437879751
  0
ARC
  5
6AC
330
1F
100
AcDbEntity
  8
0
  6
Continuous
 62
     7
370
    25
100
AcDbCircle
 10
0.0
 20
0.0
 30
0.0
 40
6.266725884268856
100
AcDbArc
 50
252.2288013662
 51
252.8192001709
  0
ARC
  5
6AD
330
1F
100
AcDbEntity
  8
0
  6
Continuous
 62
     7
370
    25
100
AcDbCircle
 10
-1.7361331242
 20
-5.9046312647
 30
0.0
 40
0.187500000000042
100
AcDbArc
 50
172.904213562
 51
199.6544092662
  0
ARC
  5
6AE
330
1F
100
AcDbEntity
  8
0
  6
Continuous
 62
     7
370
    25
100
AcDbCircle
 10
-2.1679661633
 20
-5.8319811518
 30
0.0
 40
0.250000000000037
100
AcDbArc
 50
352.904213562
 51
10.776427953
  0
ARC
  5
6AF
330
1F
100
AcDbEntity
  8
0
  6
Continuous
 62
     7
370
    25
100
AcDbCircle
 10
-2.0240497994
 20
-5.8045889955
 30
0.0
 40
0.103500000000001
100
AcDbArc
 50
10.776427953
 51
130.776427953
  0
ARC
  5
6B0
330
1F
100
AcDbEntity
  8
0
  6
Continuous
 62
     7
370
    25
100
AcDbCircle
 10
-1.9283693143
 20
-5.9155281444
 30
0.0
 40
0.2499999999999448
100
AcDbArc
 50
130.776427953
 51
148.6486423441
  0
ARC
  5
6B1
330
1F
100
AcDbEntity
  8
0
  6
Continuous
 62
     7
370
    25
100
AcDbCircle
 10
-2.3117465091
 20
-5.703915907
 30
0.0
 40
0.1874999999999777
100
AcDbArc
 50
301.8984466399
 51
328.6486423441
  0
ARC
  5
6B2
330
1F
100
AcDbEntity
  8
0
  6
Continuous
 62
     7
370
    25
100
AcDbCircle
 10
0.0
 20
0.0
 30
0.0
 40
6.266725884232575
100
AcDbArc
 50
248.7336557351
 51
249.3240545399
  0
ARC
  5
6B3
330
1F
100
AcDbEntity
  8
0
  6
Continuous
 62
     7
370
    25
100
AcDbCircle
 10
-2.0928736384
 20
-5.7878068844
 30
0.0
 40
0.1875000000000312
100
AcDbArc
 50
169.4090679309
 51
196.1592636352
  0
ARC
  5
6B4
330
1F
100
AcDbEntity
  8
0
  6
Continuous
 62
     7
370
    25
100
AcDbCircle
 10
-2.5194744143
 20
-5.6889656455
 30
0.0
 40
0.2500000000000105
100
AcDbArc
 50
349.4090679309
 51
7.281282322
  0
ARC
  5
6B5
330
1F
100
AcDbEntity
  8
0
  6
Continuous
 62
     7
370
    25
100
AcDbCircle
 10
-2.374155805
 20
-5.6703981528
 30
0.0
 40
0.1035000000000007
100
AcDbArc
 50
7.281282322
 51
127.281282322
  0
ARC
  5
6B6
330
1F
100
AcDbEntity
  8
0
  6
Continuous
 62
     7
370
    25
100
AcDbCircle
 10
-2.2854165799
 20
-5.7869640137
 30
0.0
 40
0.2499999999999234
100
AcDbArc
 50
127.281282322
 51
145.153496713
  0
ARC
  5
6B7
330
1F
100
AcDbEntity
  8
0
  6
Continuous
 62
     7
370
    25
100
AcDbCircle
 10
-2.6551799579
 20
-5.5523731852
 30
0.0
 40
0.1874999999999538
100
AcDbArc
 50
298.4033010088
 51
325.153496713
  0
ARC
  5
6B8
330
1F
100
AcDbEntity
  8
0
  6
Continuous
 62
     7
370
    25
100
AcDbCircle
 10
0.0
 20
0.0
 30
0.0
 40
6.266725884237691
100
AcDbArc
 50
245.2385101041
 51
245.8289089088
  0
ARC
  5
6B9
330
1F
100
AcDbEntity
  8
0
  6
Continuous
 62
     7
370
    25
100
AcDbCircle
 10
-2.4418285251
 20
-5.6494514823
 30
0.0
 40
0.1875000000000684
100
AcDbArc
 50
165.9139222999
 51
192.6641180041
  0
ARC
  5
6BA
330
1F
100
AcDbEntity
  8
0
  6
Continuous
 62
     7
370
    25
100
AcDbCircle
 10
-2.861610055
 20
-5.5247868134
 30
0.0
 40
0.2500000000000092
100
AcDbArc
 50
345.9139222999
 51
3.7861366909
  0
ARC
  5
6BB
330
1F
100
AcDbEntity
  8
0
  6
Continuous
 62
     7
370
    25
100
AcDbCircle
 10
-2.715429795
 20
-5.5151130565
 30
0.0
 40
0.1035000000000013
100
AcDbArc
 50
3.7861366909
 51
123.7861366909
  0
ARC
  5
6BC
330
1F
100
AcDbEntity
  8
0
  6
Continuous
 62
     7
370
    25
100
AcDbCircle
 10
-2.6339619457
 20
-5.6368719968
 30
0.0
 40
0.2499999999999316
100
AcDbArc
 50
123.7861366909
 51
141.6583510819
  0
ARC
  5
6BD
330
1F
100
AcDbEntity
  8
0
  6
Continuous
 62
     7
370
    25
100
AcDbCircle
 10
-2.9887359628
 20
-5.3801752705
 30
0.0
 40
0.1874999999999596
100
AcDbArc
 50
294.9081553777
 51
321.6583510819
  0
ARC
  5
6BE
330
1F
100
AcDbEntity
  8
0
  6
Continuous
 62
     7
370
    25
100
AcDbCircle
 10
0.0
 20
0.0
 30
0.0
 40
6.266725884228813
100
AcDbArc
 50
241.743364473
 51
242.3337632777
  0
ARC
  5
6BF
330
1F
100
AcDbEntity
  8
0
  6
Continuous
 62
     7
370
    25
100
AcDbCircle
 10
-2.7816996494
 20
-5.4900797497
 30
0.0
 40
0.1875000000000446
100
AcDbArc
 50
162.4187766688
 51
189.168972373
  0
ARC
  5
6C0
330
1F
100
AcDbEntity
  8
0
  6
Continuous
 62
     7
370
    25
100
AcDbCircle
 10
-3.1931003184
 20
-5.3400554114
 30
0.0
 40
0.2499999999999968
100
AcDbArc
 50
342.4187766688
 51
0.2909910598
  0
ARC
  5
6C1
330
1F
100
AcDbEntity
  8
0
  6
Continuous
 62
     7
370
    25
100
AcDbCircle
 10
-3.0466022078
 20
-5.3393113774
 30
0.0
 40
0.1035000000000016
100
AcDbArc
 50
0.2909910598
 51
120.2909910598
  0
ARC
  5
6C2
330
1F
100
AcDbEntity
  8
0
  6
Continuous
 62
     7
370
    25
100
AcDbCircle
 10
-2.9727088001
 20
-5.4658104458
 30
0.0
 40
0.2499999999999943
100
AcDbArc
 50
120.2909910598
 51
138.1632054509
  0
ARC
  5
6C3
330
1F
100
AcDbEntity
  8
0
  6
Continuous
 62
     7
370
    25
100
AcDbCircle
 10
-3.3111736737
 20
-5.1879627504
 30
0.0
 40
0.1874999999999735
100
AcDbArc
 50
291.4130097467
 51
318.1632054509
  0
ARC
  5
6C4
330
1F
100
AcDbEntity
  8
0
  6
Continuous
 62
     7
370
    25
100
AcDbCircle
 10
0.0000000001
 20
0.0000000001
 30
0.0
 40
6.266725884372259
100
AcDbArc
 50
238.2482188419
 51
238.8386176467
  0
ARC
  5
6C5
330
1F
100
AcDbEntity
  8
0
  6
Continuous
 62
     7
370
    25
100
AcDbCircle
 10
-3.1112226682
 20
-5.3102845598
 30
0.0
 40
0.1875000000000519
100
AcDbArc
 50
158.9236310377
 51
185.673826742
  0
ARC
  5
6C6
330
1F
100
AcDbEntity
  8
0
  6
Continuous
 62
     7
370
    25
100
AcDbCircle
 10
-3.5127120388
 20
-5.1354586526
 30
0.0
 40
0.2499999999999669
100
AcDbArc
 50
338.9236310377
 51
356.7958454288
  0
ARC
  5
6C7
330
1F
100
AcDbEntity
  8
0
  6
Continuous
 62
     7
370
    25
100
AcDbCircle
 10
-3.3664410602
 20
-5.1436471093
 30
0.0
 40
0.1035000000000012
100
AcDbArc
 50
356.7958454288
 51
116.7958454288
  0
ARC
  5
6C8
330
1F
100
AcDbEntity
  8
0
  6
Continuous
 62
     7
370
    25
100
AcDbCircle
 10
-3.3003969825
 20
-5.274415721
 30
0.0
 40
0.2499999999999384
100
AcDbArc
 50
116.7958454288
 51
134.6680598198
  0
ARC
  5
6C9
330
1F
100
AcDbEntity
  8
0
  6
Continuous
 62
     7
370
    25
100
AcDbCircle
 10
-3.621293601
 20
-4.9764506681
 30
0.0
 40
0.1874999999999676
100
AcDbArc
 50
287.9178641156
 51
314.6680598198
  0
ARC
  5
6CA
330
1F
100
AcDbEntity
  8
0
  6
Continuous
 62
     7
370
    25
100
AcDbCircle
 10
0.0
 20
0.0
 30
0.0
 40
6.266725884238955
100
AcDbArc
 50
234.7530732109
 51
235.3434720156
  0
ARC
  5
6CB
330
1F
100
AcDbEntity
  8
0
  6
Continuous
 62
     7
370
    25
100
AcDbCircle
 10
-3.4291717344
 20
-5.1107347625
 30
0.0
 40
0.1875000000000367
100
AcDbArc
 50
155.4284854067
 51
182.1786811109
  0
ARC
  5
6CC
330
1F
100
AcDbEntity
  8
0
  6
Continuous
 62
     7
370
    25
100
AcDbCircle
 10
-3.8192562398
 20
-4.9117576503
 30
0.0
 40
0.2500000000000203
100
AcDbArc
 50
335.4284854067
 51
353.3006997977
  0
ARC
  5
6CD
330
1F
100
AcDbEntity
  8
0
  6
Continuous
 62
     7
370
    25
100
AcDbCircle
 10
-3.6737565309
 20
-4.9288481362
 30
0.0
 40
0.1035000000000014
100
AcDbArc
 50
353.3006997977
 51
113.3006997977
  0
ARC
  5
6CE
330
1F
100
AcDbEntity
  8
0
  6
Continuous
 62
     7
370
    25
100
AcDbCircle
 10
-3.6158074714
 20
-5.0633998233
 30
0.0
 40
0.2499999999999534
100
AcDbArc
 50
113.3006997977
 51
131.1729141887
  0
ARC
  5
6CF
330
1F
100
AcDbEntity
  8
0
  6
Continuous
 62
     7
370
    25
100
AcDbCircle
 10
-3.9179420783
 20
-4.7464258625
 30
0.0
 40
0.1875000000000092
100
AcDbArc
 50
284.4227184845
 51
311.1729141887
  0
ARC
  5
6D0
330
1F
100
AcDbEntity
  8
0
  6
Continuous
 62
     7
370
    25
100
AcDbCircle
 10
0.0
 20
0.0
 30
0.0
 40
6.266725884185971
100
AcDbArc
 50
231.2579275798
 51
231.8483263845
  0
ARC
  5
6D1
330
1F
100
AcDbEntity
  8
0
  6
Continuous
 62
     7
370
    25
100
AcDbCircle
 10
-3.7343640565
 20
-4.8921726963
 30
0.0
 40
0.187500000000046
100
AcDbArc
 50
151.9333397756
 51
178.6835354798
  0
ARC
  5
6D2
330
1F
100
AcDbEntity
  8
0
  6
Continuous
 62
     7
370
    25
100
AcDbCircle
 10
-4.1115925567
 20
-4.6697845869
 30
0.0
 40
0.2500000000000471
100
AcDbArc
 50
331.9333397756
 51
349.8055541666
  0
ARC
  5
6D3
330
1F
100
AcDbEntity
  8
0
  6
Continuous
 62
     7
370
    25
100
AcDbCircle
 10
-3.9674053859
 20
-4.6957135242
 30
0.0
 40
0.1035000000000018
100
AcDbArc
 50
349.8055541666
 51
109.8055541666
  0
ARC
  5
6D4
330
1F
100
AcDbEntity
  8
0
  6
Continuous
 62
     7
370
    25
100
AcDbCircle
 10
-3.9177669189
 20
-4.8335477456
 30
0.0
 40
0.2500000000000036
100
AcDbArc
 50
109.8055541666
 51
127.6777685577
  0
ARC
  5
6D5
330
1F
100
AcDbEntity
  8
0
  6
Continuous
 62
     7
370
    25
100
AcDbCircle
 10
-4.2000155537
 20
-4.4987440409
 30
0.0
 40
0.1874999999999675
100
AcDbArc
 50
280.9275728534
 51
307.6777685577
  0
ARC
  5
6D6
330
1F
100
AcDbEntity
  8
0
  6
Continuous
 62
     7
370
    25
100
AcDbCircle
 10
0.0
 20
-0.0000000001
 30
0.0
 40
6.266725884175713
100
AcDbArc
 50
227.7627819487
 51
228.3531807535
  0
ARC
  5
6D7
330
1F
100
AcDbEntity
  8
0
  6
Continuous
 62
     7
370
    25
100
AcDbCircle
 10
-4.0256642991
 20
-4.6554114263
 30
0.0
 40
0.1875000000000468
100
AcDbArc
 50
148.4381941445
 51
175.1883898488
  0
ARC
  5
6D8
330
1F
100
AcDbEntity
  8
0
  6
Continuous
 62
     7
370
    25
100
AcDbCircle
 10
-4.3886334792
 20
-4.4104396181
 30
0.0
 40
0.2500000000000029
100
AcDbArc
 50
328.4381941445
 51
346.3104085356
  0
ARC
  5
6D9
330
1F
100
AcDbEntity
  8
0
  6
Continuous
 62
     7
370
    25
100
AcDbCircle
 10
-4.2462952323
 20
-4.4451105495
 30
0.0
 40
0.1035000000000005
100
AcDbArc
 50
346.3104085356
 51
106.3104085356
  0
ARC
  5
6DA
330
1F
100
AcDbEntity
  8
0
  6
Continuous
 62
     7
370
    25
100
AcDbCircle
 10
-4.2051520162
 20
-4.5857145529
 30
0.0
 40
0.2500000000000265
100
AcDbArc
 50
106.3104085356
 51
124.1826229266
  0
ARC
  5
6DB
330
1F
100
AcDbEntity
  8
0
  6
Continuous
 62
     7
370
    25
100
AcDbCircle
 10
-4.4664646954
 20
-4.234326596
 30
0.0
 40
0.1875000000000003
100
AcDbArc
 50
277.4324272224
 51
304.1826229266
  0
ARC
  5
6DC
330
1F
100
AcDbEntity
  8
0
  6
Continuous
 62
     7
370
    25
100
AcDbCircle
 10
0.0
 20
0.0
 30
0.0
 40
6.266725884182994
100
AcDbArc
 50
224.2676363177
 51
224.8580351224
  0
ARC
  5
6DD
330
1F
100
AcDbEntity
  8
0
  6
Continuous
 62
     7
370
    25
100
AcDbCircle
 10
-4.301988806
 20
-4.40133172
 30
0.0
 40
0.1875000000000489
100
AcDbArc
 50
144.9430485135
 51
171.6932442177
  0
ARC
  5
6DE
330
1F
100
AcDbEntity
  8
0
  6
Continuous
 62
     7
370
    25
100
AcDbCircle
 10
-4.6493483969
 20
-4.1346875243
 30
0.0
 40
0.2500000000000056
100
AcDbArc
 50
324.9430485135
 51
342.8152629045
  0
ARC
  5
6DF
330
1F
100
AcDbEntity
  8
0
  6
Continuous
 62
     7
370
    25
100
AcDbCircle
 10
-4.5093885816
 20
-4.1779714716
 30
0.0
 40
0.1035000000000007
100
AcDbArc
 50
342.8152629045
 51
102.8152629045
  0
ARC
  5
6E0
330
1F
100
AcDbEntity
  8
0
  6
Continuous
 62
     7
370
    25
100
AcDbCircle
 10
-4.4768936718
 20
-4.3208222008
 30
0.0
 40
0.2499999999999731
100
AcDbArc
 50
102.8152629045
 51
120.6874772955
  0
ARC
  5
6E1
330
1F
100
AcDbEntity
  8
0
  6
Continuous
 62
     7
370
    25
100
AcDbCircle
 10
-4.716298295
 20
-3.9541571781
 30
0.0
 40
0.1874999999999764
100
AcDbArc
 50
273.9372815913
 51
300.6874772955
  0
ARC
  5
6E2
330
1F
100
AcDbEntity
  8
0
  6
Continuous
 62
     7
370
    25
100
AcDbCircle
 10
0.0
 20
0.0
 30
0.0
 40
6.266725884237902
100
AcDbArc
 50
220.7724906866
 51
221.3628894913
  0
ARC
  5
6E3
330
1F
100
AcDbEntity
  8
0
  6
Continuous
 62
     7
370
    25
100
AcDbCircle
 10
-4.5623096321
 20
-4.1308787707
 30
0.0
 40
0.1875000000000812
100
AcDbArc
 50
141.4479028824
 51
168.1980985866
  0
ARC
  5
6E4
330
1F
100
AcDbEntity
  8
0
  6
Continuous
 62
     7
370
    25
100
AcDbCircle
 10
-4.8927674333
 20
-3.8435541214
 30
0.0
 40
0.2500000000000402
100
AcDbArc
 50
321.4479028824
 51
339.3201172734
  0
ARC
  5
6E5
330
1F
100
AcDbEntity
  8
0
  6
Continuous
 62
     7
370
    25
100
AcDbCircle
 10
-4.7557067092
 20
-3.8952900654
 30
0.0
 40
0.103500000000002
100
AcDbArc
 50
339.3201172734
 51
99.3201172734
  0
ARC
  5
6E6
330
1F
100
AcDbEntity
  8
0
  6
Continuous
 62
     7
370
    25
100
AcDbCircle
 10
-4.731980989
 20
-4.0398561064
 30
0.0
 40
0.249999999999977
100
AcDbArc
 50
99.3201172734
 51
117.1923316645
  0
ARC
  5
6E7
330
1F
100
AcDbEntity
  8
0
  6
Continuous
 62
     7
370
    25
100
AcDbCircle
 10
-4.9485869553
 20
-3.6592780357
 30
0.0
 40
0.1874999999999784
100
AcDbArc
 50
270.4421359602
 51
297.1923316645
  0
ARC
  5
6E8
330
1F
100
AcDbEntity
  8
0
  6
Continuous
 62
     7
370
    25
100
AcDbCircle
 10
0.0
 20
0.0
 30
0.0
 40
6.266725884265066
100
AcDbArc
 50
217.2773450555
 51
217.8677438603
  0
ARC
  5
6E9
330
1F
100
AcDbEntity
  8
0
  6
Continuous
 62
     7
370
    25
100
AcDbCircle
 10
-4.8056583666
 20
-3.845058681
 30
0.0
 40
0.1875000000000245
100
AcDbArc
 50
137.9527572513
 51
164.7029529555
  0
ARC
  5
6EA
330
1F
100
AcDbEntity
  8
0
  6
Continuous
 62
     7
370
    25
100
AcDbCircle
 10
-5.1179850534
 20
-3.5381224446
 30
0.0
 40
0.2500000000000175
100
AcDbArc
 50
317.9527572513
 51
335.8249716424
  0
ARC
  5
6EB
330
1F
100
AcDbEntity
  8
0
  6
Continuous
 62
     7
370
    25
100
AcDbCircle
 10
-4.9843332954
 20
-3.5981179244
 30
0.0
 40
0.1035000000000013
100
AcDbArc
 50
335.8249716424
 51
95.8249716424
  0
ARC
  5
6EC
330
1F
100
AcDbEntity
  8
0
  6
Continuous
 62
     7
370
    25
100
AcDbCircle
 10
-4.969465026
 20
-3.7438614819
 30
0.0
 40
0.2499999999999615
100
AcDbArc
 50
95.8249716424
 51
113.6971860334
  0
MTEXT
  5
6EE
330
1F
100
AcDbEntity
  8
0
  6
Continuous
 62
     7
100
AcDbMText
 10
-6.266406064
 20
-6.3068662934
 30
0.0
 40
0.1903
 41
0.0
 71
     1
 72
     1
  1
SOLIDWORKS Educational Product.
  7
SLDTEXTSTYLE0
 73
     1
 44
1.0
  0
MTEXT
  5
6EF
330
1F
100
AcDbEntity
  8
0
  6
Continuous
 62
     7
100
AcDbMText
 10
-6.266406064
 20
-6.5923162934
 30
0.0
 40
0.1903
 41
0.0
 71
     1
 72
     1
  1
For Instructional Use Only.
  7
SLDTEXTSTYLE0
 73
     1
 44
1.0
  0
ENDSEC
  0
SECTION
  2
OBJECTS
  0
DICTIONARY
  5
C
330
0
100
AcDbDictionary
281
     1
  3
ACAD_GROUP
350
D
  3
ACAD_LAYOUT
350
1A
  3
ACAD_MLINESTYLE
350
17
  3
ACAD_PLOTSETTINGS
350
19
  3
ACAD_PLOTSTYLENAME
350
E
  3
ACAD_SCALELIST
350
47
  3
DWGPROPS
350
6F0
  0
DICTIONARY
  5
D
102
{ACAD_REACTORS
330
C
102
}
330
C
100
AcDbDictionary
281
     1
  0
DICTIONARY
  5
1A
102
{ACAD_REACTORS
330
C
102
}
330
C
100
AcDbDictionary
281
     1
  3
Layout1
350
1E
  3
Layout2
350
26
  3
Model
350
22
  0
DICTIONARY
  5
17
102
{ACAD_REACTORS
330
C
102
}
330
C
100
AcDbDictionary
281
     1
  3
Standard
350
18
  0
DICTIONARY
  5
19
102
{ACAD_REACTORS
330
C
102
}
330
C
100
AcDbDictionary
281
     1
  0
ACDBDICTIONARYWDFLT
  5
E
102
{ACAD_REACTORS
330
C
102
}
330
C
100
AcDbDictionary
281
     1
  3
Normal
350
F
100
AcDbDictionaryWithDefault
340
F
  0
DICTIONARY
  5
47
102
{ACAD_REACTORS
330
C
102
}
330
C
100
AcDbDictionary
281
     1
  3
A0
350
48
  3
A1
350
49
  3
A2
350
4A
  3
A3
350
4B
  3
A4
350
4C
  3
A5
350
4D
  3
A6
350
4E
  3
A7
350
4F
  3
A8
350
50
  3
A9
350
51
  3
B1
350
52
  3
B2
350
53
  3
B3
350
54
  3
B4
350
55
  3
B5
350
56
  3
B6
350
57
  3
B7
350
58
  0
XRECORD
  5
6F0
102
{ACAD_REACTORS
330
C
102
}
330
C
100
AcDbXrecord
280
     1
  1
DWGPROPS COOKIE
  2

  3

  4

  6

  7

  8
Riley
  9

300
=
301
=
302
=
303
=
304
=
305
=
306
=
307
=
308
=
309
=
 40
0.0
 41
2460081.043027129
 42
2460081.043059514
  1

 90
        0
  0
LAYOUT
  5
1E
102
{ACAD_REACTORS
330
1A
102
}
330
1A
100
AcDbPlotSettings
  1

  2
none_device
  4

  6

 40
0.0
 41
0.0
 42
0.0
 43
0.0
 44
0.0
 45
0.0
 46
0.0
 47
0.0
 48
0.0
 49
0.0
140
0.0
141
0.0
142
1.0
143
1.0
 70
   688
 72
     0
 73
     0
 74
     5
  7

 75
    16
147
1.0
148
0.0
149
0.0
100
AcDbLayout
  1
Layout1
 70
     1
 71
     1
 10
0.0
 20
0.0
 11
12.0
 21
9.0
 12
0.0
 22
0.0
 32
0.0
 14
1.0000000000E+20
 24
1.0000000000E+20
 34
1.0000000000E+20
 15
-1.0000000000E+20
 25
-1.0000000000E+20
 35
-1.0000000000E+20
146
0.0
 13
0.0
 23
0.0
 33
0.0
 16
1.0
 26
0.0
 36
0.0
 17
0.0
 27
1.0
 37
0.0
 76
     0
330
1B
  0
LAYOUT
  5
26
102
{ACAD_REACTORS
330
1A
102
}
330
1A
100
AcDbPlotSettings
  1

  2
none_device
  4

  6

 40
0.0
 41
0.0
 42
0.0
 43
0.0
 44
0.0
 45
0.0
 46
0.0
 47
0.0
 48
0.0
 49
0.0
140
0.0
141
0.0
142
1.0
143
1.0
 70
   688
 72
     0
 73
     0
 74
     5
  7

 75
    16
147
1.0
148
0.0
149
0.0
100
AcDbLayout
  1
Layout2
 70
     1
 71
     2
 10
0.0
 20
0.0
 11
0.0
 21
0.0
 12
0.0
 22
0.0
 32
0.0
 14
0.0
 24
0.0
 34
0.0
 15
0.0
 25
0.0
 35
0.0
146
0.0
 13
0.0
 23
0.0
 33
0.0
 16
1.0
 26
0.0
 36
0.0
 17
0.0
 27
1.0
 37
0.0
 76
     0
330
23
  0
LAYOUT
  5
22
102
{ACAD_REACTORS
330
1A
102
}
330
1A
100
AcDbPlotSettings
  1

  2
none_device
  4
ANSI_A_(11.00_x_8.50_Inches)
  6

 40
6.35
 41
19.05
 42
6.35000508
 43
19.05000254
 44
279.4
 45
215.9
 46
133.3499923534
 47
88.9171617429
 48
0.0
 49
0.0
140
0.0
141
0.0
142
0.6715110549
143
1.0
 70
  1696
 72
     0
 73
     0
 74
     0
  7

 75
     0
147
0.5913241897
148
-39.4088153714
149
0.0
100
AcDbLayout
  1
Model
 70
     1
 71
     0
 10
0.0
 20
0.0
 11
12.0
 21
9.0
 12
0.0
 22
0.0
 32
0.0
 14
-6.266406064
 24
-6.2667258842
 34
0.0
 15
6.2664066628
 25
6.2647133808
 35
0.0
146
0.0
 13
0.0
 23
0.0
 33
0.0
 16
1.0
 26
0.0
 36
0.0
 17
0.0
 27
1.0
 37
0.0
 76
     0
330
1F
331
29
  0
MLINESTYLE
  5
18
102
{ACAD_REACTORS
330
17
102
}
330
17
100
AcDbMlineStyle
  2
Standard
 70
     0
  3

 62
   256
 51
90.0
 52
90.0
 71
     2
 49
0.5
 62
   256
  6
BYLAYER
 49
-0.5
 62
   256
  6
BYLAYER
  0
ACDBPLACEHOLDER
  5
F
102
{ACAD_REACTORS
330
E
102
}
330
E
  0
SCALE
  5
48
102
{ACAD_REACTORS
330
47
102
}
330
47
100
AcDbScale
 70
     0
300
1:1
140
1.0
141
1.0
290
     1
  0
SCALE
  5
49
102
{ACAD_REACTORS
330
47
102
}
330
47
100
AcDbScale
 70
     0
300
1/128" = 1'-0"
140
0.0078125
141
12.0
290
     0
  0
SCALE
  5
4A
102
{ACAD_REACTORS
330
47
102
}
330
47
100
AcDbScale
 70
     0
300
1/64" = 1'-0"
140
0.015625
141
12.0
290
     0
  0
SCALE
  5
4B
102
{ACAD_REACTORS
330
47
102
}
330
47
100
AcDbScale
 70
     0
300
1/32" = 1'-0"
140
0.03125
141
12.0
290
     0
  0
SCALE
  5
4C
102
{ACAD_REACTORS
330
47
102
}
330
47
100
AcDbScale
 70
     0
300
1/16" = 1'-0"
140
0.0625
141
12.0
290
     0
  0
SCALE
  5
4D
102
{ACAD_REACTORS
330
47
102
}
330
47
100
AcDbScale
 70
     0
300
3/32" = 1'-0"
140
0.09375
141
12.0
290
     0
  0
SCALE
  5
4E
102
{ACAD_REACTORS
330
47
102
}
330
47
100
AcDbScale
 70
     0
300
1/8" = 1'-0"
140
0.125
141
12.0
290
     0
  0
SCALE
  5
4F
102
{ACAD_REACTORS
330
47
102
}
330
47
100
AcDbScale
 70
     0
300
3/16" = 1'-0"
140
0.1875
141
12.0
290
     0
  0
SCALE
  5
50
102
{ACAD_REACTORS
330
47
102
}
330
47
100
AcDbScale
 70
     0
300
1/4" = 1'-0"
140
0.25
141
12.0
290
     0
  0
SCALE
  5
51
102
{ACAD_REACTORS
330
47
102
}
330
47
100
AcDbScale
 70
     0
300
3/8" = 1'-0"
140
0.375
141
12.0
290
     0
  0
SCALE
  5
52
102
{ACAD_REACTORS
330
47
102
}
330
47
100
AcDbScale
 70
     0
300
1/2" = 1'-0"
140
0.5
141
12.0
290
     0
  0
SCALE
  5
53
102
{ACAD_REACTORS
330
47
102
}
330
47
100
AcDbScale
 70
     0
300
3/4" = 1'-0"
140
0.75
141
12.0
290
     0
  0
SCALE
  5
54
102
{ACAD_REACTORS
330
47
102
}
330
47
100
AcDbScale
 70
     0
300
1" = 1'-0"
140
1.0
141
12.0
290
     0
  0
SCALE
  5
55
102
{ACAD_REACTORS
330
47
102
}
330
47
100
AcDbScale
 70
     0
300
1-1/2" = 1'-0"
140
1.5
141
12.0
290
     0
  0
SCALE
  5
56
102
{ACAD_REACTORS
330
47
102
}
330
47
100
AcDbScale
 70
     0
300
3" = 1'-0"
140
3.0
141
12.0
290
     0
  0
SCALE
  5
57
102
{ACAD_REACTORS
330
47
102
}
330
47
100
AcDbScale
 70
     0
300
6" = 1'-0"
140
6.0
141
12.0
290
     0
  0
SCALE
  5
58
102
{ACAD_REACTORS
330
47
102
}
330
47
100
AcDbScale
 70
     0
300
1'-0" = 1'-0"
140
12.0
141
12.0
290
     0
  0
ENDSEC
  0
EOF
